<?xml version="1.0" encoding="utf-8" standalone="no"?>
<!DOCTYPE svg PUBLIC "-//W3C//DTD SVG 1.1//EN"
  "http://www.w3.org/Graphics/SVG/1.1/DTD/svg11.dtd">
<svg xmlns:xlink="http://www.w3.org/1999/xlink" width="517.388438pt" height="214.437391pt" viewBox="0 0 517.388438 214.437391" xmlns="http://www.w3.org/2000/svg" version="1.1">
 <metadata>
  <rdf:RDF xmlns:dc="http://purl.org/dc/elements/1.1/" xmlns:cc="http://creativecommons.org/ns#" xmlns:rdf="http://www.w3.org/1999/02/22-rdf-syntax-ns#">
   <cc:Work>
    <dc:type rdf:resource="http://purl.org/dc/dcmitype/StillImage"/>
    <dc:date>2026-06-29T23:05:22.958549</dc:date>
    <dc:format>image/svg+xml</dc:format>
    <dc:creator>
     <cc:Agent>
      <dc:title>Matplotlib v3.7.0, https://matplotlib.org/</dc:title>
     </cc:Agent>
    </dc:creator>
   </cc:Work>
  </rdf:RDF>
 </metadata>
 <defs>
  <style type="text/css">*{stroke-linejoin: round; stroke-linecap: butt}</style>
 </defs>
 <g id="figure_1">
  <g id="patch_1">
   <path d="M 0 214.437391 
L 517.388438 214.437391 
L 517.388438 0 
L 0 0 
z
" style="fill: #ffffff"/>
  </g>
  <g id="axes_1">
   <g id="patch_2">
    <path d="M 44.788438 178.124455 
L 259.838437 178.124455 
L 259.838437 19.861071 
L 44.788438 19.861071 
z
" style="fill: #ffffff"/>
   </g>
   <g id="patch_3">
    <path d="M 58.229062 178.124455 
L 63.605312 178.124455 
L 63.605312 87.098621 
L 58.229062 87.098621 
z
" clip-path="url(#pf050366036)" style="fill: #335c81"/>
   </g>
   <g id="patch_4">
    <path d="M 111.991562 178.124455 
L 117.367812 178.124455 
L 117.367812 84.118522 
L 111.991562 84.118522 
z
" clip-path="url(#pf050366036)" style="fill: #335c81"/>
   </g>
   <g id="patch_5">
    <path d="M 165.754062 178.124455 
L 171.130312 178.124455 
L 171.130312 27.397422 
L 165.754062 27.397422 
z
" clip-path="url(#pf050366036)" style="fill: #335c81"/>
   </g>
   <g id="patch_6">
    <path d="M 219.516562 178.124455 
L 224.892812 178.124455 
L 224.892812 78.420244 
L 219.516562 78.420244 
z
" clip-path="url(#pf050366036)" style="fill: #335c81"/>
   </g>
   <g id="patch_7">
    <path d="M 63.605312 178.124455 
L 68.981562 178.124455 
L 68.981562 144.773866 
L 63.605312 144.773866 
z
" clip-path="url(#pf050366036)" style="fill: #e3a62f"/>
   </g>
   <g id="patch_8">
    <path d="M 117.367812 178.124455 
L 122.744062 178.124455 
L 122.744062 144.29582 
L 117.367812 144.29582 
z
" clip-path="url(#pf050366036)" style="fill: #e3a62f"/>
   </g>
   <g id="patch_9">
    <path d="M 171.130312 178.124455 
L 176.506562 178.124455 
L 176.506562 114.810821 
L 171.130312 114.810821 
z
" clip-path="url(#pf050366036)" style="fill: #e3a62f"/>
   </g>
   <g id="patch_10">
    <path d="M 224.892812 178.124455 
L 230.269062 178.124455 
L 230.269062 138.808014 
L 224.892812 138.808014 
z
" clip-path="url(#pf050366036)" style="fill: #e3a62f"/>
   </g>
   <g id="patch_11">
    <path d="M 68.981562 178.124455 
L 74.357812 178.124455 
L 74.357812 135.295328 
L 68.981562 135.295328 
z
" clip-path="url(#pf050366036)" style="fill: #b23a48"/>
   </g>
   <g id="patch_12">
    <path d="M 122.744062 178.124455 
L 128.120312 178.124455 
L 128.120312 135.213528 
L 122.744062 135.213528 
z
" clip-path="url(#pf050366036)" style="fill: #b23a48"/>
   </g>
   <g id="patch_13">
    <path d="M 176.506562 178.124455 
L 181.882812 178.124455 
L 181.882812 101.068521 
L 176.506562 101.068521 
z
" clip-path="url(#pf050366036)" style="fill: #b23a48"/>
   </g>
   <g id="patch_14">
    <path d="M 230.269062 178.124455 
L 235.645312 178.124455 
L 235.645312 133.353442 
L 230.269062 133.353442 
z
" clip-path="url(#pf050366036)" style="fill: #b23a48"/>
   </g>
   <g id="patch_15">
    <path d="M 74.357812 178.124455 
L 79.734062 178.124455 
L 79.734062 171.767801 
L 74.357812 171.767801 
z
" clip-path="url(#pf050366036)" style="fill: #7a7a7a"/>
   </g>
   <g id="patch_16">
    <path d="M 128.120312 178.124455 
L 133.496562 178.124455 
L 133.496562 172.326549 
L 128.120312 172.326549 
z
" clip-path="url(#pf050366036)" style="fill: #7a7a7a"/>
   </g>
   <g id="patch_17">
    <path d="M 181.882812 178.124455 
L 187.259062 178.124455 
L 187.259062 171.165725 
L 181.882812 171.165725 
z
" clip-path="url(#pf050366036)" style="fill: #7a7a7a"/>
   </g>
   <g id="patch_18">
    <path d="M 235.645312 178.124455 
L 241.021562 178.124455 
L 241.021562 170.759422 
L 235.645312 170.759422 
z
" clip-path="url(#pf050366036)" style="fill: #7a7a7a"/>
   </g>
   <g id="patch_19">
    <path d="M 79.734062 178.124455 
L 85.110312 178.124455 
L 85.110312 163.902807 
L 79.734062 163.902807 
z
" clip-path="url(#pf050366036)" style="fill: #6c9a8b"/>
   </g>
   <g id="patch_20">
    <path d="M 133.496562 178.124455 
L 138.872812 178.124455 
L 138.872812 164.33679 
L 133.496562 164.33679 
z
" clip-path="url(#pf050366036)" style="fill: #6c9a8b"/>
   </g>
   <g id="patch_21">
    <path d="M 187.259062 178.124455 
L 192.635312 178.124455 
L 192.635312 151.937787 
L 187.259062 151.937787 
z
" clip-path="url(#pf050366036)" style="fill: #6c9a8b"/>
   </g>
   <g id="patch_22">
    <path d="M 241.021562 178.124455 
L 246.397812 178.124455 
L 246.397812 161.148233 
L 241.021562 161.148233 
z
" clip-path="url(#pf050366036)" style="fill: #6c9a8b"/>
   </g>
   <g id="matplotlib.axis_1">
    <g id="xtick_1">
     <g id="line2d_1">
      <defs>
       <path id="m223869fa62" d="M 0 0 
L 0 3.5 
" style="stroke: #000000; stroke-width: 0.8"/>
      </defs>
      <g>
       <use xlink:href="#m223869fa62" x="71.669687" y="178.124455" style="stroke: #000000; stroke-width: 0.8"/>
      </g>
     </g>
     <g id="text_1">
      <text style="font: 6px 'Arial', 'Helvetica', 'DejaVu Sans', sans-serif" transform="translate(54.086925 206.092895) rotate(-25)">efficiency_drop</text>
     </g>
    </g>
    <g id="xtick_2">
     <g id="line2d_2">
      <g>
       <use xlink:href="#m223869fa62" x="125.432187" y="178.124455" style="stroke: #000000; stroke-width: 0.8"/>
      </g>
     </g>
     <g id="text_2">
      <text style="font: 6px 'Arial', 'Helvetica', 'DejaVu Sans', sans-serif" transform="translate(109.311951 204.662092) rotate(-25)">in_distribution</text>
     </g>
    </g>
    <g id="xtick_3">
     <g id="line2d_3">
      <g>
       <use xlink:href="#m223869fa62" x="179.194687" y="178.124455" style="stroke: #000000; stroke-width: 0.8"/>
      </g>
     </g>
     <g id="text_3">
      <text style="font: 6px 'Arial', 'Helvetica', 'DejaVu Sans', sans-serif" transform="translate(170.17424 198.040721) rotate(-25)">load_up</text>
     </g>
    </g>
    <g id="xtick_4">
     <g id="line2d_4">
      <g>
       <use xlink:href="#m223869fa62" x="232.957187" y="178.124455" style="stroke: #000000; stroke-width: 0.8"/>
      </g>
     </g>
     <g id="text_4">
      <text style="font: 6px 'Arial', 'Helvetica', 'DejaVu Sans', sans-serif" transform="translate(219.860903 201.841908) rotate(-25)">price_spike</text>
     </g>
    </g>
   </g>
   <g id="matplotlib.axis_2">
    <g id="ytick_1">
     <g id="line2d_5">
      <path d="M 44.788438 178.124455 
L 259.838437 178.124455 
" clip-path="url(#pf050366036)" style="fill: none; stroke: #d9d9d9; stroke-width: 0.5; stroke-linecap: square"/>
     </g>
     <g id="line2d_6">
      <defs>
       <path id="m1decbc0b47" d="M 0 0 
L -3.5 0 
" style="stroke: #000000; stroke-width: 0.8"/>
      </defs>
      <g>
       <use xlink:href="#m1decbc0b47" x="44.788438" y="178.124455" style="stroke: #000000; stroke-width: 0.8"/>
      </g>
     </g>
     <g id="text_5">
      <text style="font: 6px 'Arial', 'Helvetica', 'DejaVu Sans', sans-serif; text-anchor: end" x="37.788438" y="180.271799" transform="rotate(-0 37.788438 180.271799)">0</text>
     </g>
    </g>
    <g id="ytick_2">
     <g id="line2d_7">
      <path d="M 44.788438 150.282038 
L 259.838437 150.282038 
" clip-path="url(#pf050366036)" style="fill: none; stroke: #d9d9d9; stroke-width: 0.5; stroke-linecap: square"/>
     </g>
     <g id="line2d_8">
      <g>
       <use xlink:href="#m1decbc0b47" x="44.788438" y="150.282038" style="stroke: #000000; stroke-width: 0.8"/>
      </g>
     </g>
     <g id="text_6">
      <text style="font: 6px 'Arial', 'Helvetica', 'DejaVu Sans', sans-serif; text-anchor: end" x="37.788438" y="152.429382" transform="rotate(-0 37.788438 152.429382)">100000</text>
     </g>
    </g>
    <g id="ytick_3">
     <g id="line2d_9">
      <path d="M 44.788438 122.43962 
L 259.838437 122.43962 
" clip-path="url(#pf050366036)" style="fill: none; stroke: #d9d9d9; stroke-width: 0.5; stroke-linecap: square"/>
     </g>
     <g id="line2d_10">
      <g>
       <use xlink:href="#m1decbc0b47" x="44.788438" y="122.43962" style="stroke: #000000; stroke-width: 0.8"/>
      </g>
     </g>
     <g id="text_7">
      <text style="font: 6px 'Arial', 'Helvetica', 'DejaVu Sans', sans-serif; text-anchor: end" x="37.788438" y="124.586964" transform="rotate(-0 37.788438 124.586964)">200000</text>
     </g>
    </g>
    <g id="ytick_4">
     <g id="line2d_11">
      <path d="M 44.788438 94.597203 
L 259.838437 94.597203 
" clip-path="url(#pf050366036)" style="fill: none; stroke: #d9d9d9; stroke-width: 0.5; stroke-linecap: square"/>
     </g>
     <g id="line2d_12">
      <g>
       <use xlink:href="#m1decbc0b47" x="44.788438" y="94.597203" style="stroke: #000000; stroke-width: 0.8"/>
      </g>
     </g>
     <g id="text_8">
      <text style="font: 6px 'Arial', 'Helvetica', 'DejaVu Sans', sans-serif; text-anchor: end" x="37.788438" y="96.744547" transform="rotate(-0 37.788438 96.744547)">300000</text>
     </g>
    </g>
    <g id="ytick_5">
     <g id="line2d_13">
      <path d="M 44.788438 66.754785 
L 259.838437 66.754785 
" clip-path="url(#pf050366036)" style="fill: none; stroke: #d9d9d9; stroke-width: 0.5; stroke-linecap: square"/>
     </g>
     <g id="line2d_14">
      <g>
       <use xlink:href="#m1decbc0b47" x="44.788438" y="66.754785" style="stroke: #000000; stroke-width: 0.8"/>
      </g>
     </g>
     <g id="text_9">
      <text style="font: 6px 'Arial', 'Helvetica', 'DejaVu Sans', sans-serif; text-anchor: end" x="37.788438" y="68.902129" transform="rotate(-0 37.788438 68.902129)">400000</text>
     </g>
    </g>
    <g id="ytick_6">
     <g id="line2d_15">
      <path d="M 44.788438 38.912368 
L 259.838437 38.912368 
" clip-path="url(#pf050366036)" style="fill: none; stroke: #d9d9d9; stroke-width: 0.5; stroke-linecap: square"/>
     </g>
     <g id="line2d_16">
      <g>
       <use xlink:href="#m1decbc0b47" x="44.788438" y="38.912368" style="stroke: #000000; stroke-width: 0.8"/>
      </g>
     </g>
     <g id="text_10">
      <text style="font: 6px 'Arial', 'Helvetica', 'DejaVu Sans', sans-serif; text-anchor: end" x="37.788438" y="41.059712" transform="rotate(-0 37.788438 41.059712)">500000</text>
     </g>
    </g>
    <g id="text_11">
     <text style="font: 7px 'Arial', 'Helvetica', 'DejaVu Sans', sans-serif; text-anchor: middle" x="12.295781" y="98.992763" transform="rotate(-90 12.295781 98.992763)">Mean episode cost (€)</text>
    </g>
   </g>
   <g id="patch_23">
    <path d="M 44.788438 178.124455 
L 44.788438 19.861071 
" style="fill: none; stroke: #000000; stroke-width: 0.7; stroke-linejoin: miter; stroke-linecap: square"/>
   </g>
   <g id="patch_24">
    <path d="M 44.788438 178.124455 
L 259.838437 178.124455 
" style="fill: none; stroke: #000000; stroke-width: 0.7; stroke-linejoin: miter; stroke-linecap: square"/>
   </g>
   <g id="text_12">
    <text style="font: 700 8px 'Arial', 'Helvetica', 'DejaVu Sans', sans-serif; text-anchor: start" x="23.283438" y="12.92625" transform="rotate(-0 23.283438 12.92625)">a</text>
   </g>
   <g id="text_13">
    <text style="font: 8px 'Arial', 'Helvetica', 'DejaVu Sans', sans-serif; text-anchor: middle" x="152.313437" y="13.861071" transform="rotate(-0 152.313437 13.861071)">Cost under ID and shift scenarios</text>
   </g>
   <g id="legend_1">
    <g id="text_14">
     <text style="font: 7px 'Arial', 'Helvetica', 'DejaVu Sans', sans-serif; text-anchor: start" x="216.80125" y="30.27154" transform="rotate(-0 216.80125 30.27154)">algorithm</text>
    </g>
    <g id="patch_25">
     <path d="M 207.951562 39.039508 
L 219.951562 39.039508 
L 219.951562 34.839508 
L 207.951562 34.839508 
z
" style="fill: #335c81"/>
    </g>
    <g id="text_15">
     <text style="font: 6px 'Arial', 'Helvetica', 'DejaVu Sans', sans-serif; text-anchor: start" x="224.751562" y="39.039508" transform="rotate(-0 224.751562 39.039508)">bc</text>
    </g>
    <g id="patch_26">
     <path d="M 207.951562 47.526696 
L 219.951562 47.526696 
L 219.951562 43.326696 
L 207.951562 43.326696 
z
" style="fill: #e3a62f"/>
    </g>
    <g id="text_16">
     <text style="font: 6px 'Arial', 'Helvetica', 'DejaVu Sans', sans-serif; text-anchor: start" x="224.751562" y="47.526696" transform="rotate(-0 224.751562 47.526696)">cql</text>
    </g>
    <g id="patch_27">
     <path d="M 207.951562 56.013883 
L 219.951562 56.013883 
L 219.951562 51.813883 
L 207.951562 51.813883 
z
" style="fill: #b23a48"/>
    </g>
    <g id="text_17">
     <text style="font: 6px 'Arial', 'Helvetica', 'DejaVu Sans', sans-serif; text-anchor: start" x="224.751562" y="56.013883" transform="rotate(-0 224.751562 56.013883)">iql</text>
    </g>
    <g id="patch_28">
     <path d="M 207.951562 64.501071 
L 219.951562 64.501071 
L 219.951562 60.301071 
L 207.951562 60.301071 
z
" style="fill: #7a7a7a"/>
    </g>
    <g id="text_18">
     <text style="font: 6px 'Arial', 'Helvetica', 'DejaVu Sans', sans-serif; text-anchor: start" x="224.751562" y="64.501071" transform="rotate(-0 224.751562 64.501071)">rule_based</text>
    </g>
    <g id="patch_29">
     <path d="M 207.951562 73.006071 
L 219.951562 73.006071 
L 219.951562 68.806071 
L 207.951562 68.806071 
z
" style="fill: #6c9a8b"/>
    </g>
    <g id="text_19">
     <text style="font: 6px 'Arial', 'Helvetica', 'DejaVu Sans', sans-serif; text-anchor: start" x="224.751562" y="73.006071" transform="rotate(-0 224.751562 73.006071)">td3_bc</text>
    </g>
   </g>
  </g>
  <g id="axes_2">
   <g id="patch_30">
    <path d="M 295.138438 178.124455 
L 510.188438 178.124455 
L 510.188438 19.861071 
L 295.138438 19.861071 
z
" style="fill: #ffffff"/>
   </g>
   <g id="patch_31">
    <path d="M 308.579063 178.124455 
L 313.955313 178.124455 
L 313.955313 102.54346 
L 308.579063 102.54346 
z
" clip-path="url(#pbe3251e408)" style="fill: #335c81"/>
   </g>
   <g id="patch_32">
    <path d="M 362.341563 178.124455 
L 367.717813 178.124455 
L 367.717813 102.49056 
L 362.341563 102.49056 
z
" clip-path="url(#pbe3251e408)" style="fill: #335c81"/>
   </g>
   <g id="patch_33">
    <path d="M 416.104063 178.124455 
L 421.480313 178.124455 
L 421.480313 75.953074 
L 416.104063 75.953074 
z
" clip-path="url(#pbe3251e408)" style="fill: #335c81"/>
   </g>
   <g id="patch_34">
    <path d="M 469.866563 178.124455 
L 475.242813 178.124455 
L 475.242813 103.217161 
L 469.866563 103.217161 
z
" clip-path="url(#pbe3251e408)" style="fill: #335c81"/>
   </g>
   <g id="patch_35">
    <path d="M 313.955313 178.124455 
L 319.331563 178.124455 
L 319.331563 77.85245 
L 313.955313 77.85245 
z
" clip-path="url(#pbe3251e408)" style="fill: #e3a62f"/>
   </g>
   <g id="patch_36">
    <path d="M 367.717813 178.124455 
L 373.094063 178.124455 
L 373.094063 79.532267 
L 367.717813 79.532267 
z
" clip-path="url(#pbe3251e408)" style="fill: #e3a62f"/>
   </g>
   <g id="patch_37">
    <path d="M 421.480313 178.124455 
L 426.856563 178.124455 
L 426.856563 84.615257 
L 421.480313 84.615257 
z
" clip-path="url(#pbe3251e408)" style="fill: #e3a62f"/>
   </g>
   <g id="patch_38">
    <path d="M 475.242813 178.124455 
L 480.619063 178.124455 
L 480.619063 82.862159 
L 475.242813 82.862159 
z
" clip-path="url(#pbe3251e408)" style="fill: #e3a62f"/>
   </g>
   <g id="patch_39">
    <path d="M 319.331563 178.124455 
L 324.707813 178.124455 
L 324.707813 86.675102 
L 319.331563 86.675102 
z
" clip-path="url(#pbe3251e408)" style="fill: #b23a48"/>
   </g>
   <g id="patch_40">
    <path d="M 373.094063 178.124455 
L 378.470313 178.124455 
L 378.470313 86.986429 
L 373.094063 86.986429 
z
" clip-path="url(#pbe3251e408)" style="fill: #b23a48"/>
   </g>
   <g id="patch_41">
    <path d="M 426.856563 178.124455 
L 432.232813 178.124455 
L 432.232813 87.880836 
L 426.856563 87.880836 
z
" clip-path="url(#pbe3251e408)" style="fill: #b23a48"/>
   </g>
   <g id="patch_42">
    <path d="M 480.619063 178.124455 
L 485.995313 178.124455 
L 485.995313 85.103258 
L 480.619063 85.103258 
z
" clip-path="url(#pbe3251e408)" style="fill: #b23a48"/>
   </g>
   <g id="patch_43">
    <path d="M 324.707813 178.124455 
L 330.084063 178.124455 
L 330.084063 178.124455 
L 324.707813 178.124455 
z
" clip-path="url(#pbe3251e408)" style="fill: #7a7a7a"/>
   </g>
   <g id="patch_44">
    <path d="M 378.470313 178.124455 
L 383.846563 178.124455 
L 383.846563 178.124455 
L 378.470313 178.124455 
z
" clip-path="url(#pbe3251e408)" style="fill: #7a7a7a"/>
   </g>
   <g id="patch_45">
    <path d="M 432.232813 178.124455 
L 437.609063 178.124455 
L 437.609063 178.105125 
L 432.232813 178.105125 
z
" clip-path="url(#pbe3251e408)" style="fill: #7a7a7a"/>
   </g>
   <g id="patch_46">
    <path d="M 485.995313 178.124455 
L 491.371563 178.124455 
L 491.371563 178.124455 
L 485.995313 178.124455 
z
" clip-path="url(#pbe3251e408)" style="fill: #7a7a7a"/>
   </g>
   <g id="patch_47">
    <path d="M 330.084063 178.124455 
L 335.460313 178.124455 
L 335.460313 27.397422 
L 330.084063 27.397422 
z
" clip-path="url(#pbe3251e408)" style="fill: #6c9a8b"/>
   </g>
   <g id="patch_48">
    <path d="M 383.846563 178.124455 
L 389.222813 178.124455 
L 389.222813 28.421365 
L 383.846563 28.421365 
z
" clip-path="url(#pbe3251e408)" style="fill: #6c9a8b"/>
   </g>
   <g id="patch_49">
    <path d="M 437.609063 178.124455 
L 442.985313 178.124455 
L 442.985313 52.83795 
L 437.609063 52.83795 
z
" clip-path="url(#pbe3251e408)" style="fill: #6c9a8b"/>
   </g>
   <g id="patch_50">
    <path d="M 491.371563 178.124455 
L 496.747813 178.124455 
L 496.747813 27.815312 
L 491.371563 27.815312 
z
" clip-path="url(#pbe3251e408)" style="fill: #6c9a8b"/>
   </g>
   <g id="matplotlib.axis_3">
    <g id="xtick_5">
     <g id="line2d_17">
      <g>
       <use xlink:href="#m223869fa62" x="322.019688" y="178.124455" style="stroke: #000000; stroke-width: 0.8"/>
      </g>
     </g>
     <g id="text_20">
      <text style="font: 6px 'Arial', 'Helvetica', 'DejaVu Sans', sans-serif" transform="translate(304.436925 206.092895) rotate(-25)">efficiency_drop</text>
     </g>
    </g>
    <g id="xtick_6">
     <g id="line2d_18">
      <g>
       <use xlink:href="#m223869fa62" x="375.782188" y="178.124455" style="stroke: #000000; stroke-width: 0.8"/>
      </g>
     </g>
     <g id="text_21">
      <text style="font: 6px 'Arial', 'Helvetica', 'DejaVu Sans', sans-serif" transform="translate(359.661951 204.662092) rotate(-25)">in_distribution</text>
     </g>
    </g>
    <g id="xtick_7">
     <g id="line2d_19">
      <g>
       <use xlink:href="#m223869fa62" x="429.544688" y="178.124455" style="stroke: #000000; stroke-width: 0.8"/>
      </g>
     </g>
     <g id="text_22">
      <text style="font: 6px 'Arial', 'Helvetica', 'DejaVu Sans', sans-serif" transform="translate(420.52424 198.040721) rotate(-25)">load_up</text>
     </g>
    </g>
    <g id="xtick_8">
     <g id="line2d_20">
      <g>
       <use xlink:href="#m223869fa62" x="483.307188" y="178.124455" style="stroke: #000000; stroke-width: 0.8"/>
      </g>
     </g>
     <g id="text_23">
      <text style="font: 6px 'Arial', 'Helvetica', 'DejaVu Sans', sans-serif" transform="translate(470.210903 201.841908) rotate(-25)">price_spike</text>
     </g>
    </g>
   </g>
   <g id="matplotlib.axis_4">
    <g id="ytick_7">
     <g id="line2d_21">
      <path d="M 295.138438 178.124455 
L 510.188438 178.124455 
" clip-path="url(#pbe3251e408)" style="fill: none; stroke: #d9d9d9; stroke-width: 0.5; stroke-linecap: square"/>
     </g>
     <g id="line2d_22">
      <g>
       <use xlink:href="#m1decbc0b47" x="295.138438" y="178.124455" style="stroke: #000000; stroke-width: 0.8"/>
      </g>
     </g>
     <g id="text_24">
      <text style="font: 6px 'Arial', 'Helvetica', 'DejaVu Sans', sans-serif; text-anchor: end" x="288.138438" y="180.271799" transform="rotate(-0 288.138438 180.271799)">0</text>
     </g>
    </g>
    <g id="ytick_8">
     <g id="line2d_23">
      <path d="M 295.138438 149.911019 
L 510.188438 149.911019 
" clip-path="url(#pbe3251e408)" style="fill: none; stroke: #d9d9d9; stroke-width: 0.5; stroke-linecap: square"/>
     </g>
     <g id="line2d_24">
      <g>
       <use xlink:href="#m1decbc0b47" x="295.138438" y="149.911019" style="stroke: #000000; stroke-width: 0.8"/>
      </g>
     </g>
     <g id="text_25">
      <text style="font: 6px 'Arial', 'Helvetica', 'DejaVu Sans', sans-serif; text-anchor: end" x="288.138438" y="152.058363" transform="rotate(-0 288.138438 152.058363)">20</text>
     </g>
    </g>
    <g id="ytick_9">
     <g id="line2d_25">
      <path d="M 295.138438 121.697583 
L 510.188438 121.697583 
" clip-path="url(#pbe3251e408)" style="fill: none; stroke: #d9d9d9; stroke-width: 0.5; stroke-linecap: square"/>
     </g>
     <g id="line2d_26">
      <g>
       <use xlink:href="#m1decbc0b47" x="295.138438" y="121.697583" style="stroke: #000000; stroke-width: 0.8"/>
      </g>
     </g>
     <g id="text_26">
      <text style="font: 6px 'Arial', 'Helvetica', 'DejaVu Sans', sans-serif; text-anchor: end" x="288.138438" y="123.844927" transform="rotate(-0 288.138438 123.844927)">40</text>
     </g>
    </g>
    <g id="ytick_10">
     <g id="line2d_27">
      <path d="M 295.138438 93.484147 
L 510.188438 93.484147 
" clip-path="url(#pbe3251e408)" style="fill: none; stroke: #d9d9d9; stroke-width: 0.5; stroke-linecap: square"/>
     </g>
     <g id="line2d_28">
      <g>
       <use xlink:href="#m1decbc0b47" x="295.138438" y="93.484147" style="stroke: #000000; stroke-width: 0.8"/>
      </g>
     </g>
     <g id="text_27">
      <text style="font: 6px 'Arial', 'Helvetica', 'DejaVu Sans', sans-serif; text-anchor: end" x="288.138438" y="95.63149" transform="rotate(-0 288.138438 95.63149)">60</text>
     </g>
    </g>
    <g id="ytick_11">
     <g id="line2d_29">
      <path d="M 295.138438 65.27071 
L 510.188438 65.27071 
" clip-path="url(#pbe3251e408)" style="fill: none; stroke: #d9d9d9; stroke-width: 0.5; stroke-linecap: square"/>
     </g>
     <g id="line2d_30">
      <g>
       <use xlink:href="#m1decbc0b47" x="295.138438" y="65.27071" style="stroke: #000000; stroke-width: 0.8"/>
      </g>
     </g>
     <g id="text_28">
      <text style="font: 6px 'Arial', 'Helvetica', 'DejaVu Sans', sans-serif; text-anchor: end" x="288.138438" y="67.418054" transform="rotate(-0 288.138438 67.418054)">80</text>
     </g>
    </g>
    <g id="ytick_12">
     <g id="line2d_31">
      <path d="M 295.138438 37.057274 
L 510.188438 37.057274 
" clip-path="url(#pbe3251e408)" style="fill: none; stroke: #d9d9d9; stroke-width: 0.5; stroke-linecap: square"/>
     </g>
     <g id="line2d_32">
      <g>
       <use xlink:href="#m1decbc0b47" x="295.138438" y="37.057274" style="stroke: #000000; stroke-width: 0.8"/>
      </g>
     </g>
     <g id="text_29">
      <text style="font: 6px 'Arial', 'Helvetica', 'DejaVu Sans', sans-serif; text-anchor: end" x="288.138438" y="39.204618" transform="rotate(-0 288.138438 39.204618)">100</text>
     </g>
    </g>
    <g id="text_30">
     <text style="font: 7px 'Arial', 'Helvetica', 'DejaVu Sans', sans-serif; text-anchor: middle" x="272.655469" y="98.992763" transform="rotate(-90 272.655469 98.992763)">Mean episode safety cost</text>
    </g>
   </g>
   <g id="patch_51">
    <path d="M 295.138438 178.124455 
L 295.138438 19.861071 
" style="fill: none; stroke: #000000; stroke-width: 0.7; stroke-linejoin: miter; stroke-linecap: square"/>
   </g>
   <g id="patch_52">
    <path d="M 295.138438 178.124455 
L 510.188438 178.124455 
" style="fill: none; stroke: #000000; stroke-width: 0.7; stroke-linejoin: miter; stroke-linecap: square"/>
   </g>
   <g id="text_31">
    <text style="font: 700 8px 'Arial', 'Helvetica', 'DejaVu Sans', sans-serif; text-anchor: start" x="273.633438" y="12.92625" transform="rotate(-0 273.633438 12.92625)">b</text>
   </g>
   <g id="text_32">
    <text style="font: 8px 'Arial', 'Helvetica', 'DejaVu Sans', sans-serif; text-anchor: middle" x="402.663438" y="13.861071" transform="rotate(-0 402.663438 13.861071)">Safety degradation under shifts</text>
   </g>
   <g id="legend_2">
    <g id="text_33">
     <text style="font: 7px 'Arial', 'Helvetica', 'DejaVu Sans', sans-serif; text-anchor: start" x="467.15125" y="30.27154" transform="rotate(-0 467.15125 30.27154)">algorithm</text>
    </g>
    <g id="patch_53">
     <path d="M 458.301563 39.039508 
L 470.301563 39.039508 
L 470.301563 34.839508 
L 458.301563 34.839508 
z
" style="fill: #335c81"/>
    </g>
    <g id="text_34">
     <text style="font: 6px 'Arial', 'Helvetica', 'DejaVu Sans', sans-serif; text-anchor: start" x="475.101563" y="39.039508" transform="rotate(-0 475.101563 39.039508)">bc</text>
    </g>
    <g id="patch_54">
     <path d="M 458.301563 47.526696 
L 470.301563 47.526696 
L 470.301563 43.326696 
L 458.301563 43.326696 
z
" style="fill: #e3a62f"/>
    </g>
    <g id="text_35">
     <text style="font: 6px 'Arial', 'Helvetica', 'DejaVu Sans', sans-serif; text-anchor: start" x="475.101563" y="47.526696" transform="rotate(-0 475.101563 47.526696)">cql</text>
    </g>
    <g id="patch_55">
     <path d="M 458.301563 56.013883 
L 470.301563 56.013883 
L 470.301563 51.813883 
L 458.301563 51.813883 
z
" style="fill: #b23a48"/>
    </g>
    <g id="text_36">
     <text style="font: 6px 'Arial', 'Helvetica', 'DejaVu Sans', sans-serif; text-anchor: start" x="475.101563" y="56.013883" transform="rotate(-0 475.101563 56.013883)">iql</text>
    </g>
    <g id="patch_56">
     <path d="M 458.301563 64.501071 
L 470.301563 64.501071 
L 470.301563 60.301071 
L 458.301563 60.301071 
z
" style="fill: #7a7a7a"/>
    </g>
    <g id="text_37">
     <text style="font: 6px 'Arial', 'Helvetica', 'DejaVu Sans', sans-serif; text-anchor: start" x="475.101563" y="64.501071" transform="rotate(-0 475.101563 64.501071)">rule_based</text>
    </g>
    <g id="patch_57">
     <path d="M 458.301563 73.006071 
L 470.301563 73.006071 
L 470.301563 68.806071 
L 458.301563 68.806071 
z
" style="fill: #6c9a8b"/>
    </g>
    <g id="text_38">
     <text style="font: 6px 'Arial', 'Helvetica', 'DejaVu Sans', sans-serif; text-anchor: start" x="475.101563" y="73.006071" transform="rotate(-0 475.101563 73.006071)">td3_bc</text>
    </g>
   </g>
  </g>
 </g>
 <defs>
  <clipPath id="pf050366036">
   <rect x="44.788438" y="19.861071" width="215.05" height="158.263385"/>
  </clipPath>
  <clipPath id="pbe3251e408">
   <rect x="295.138438" y="19.861071" width="215.05" height="158.263385"/>
  </clipPath>
 </defs>
</svg>
