<?xml version="1.0" encoding="utf-8" standalone="no"?>
<!DOCTYPE svg PUBLIC "-//W3C//DTD SVG 1.1//EN"
  "http://www.w3.org/Graphics/SVG/1.1/DTD/svg11.dtd">
<svg xmlns:xlink="http://www.w3.org/1999/xlink" width="517.301719pt" height="197.278219pt" viewBox="0 0 517.301719 197.278219" xmlns="http://www.w3.org/2000/svg" version="1.1">
 <metadata>
  <rdf:RDF xmlns:dc="http://purl.org/dc/elements/1.1/" xmlns:cc="http://creativecommons.org/ns#" xmlns:rdf="http://www.w3.org/1999/02/22-rdf-syntax-ns#">
   <cc:Work>
    <dc:type rdf:resource="http://purl.org/dc/dcmitype/StillImage"/>
    <dc:date>2026-06-29T23:05:19.671863</dc:date>
    <dc:format>image/svg+xml</dc:format>
    <dc:creator>
     <cc:Agent>
      <dc:title>Matplotlib v3.7.0, https://matplotlib.org/</dc:title>
     </cc:Agent>
    </dc:creator>
   </cc:Work>
  </rdf:RDF>
 </metadata>
 <defs>
  <style type="text/css">*{stroke-linejoin: round; stroke-linecap: butt}</style>
 </defs>
 <g id="figure_1">
  <g id="patch_1">
   <path d="M 0 197.278219 
L 517.301719 197.278219 
L 517.301719 0 
L 0 0 
z
" style="fill: #ffffff"/>
  </g>
  <g id="axes_1">
   <g id="patch_2">
    <path d="M 32.941719 167.104 
L 253.841719 167.104 
L 253.841719 46.5015 
L 32.941719 46.5015 
z
" style="fill: #ffffff"/>
   </g>
   <g id="matplotlib.axis_1">
    <g id="xtick_1">
     <g id="line2d_1">
      <defs>
       <path id="m01dedd5f79" d="M 0 0 
L 0 3.5 
" style="stroke: #000000; stroke-width: 0.8"/>
      </defs>
      <g>
       <use xlink:href="#m01dedd5f79" x="42.982628" y="167.104" style="stroke: #000000; stroke-width: 0.8"/>
      </g>
     </g>
     <g id="text_1">
      <text style="font: 6px 'Arial', 'Helvetica', 'DejaVu Sans', sans-serif; text-anchor: middle" x="42.982628" y="178.398687" transform="rotate(-0 42.982628 178.398687)">0</text>
     </g>
    </g>
    <g id="xtick_2">
     <g id="line2d_2">
      <g>
       <use xlink:href="#m01dedd5f79" x="83.307564" y="167.104" style="stroke: #000000; stroke-width: 0.8"/>
      </g>
     </g>
     <g id="text_2">
      <text style="font: 6px 'Arial', 'Helvetica', 'DejaVu Sans', sans-serif; text-anchor: middle" x="83.307564" y="178.398687" transform="rotate(-0 83.307564 178.398687)">50</text>
     </g>
    </g>
    <g id="xtick_3">
     <g id="line2d_3">
      <g>
       <use xlink:href="#m01dedd5f79" x="123.6325" y="167.104" style="stroke: #000000; stroke-width: 0.8"/>
      </g>
     </g>
     <g id="text_3">
      <text style="font: 6px 'Arial', 'Helvetica', 'DejaVu Sans', sans-serif; text-anchor: middle" x="123.6325" y="178.398687" transform="rotate(-0 123.6325 178.398687)">100</text>
     </g>
    </g>
    <g id="xtick_4">
     <g id="line2d_4">
      <g>
       <use xlink:href="#m01dedd5f79" x="163.957436" y="167.104" style="stroke: #000000; stroke-width: 0.8"/>
      </g>
     </g>
     <g id="text_4">
      <text style="font: 6px 'Arial', 'Helvetica', 'DejaVu Sans', sans-serif; text-anchor: middle" x="163.957436" y="178.398687" transform="rotate(-0 163.957436 178.398687)">150</text>
     </g>
    </g>
    <g id="xtick_5">
     <g id="line2d_5">
      <g>
       <use xlink:href="#m01dedd5f79" x="204.282372" y="167.104" style="stroke: #000000; stroke-width: 0.8"/>
      </g>
     </g>
     <g id="text_5">
      <text style="font: 6px 'Arial', 'Helvetica', 'DejaVu Sans', sans-serif; text-anchor: middle" x="204.282372" y="178.398687" transform="rotate(-0 204.282372 178.398687)">200</text>
     </g>
    </g>
    <g id="xtick_6">
     <g id="line2d_6">
      <g>
       <use xlink:href="#m01dedd5f79" x="244.607308" y="167.104" style="stroke: #000000; stroke-width: 0.8"/>
      </g>
     </g>
     <g id="text_6">
      <text style="font: 6px 'Arial', 'Helvetica', 'DejaVu Sans', sans-serif; text-anchor: middle" x="244.607308" y="178.398687" transform="rotate(-0 244.607308 178.398687)">250</text>
     </g>
    </g>
    <g id="text_7">
     <text style="font: 7px 'Arial', 'Helvetica', 'DejaVu Sans', sans-serif; text-anchor: middle" x="143.391719" y="188.686969" transform="rotate(-0 143.391719 188.686969)">Gradient step</text>
    </g>
   </g>
   <g id="matplotlib.axis_2">
    <g id="ytick_1">
     <g id="line2d_7">
      <path d="M 32.941719 161.622068 
L 253.841719 161.622068 
" clip-path="url(#p6a63111344)" style="fill: none; stroke: #d9d9d9; stroke-width: 0.5; stroke-linecap: square"/>
     </g>
     <g id="line2d_8">
      <defs>
       <path id="m00cf0a01e0" d="M 0 0 
L -3.5 0 
" style="stroke: #000000; stroke-width: 0.8"/>
      </defs>
      <g>
       <use xlink:href="#m00cf0a01e0" x="32.941719" y="161.622068" style="stroke: #000000; stroke-width: 0.8"/>
      </g>
     </g>
     <g id="text_8">
      <text style="font: 6px 'Arial', 'Helvetica', 'DejaVu Sans', sans-serif; text-anchor: end" x="25.941719" y="163.769412" transform="rotate(-0 25.941719 163.769412)">0.0</text>
     </g>
    </g>
    <g id="ytick_2">
     <g id="line2d_9">
      <path d="M 32.941719 137.086053 
L 253.841719 137.086053 
" clip-path="url(#p6a63111344)" style="fill: none; stroke: #d9d9d9; stroke-width: 0.5; stroke-linecap: square"/>
     </g>
     <g id="line2d_10">
      <g>
       <use xlink:href="#m00cf0a01e0" x="32.941719" y="137.086053" style="stroke: #000000; stroke-width: 0.8"/>
      </g>
     </g>
     <g id="text_9">
      <text style="font: 6px 'Arial', 'Helvetica', 'DejaVu Sans', sans-serif; text-anchor: end" x="25.941719" y="139.233397" transform="rotate(-0 25.941719 139.233397)">0.5</text>
     </g>
    </g>
    <g id="ytick_3">
     <g id="line2d_11">
      <path d="M 32.941719 112.550038 
L 253.841719 112.550038 
" clip-path="url(#p6a63111344)" style="fill: none; stroke: #d9d9d9; stroke-width: 0.5; stroke-linecap: square"/>
     </g>
     <g id="line2d_12">
      <g>
       <use xlink:href="#m00cf0a01e0" x="32.941719" y="112.550038" style="stroke: #000000; stroke-width: 0.8"/>
      </g>
     </g>
     <g id="text_10">
      <text style="font: 6px 'Arial', 'Helvetica', 'DejaVu Sans', sans-serif; text-anchor: end" x="25.941719" y="114.697382" transform="rotate(-0 25.941719 114.697382)">1.0</text>
     </g>
    </g>
    <g id="ytick_4">
     <g id="line2d_13">
      <path d="M 32.941719 88.014023 
L 253.841719 88.014023 
" clip-path="url(#p6a63111344)" style="fill: none; stroke: #d9d9d9; stroke-width: 0.5; stroke-linecap: square"/>
     </g>
     <g id="line2d_14">
      <g>
       <use xlink:href="#m00cf0a01e0" x="32.941719" y="88.014023" style="stroke: #000000; stroke-width: 0.8"/>
      </g>
     </g>
     <g id="text_11">
      <text style="font: 6px 'Arial', 'Helvetica', 'DejaVu Sans', sans-serif; text-anchor: end" x="25.941719" y="90.161367" transform="rotate(-0 25.941719 90.161367)">1.5</text>
     </g>
    </g>
    <g id="ytick_5">
     <g id="line2d_15">
      <path d="M 32.941719 63.478008 
L 253.841719 63.478008 
" clip-path="url(#p6a63111344)" style="fill: none; stroke: #d9d9d9; stroke-width: 0.5; stroke-linecap: square"/>
     </g>
     <g id="line2d_16">
      <g>
       <use xlink:href="#m00cf0a01e0" x="32.941719" y="63.478008" style="stroke: #000000; stroke-width: 0.8"/>
      </g>
     </g>
     <g id="text_12">
      <text style="font: 6px 'Arial', 'Helvetica', 'DejaVu Sans', sans-serif; text-anchor: end" x="25.941719" y="65.625352" transform="rotate(-0 25.941719 65.625352)">2.0</text>
     </g>
    </g>
    <g id="text_13">
     <text style="font: 7px 'Arial', 'Helvetica', 'DejaVu Sans', sans-serif; text-anchor: middle" x="12.210469" y="106.80275" transform="rotate(-90 12.210469 106.80275)">Loss</text>
    </g>
   </g>
   <g id="line2d_17">
    <path d="M 42.982628 144.223642 
L 43.789127 144.382628 
L 44.595625 144.177451 
L 45.402124 144.270708 
L 46.208623 144.547954 
L 47.015121 144.664229 
L 47.82162 144.536102 
L 48.628119 145.113328 
L 49.434618 144.627787 
L 50.241116 145.254605 
L 51.047615 145.280412 
L 51.854114 145.057462 
L 52.660613 145.318162 
L 53.467111 146.13497 
L 54.27361 145.229824 
L 55.080109 145.633424 
L 55.886607 144.834793 
L 56.693106 145.988033 
L 57.499605 145.953087 
L 58.306104 146.394938 
L 59.112602 146.388195 
L 59.919101 145.976882 
L 60.7256 146.2098 
L 61.532098 145.978588 
L 62.338597 146.261765 
L 63.145096 147.030616 
L 64.758093 146.194323 
L 67.17759 146.952598 
L 67.984088 146.612654 
L 68.790587 147.328098 
L 69.597086 146.859589 
L 70.403584 146.826318 
L 71.210083 147.44897 
L 72.016582 147.558035 
L 72.823081 147.549132 
L 73.629579 146.142489 
L 74.436078 147.497374 
L 75.242577 147.160555 
L 76.049075 147.795211 
L 77.662073 146.652205 
L 78.468572 147.361032 
L 79.27507 147.638938 
L 80.081569 147.333023 
L 80.888068 147.637567 
L 81.694567 147.150375 
L 82.501065 147.321303 
L 83.307564 147.354208 
L 84.114063 148.686048 
L 84.920561 147.012447 
L 85.72706 147.101065 
L 87.340058 148.213676 
L 88.146556 147.629676 
L 88.953055 147.63278 
L 89.759554 147.919788 
L 90.566052 147.852121 
L 91.372551 148.04383 
L 92.985549 147.718256 
L 93.792047 148.035198 
L 94.598546 147.94688 
L 95.405045 148.22859 
L 96.211544 147.898706 
L 97.824541 147.823023 
L 98.63104 147.720097 
L 100.244037 148.16484 
L 101.050536 147.827836 
L 101.857035 148.398768 
L 102.663533 148.61833 
L 103.470032 148.344722 
L 104.276531 148.220011 
L 105.083029 148.625591 
L 105.889528 148.127989 
L 106.696027 148.850986 
L 107.502526 148.893012 
L 109.922022 148.354928 
L 110.728521 149.068582 
L 111.535019 148.423794 
L 112.341518 148.646794 
L 113.148017 148.74026 
L 113.954515 149.488617 
L 114.761014 148.342661 
L 115.567513 148.951996 
L 117.987009 149.082743 
L 118.793508 148.909049 
L 119.600006 149.392026 
L 120.406505 149.299986 
L 121.213004 148.902848 
L 122.019503 149.336287 
L 122.826001 148.730405 
L 123.6325 148.92452 
L 124.438999 148.52827 
L 125.245498 149.239936 
L 126.051996 149.533898 
L 126.858495 149.211129 
L 127.664994 149.840373 
L 128.471492 149.455638 
L 129.277991 149.836193 
L 130.08449 149.561872 
L 130.890989 150.013735 
L 131.697487 148.876347 
L 132.503986 149.476054 
L 133.310485 149.346582 
L 134.116983 149.641718 
L 135.729981 149.892108 
L 136.53648 149.700188 
L 138.149477 149.618315 
L 138.955976 149.936465 
L 139.762475 149.325422 
L 140.568973 149.687814 
L 141.375472 149.909039 
L 142.181971 149.35042 
L 142.988469 149.83954 
L 144.601467 149.655132 
L 145.407966 150.241469 
L 146.214464 149.986569 
L 147.827462 150.052355 
L 148.63396 149.870426 
L 149.440459 150.088866 
L 150.246958 149.719837 
L 151.859955 150.269004 
L 152.666454 150.13174 
L 153.472953 149.738897 
L 155.08595 150.487144 
L 155.892449 150.404913 
L 156.698948 149.462438 
L 157.505446 150.138498 
L 158.311945 150.170054 
L 159.118444 149.989288 
L 159.924943 150.450068 
L 160.731441 149.925015 
L 161.53794 150.505569 
L 162.344439 150.427557 
L 163.150937 149.977667 
L 163.957436 149.973117 
L 164.763935 150.541499 
L 165.570434 150.75522 
L 166.376932 150.500548 
L 167.183431 150.096238 
L 167.98993 150.26262 
L 168.796428 150.110362 
L 170.409426 150.801131 
L 171.215925 150.692605 
L 172.022423 150.363949 
L 172.828922 150.54346 
L 173.635421 150.195812 
L 174.44192 150.488688 
L 175.248418 150.180713 
L 176.054917 150.381431 
L 176.861416 150.098865 
L 177.667914 150.940091 
L 178.474413 150.332533 
L 179.280912 150.286006 
L 180.087411 150.9157 
L 180.893909 150.051648 
L 181.700408 149.986813 
L 182.506907 151.010117 
L 183.313405 150.8389 
L 184.119904 150.442227 
L 184.926403 151.789084 
L 185.732902 151.339264 
L 186.5394 151.126696 
L 187.345899 150.750459 
L 189.765395 150.196828 
L 190.571894 150.763916 
L 191.378393 150.909062 
L 192.184891 150.747334 
L 192.99139 150.921555 
L 193.797889 150.536439 
L 194.604388 150.447566 
L 196.217385 150.894208 
L 197.023884 151.04788 
L 198.636881 150.747432 
L 199.44338 151.034899 
L 200.249879 150.791409 
L 201.056377 151.233674 
L 202.669375 150.673769 
L 203.475874 150.12283 
L 204.282372 150.755352 
L 205.088871 151.194302 
L 205.89537 150.831641 
L 206.701868 150.994521 
L 207.508367 150.472267 
L 208.314866 150.448423 
L 209.121365 151.035355 
L 209.927863 151.015886 
L 210.734362 151.175352 
L 211.540861 150.708687 
L 212.347359 150.997168 
L 213.960357 151.046904 
L 214.766856 151.616822 
L 215.573354 150.578937 
L 216.379853 150.674262 
L 217.186352 150.645713 
L 217.992851 150.311185 
L 218.799349 151.033666 
L 219.605848 151.354443 
L 220.412347 150.748233 
L 221.218845 150.997404 
L 222.831843 150.75136 
L 223.638342 151.034678 
L 224.44484 150.781241 
L 225.251339 151.29975 
L 226.057838 151.241858 
L 226.864336 151.844002 
L 227.670835 150.738481 
L 228.477334 151.170244 
L 229.283833 151.011684 
L 230.090331 151.072859 
L 230.89683 151.599534 
L 231.703329 151.679729 
L 232.509828 151.207022 
L 233.316326 150.381581 
L 234.122825 150.736472 
L 234.929324 150.686114 
L 236.542321 151.556524 
L 237.34882 150.802416 
L 238.155319 151.02227 
L 238.961817 150.450536 
L 239.768316 151.003219 
L 240.574815 151.394168 
L 241.381313 151.466354 
L 242.187812 150.949948 
L 242.994311 151.321516 
L 243.80081 152.033108 
L 243.80081 152.033108 
" clip-path="url(#p6a63111344)" style="fill: none; stroke: #335c81; stroke-width: 1.5; stroke-linecap: square"/>
   </g>
   <g id="line2d_18">
    <path d="M 42.982628 144.14439 
L 43.789127 161.622068 
L 44.595625 143.638424 
L 45.402124 161.622068 
L 46.208623 143.593548 
L 47.015121 161.622068 
L 47.82162 143.182058 
L 48.628119 161.622068 
L 49.434618 142.831878 
L 50.241116 161.622068 
L 51.047615 143.181919 
L 51.854114 161.622068 
L 52.660613 142.784129 
L 53.467111 161.622068 
L 54.27361 142.225467 
L 55.080109 161.622068 
L 55.886607 141.543275 
L 56.693106 161.622068 
L 57.499605 142.307744 
L 58.306104 161.622068 
L 59.112602 142.294662 
L 59.919101 161.622068 
L 60.7256 141.7415 
L 61.532098 161.622068 
L 62.338597 141.360853 
L 63.145096 161.622068 
L 63.951595 141.253877 
L 64.758093 161.622068 
L 65.564592 140.546334 
L 66.371091 161.622068 
L 67.17759 140.616484 
L 67.984088 161.622068 
L 68.790587 140.385102 
L 69.597086 161.622068 
L 70.403584 139.461069 
L 71.210083 161.622068 
L 72.016582 139.37438 
L 72.823081 161.622068 
L 73.629579 137.498995 
L 74.436078 161.622068 
L 75.242577 137.733678 
L 76.049075 161.622068 
L 76.855574 137.126779 
L 77.662073 161.622068 
L 78.468572 136.447499 
L 79.27507 161.622068 
L 80.081569 135.923116 
L 80.888068 161.622068 
L 81.694567 134.703032 
L 82.501065 161.622068 
L 83.307564 134.141734 
L 84.114063 161.622068 
L 84.920561 132.823617 
L 85.72706 161.622068 
L 86.533559 132.331714 
L 87.340058 161.622068 
L 88.146556 131.178704 
L 88.953055 161.622068 
L 89.759554 130.699611 
L 90.566052 161.622068 
L 91.372551 129.420928 
L 92.17905 161.622068 
L 92.985549 127.992376 
L 93.792047 161.622068 
L 94.598546 126.851867 
L 95.405045 161.622068 
L 96.211544 125.485185 
L 97.018042 161.622068 
L 97.824541 124.183431 
L 98.63104 161.622068 
L 99.437538 123.281838 
L 100.244037 161.622068 
L 101.050536 121.670822 
L 101.857035 161.622068 
L 102.663533 121.140638 
L 103.470032 161.622068 
L 104.276531 119.168563 
L 105.083029 161.622068 
L 105.889528 118.116827 
L 106.696027 161.622068 
L 107.502526 117.096131 
L 108.309024 161.622068 
L 109.115523 115.561668 
L 109.922022 161.622068 
L 110.728521 114.495456 
L 111.535019 161.622068 
L 112.341518 112.757988 
L 113.148017 161.622068 
L 113.954515 112.243891 
L 114.761014 161.622068 
L 115.567513 110.813604 
L 116.374012 161.622068 
L 117.18051 109.571741 
L 117.987009 161.622068 
L 118.793508 108.827029 
L 119.600006 161.622068 
L 120.406505 108.15304 
L 121.213004 161.622068 
L 122.019503 107.61082 
L 122.826001 161.622068 
L 123.6325 106.168779 
L 124.438999 161.622068 
L 125.245498 105.868039 
L 126.051996 161.622068 
L 126.858495 105.198193 
L 127.664994 161.622068 
L 128.471492 104.822485 
L 129.277991 161.622068 
L 130.08449 104.00768 
L 130.890989 161.622068 
L 131.697487 103.932864 
L 132.503986 161.622068 
L 133.310485 103.530729 
L 134.116983 161.622068 
L 134.923482 104.082359 
L 135.729981 161.622068 
L 136.53648 104.163381 
L 137.342978 161.622068 
L 138.149477 104.096317 
L 138.955976 161.622068 
L 139.762475 104.292497 
L 140.568973 161.622068 
L 141.375472 105.193509 
L 142.181971 161.622068 
L 142.988469 105.213036 
L 143.794968 161.622068 
L 144.601467 105.037203 
L 145.407966 161.622068 
L 146.214464 105.705823 
L 147.020963 161.622068 
L 147.827462 105.355608 
L 148.63396 161.622068 
L 149.440459 105.588535 
L 150.246958 161.622068 
L 151.053457 105.408212 
L 151.859955 161.622068 
L 152.666454 105.790881 
L 153.472953 161.622068 
L 154.279451 105.819945 
L 155.08595 161.622068 
L 155.892449 105.501597 
L 156.698948 161.622068 
L 157.505446 106.614724 
L 158.311945 161.622068 
L 159.118444 106.145637 
L 159.924943 161.622068 
L 160.731441 105.72955 
L 161.53794 161.622068 
L 162.344439 105.665591 
L 163.150937 161.622068 
L 163.957436 105.914112 
L 164.763935 161.622068 
L 165.570434 106.508482 
L 166.376932 161.622068 
L 167.183431 105.73491 
L 167.98993 161.622068 
L 168.796428 105.518827 
L 169.602927 161.622068 
L 170.409426 105.758596 
L 171.215925 161.622068 
L 172.022423 104.897792 
L 172.828922 161.622068 
L 173.635421 104.786159 
L 174.44192 161.622068 
L 175.248418 105.627581 
L 176.054917 161.622068 
L 176.861416 105.670817 
L 177.667914 161.622068 
L 178.474413 106.122718 
L 179.280912 161.622068 
L 180.087411 106.390198 
L 180.893909 161.622068 
L 181.700408 106.853006 
L 182.506907 161.622068 
L 183.313405 108.441571 
L 184.119904 161.622068 
L 184.926403 109.194286 
L 185.732902 161.622068 
L 186.5394 109.414823 
L 187.345899 161.622068 
L 188.152398 109.152669 
L 188.958897 161.622068 
L 189.765395 109.29397 
L 190.571894 161.622068 
L 191.378393 110.831714 
L 192.184891 161.622068 
L 192.99139 111.95538 
L 193.797889 161.622068 
L 194.604388 111.065532 
L 195.410886 161.622068 
L 196.217385 112.519385 
L 197.023884 161.622068 
L 197.830382 112.208414 
L 198.636881 161.622068 
L 199.44338 113.750174 
L 200.249879 161.622068 
L 201.056377 113.737158 
L 201.862876 161.622068 
L 202.669375 113.664115 
L 203.475874 161.622068 
L 204.282372 115.591781 
L 205.088871 161.622068 
L 205.89537 116.181595 
L 206.701868 161.622068 
L 207.508367 116.5778 
L 208.314866 161.622068 
L 209.121365 117.139509 
L 209.927863 161.622068 
L 210.734362 117.432957 
L 211.540861 161.622068 
L 212.347359 118.139912 
L 213.153858 161.622068 
L 213.960357 117.424873 
L 214.766856 161.622068 
L 215.573354 118.163338 
L 216.379853 161.622068 
L 217.186352 119.524629 
L 217.992851 161.622068 
L 218.799349 120.258307 
L 219.605848 161.622068 
L 220.412347 120.309734 
L 221.218845 161.622068 
L 222.025344 121.162437 
L 222.831843 161.622068 
L 223.638342 122.868435 
L 224.44484 161.622068 
L 225.251339 123.5624 
L 226.057838 161.622068 
L 226.864336 124.09941 
L 227.670835 161.622068 
L 228.477334 124.406661 
L 229.283833 161.622068 
L 230.090331 126.013263 
L 230.89683 161.622068 
L 231.703329 125.672961 
L 232.509828 161.622068 
L 233.316326 125.311497 
L 234.122825 161.622068 
L 234.929324 125.596472 
L 235.735822 161.622068 
L 236.542321 126.608279 
L 237.34882 161.622068 
L 238.155319 126.388505 
L 238.961817 161.622068 
L 239.768316 126.621438 
L 240.574815 161.622068 
L 241.381313 127.50572 
L 242.187812 161.622068 
L 242.994311 127.271596 
L 243.80081 161.622068 
L 243.80081 161.622068 
" clip-path="url(#p6a63111344)" style="fill: none; stroke: #e3a62f; stroke-width: 1.5; stroke-linecap: square"/>
   </g>
   <g id="line2d_19">
    <path d="M 42.982628 145.271518 
L 43.789127 145.417204 
L 45.402124 145.396193 
L 46.208623 145.848081 
L 47.015121 146.073061 
L 47.82162 146.040666 
L 48.628119 146.509403 
L 49.434618 146.117493 
L 50.241116 146.694644 
L 51.854114 146.684782 
L 52.660613 147.02572 
L 53.467111 147.870534 
L 54.27361 147.191536 
L 55.080109 147.564696 
L 55.886607 146.966413 
L 56.693106 148.042963 
L 57.499605 148.081304 
L 58.306104 148.623965 
L 59.112602 148.649418 
L 59.919101 148.298253 
L 60.7256 148.764622 
L 61.532098 148.561928 
L 62.338597 148.858362 
L 63.145096 149.533466 
L 63.951595 149.530264 
L 64.758093 149.225646 
L 66.371091 149.877728 
L 67.984088 149.943439 
L 68.790587 150.454029 
L 70.403584 150.112192 
L 71.210083 150.842311 
L 72.016582 151.327873 
L 72.823081 151.087518 
L 73.629579 150.459105 
L 74.436078 151.558428 
L 76.049075 151.944157 
L 76.855574 151.648247 
L 77.662073 151.564466 
L 78.468572 152.025821 
L 79.27507 152.154063 
L 80.081569 152.097573 
L 80.888068 152.37409 
L 81.694567 152.185617 
L 82.501065 152.792373 
L 83.307564 152.394976 
L 84.114063 153.714047 
L 84.920561 152.253831 
L 85.72706 152.678153 
L 86.533559 153.439706 
L 87.340058 153.559337 
L 88.146556 153.342018 
L 88.953055 153.261321 
L 90.566052 153.564577 
L 91.372551 153.879379 
L 94.598546 153.327762 
L 95.405045 153.765692 
L 96.211544 153.757812 
L 97.018042 153.865599 
L 97.824541 153.301057 
L 98.63104 153.483705 
L 99.437538 153.135933 
L 100.244037 153.90152 
L 101.050536 153.453817 
L 101.857035 153.175357 
L 103.470032 154.502513 
L 104.276531 152.652721 
L 105.083029 152.958929 
L 105.889528 153.12954 
L 106.696027 153.772824 
L 107.502526 153.272625 
L 108.309024 152.17368 
L 109.115523 153.002048 
L 109.922022 151.517492 
L 110.728521 153.28236 
L 111.535019 150.710219 
L 112.341518 150.471072 
L 113.148017 151.507345 
L 113.954515 152.884584 
L 114.761014 149.742265 
L 115.567513 150.499067 
L 116.374012 150.794697 
L 117.18051 149.20539 
L 117.987009 151.018895 
L 118.793508 146.436391 
L 119.600006 148.316763 
L 120.406505 149.884739 
L 121.213004 150.431896 
L 122.019503 148.053596 
L 122.826001 146.920012 
L 123.6325 147.195057 
L 124.438999 143.665169 
L 125.245498 143.340285 
L 126.051996 146.321637 
L 126.858495 143.844579 
L 127.664994 145.008067 
L 128.471492 142.608959 
L 129.277991 142.029211 
L 130.08449 143.423198 
L 130.890989 139.632996 
L 131.697487 137.598551 
L 132.503986 136.991128 
L 133.310485 136.84893 
L 134.116983 138.182721 
L 135.729981 134.661421 
L 136.53648 131.954889 
L 137.342978 133.554277 
L 138.149477 132.508783 
L 138.955976 130.226009 
L 139.762475 125.645854 
L 140.568973 126.659875 
L 141.375472 130.807269 
L 142.181971 124.451431 
L 142.988469 122.692923 
L 143.794968 127.403938 
L 144.601467 125.849939 
L 145.407966 118.999928 
L 146.214464 123.611223 
L 147.020963 124.716253 
L 147.827462 120.685876 
L 148.63396 123.323075 
L 149.440459 120.588308 
L 150.246958 115.022824 
L 151.053457 117.591 
L 151.859955 116.538686 
L 152.666454 119.458063 
L 153.472953 112.309546 
L 155.08595 117.520843 
L 155.892449 115.487841 
L 156.698948 106.15791 
L 157.505446 111.336072 
L 158.311945 113.227382 
L 159.118444 114.684396 
L 159.924943 112.742774 
L 160.731441 103.666962 
L 161.53794 110.822032 
L 162.344439 105.617243 
L 163.150937 107.043705 
L 163.957436 105.85188 
L 164.763935 106.890279 
L 165.570434 105.940204 
L 166.376932 104.01726 
L 167.183431 103.218189 
L 167.98993 105.682627 
L 168.796428 102.55503 
L 169.602927 110.575447 
L 170.409426 107.248062 
L 171.215925 109.229142 
L 172.022423 98.596126 
L 172.828922 97.946548 
L 173.635421 102.836103 
L 174.44192 88.11737 
L 176.054917 96.763891 
L 176.861416 96.152171 
L 177.667914 105.304668 
L 178.474413 101.532399 
L 179.280912 89.766154 
L 180.087411 87.712265 
L 180.893909 84.48059 
L 181.700408 87.946229 
L 182.506907 94.560632 
L 183.313405 98.222405 
L 184.119904 88.891314 
L 184.926403 108.91416 
L 185.732902 108.678648 
L 186.5394 100.267886 
L 187.345899 98.258902 
L 188.152398 95.874551 
L 188.958897 97.793448 
L 189.765395 93.644611 
L 190.571894 101.255134 
L 191.378393 92.130105 
L 192.99139 93.537261 
L 193.797889 95.97661 
L 194.604388 97.419103 
L 195.410886 98.158833 
L 196.217385 101.552394 
L 197.023884 93.41216 
L 197.830382 103.463553 
L 198.636881 96.988277 
L 199.44338 98.402837 
L 200.249879 94.212042 
L 201.056377 99.117251 
L 201.862876 95.222401 
L 202.669375 98.695021 
L 203.475874 81.543328 
L 204.282372 88.635257 
L 205.088871 98.154131 
L 205.89537 102.596542 
L 206.701868 99.77656 
L 207.508367 93.738819 
L 208.314866 95.079236 
L 209.121365 104.1448 
L 209.927863 102.104007 
L 210.734362 98.732862 
L 211.540861 97.03365 
L 212.347359 104.711078 
L 213.153858 99.769778 
L 213.960357 98.983918 
L 214.766856 104.249702 
L 215.573354 93.45967 
L 216.379853 85.253799 
L 217.186352 88.080411 
L 217.992851 88.016197 
L 218.799349 102.596848 
L 219.605848 99.956003 
L 220.412347 104.93348 
L 221.218845 100.153939 
L 222.025344 99.619035 
L 222.831843 104.461659 
L 223.638342 94.618387 
L 224.44484 101.437024 
L 225.251339 102.287561 
L 226.057838 96.139879 
L 227.670835 96.739411 
L 228.477334 97.635232 
L 229.283833 89.526012 
L 230.090331 94.676792 
L 230.89683 104.37476 
L 231.703329 106.22321 
L 232.509828 93.393275 
L 233.316326 98.273043 
L 234.929324 106.09154 
L 235.735822 95.401129 
L 236.542321 107.44086 
L 237.34882 100.575742 
L 238.155319 104.360457 
L 238.961817 99.950748 
L 239.768316 101.28345 
L 240.574815 99.584644 
L 241.381313 102.38999 
L 242.994311 97.132439 
L 243.80081 103.620313 
L 243.80081 103.620313 
" clip-path="url(#p6a63111344)" style="fill: none; stroke: #b23a48; stroke-width: 1.5; stroke-linecap: square"/>
   </g>
   <g id="line2d_20">
    <path d="M 42.982628 129.917074 
L 43.789127 161.622068 
L 44.595625 93.56879 
L 45.402124 161.622068 
L 46.208623 72.28505 
L 47.015121 161.622068 
L 47.82162 68.078614 
L 48.628119 161.622068 
L 49.434618 67.336934 
L 50.241116 161.622068 
L 51.047615 69.106034 
L 51.854114 161.622068 
L 52.660613 68.5508 
L 53.467111 161.622068 
L 54.27361 67.569341 
L 55.080109 161.622068 
L 55.886607 66.778142 
L 56.693106 161.622068 
L 57.499605 69.452832 
L 58.306104 161.622068 
L 59.112602 70.039479 
L 59.919101 161.622068 
L 60.7256 69.84536 
L 61.532098 161.622068 
L 62.338597 69.890535 
L 63.145096 161.622068 
L 63.951595 70.296096 
L 64.758093 161.622068 
L 65.564592 70.029238 
L 66.371091 161.622068 
L 67.17759 71.40205 
L 67.984088 161.622068 
L 68.790587 72.035387 
L 69.597086 161.622068 
L 70.403584 71.13996 
L 71.210083 161.622068 
L 72.016582 72.259633 
L 72.823081 161.622068 
L 73.629579 69.662982 
L 74.436078 161.622068 
L 75.242577 71.756898 
L 76.049075 161.622068 
L 76.855574 71.670741 
L 77.662073 161.622068 
L 78.468572 72.183983 
L 79.27507 161.622068 
L 80.081569 72.725251 
L 80.888068 161.622068 
L 81.694567 71.628365 
L 82.501065 161.622068 
L 83.307564 73.133254 
L 84.114063 161.622068 
L 84.920561 72.081316 
L 85.72706 161.622068 
L 86.533559 73.31137 
L 87.340058 161.622068 
L 88.146556 73.155131 
L 88.953055 161.622068 
L 89.759554 73.713744 
L 90.566052 161.622068 
L 91.372551 73.805017 
L 92.17905 161.622068 
L 92.985549 73.783179 
L 93.792047 161.622068 
L 94.598546 73.824678 
L 95.405045 161.622068 
L 96.211544 72.915123 
L 97.018042 161.622068 
L 97.824541 72.851844 
L 98.63104 161.622068 
L 99.437538 74.05446 
L 100.244037 161.622068 
L 101.050536 72.890265 
L 101.857035 161.622068 
L 102.663533 75.231657 
L 103.470032 161.622068 
L 104.276531 73.996289 
L 105.083029 161.622068 
L 105.889528 74.313247 
L 106.696027 161.622068 
L 107.502526 75.358774 
L 108.309024 161.622068 
L 109.115523 75.008033 
L 109.922022 161.622068 
L 110.728521 75.444339 
L 111.535019 161.622068 
L 112.341518 74.656652 
L 113.148017 161.622068 
L 113.954515 76.412863 
L 114.761014 161.622068 
L 115.567513 75.242779 
L 116.374012 161.622068 
L 117.18051 75.617973 
L 117.987009 161.622068 
L 118.793508 76.250385 
L 119.600006 161.622068 
L 120.406505 76.233973 
L 121.213004 161.622068 
L 122.019503 76.864523 
L 122.826001 161.622068 
L 123.6325 74.692253 
L 124.438999 161.622068 
L 125.245498 75.776726 
L 126.051996 161.622068 
L 126.858495 75.569432 
L 127.664994 161.622068 
L 128.471492 76.372471 
L 129.277991 161.622068 
L 130.08449 75.626061 
L 130.890989 161.622068 
L 131.697487 75.206857 
L 132.503986 161.622068 
L 133.310485 75.281685 
L 134.116983 161.622068 
L 134.923482 76.66393 
L 135.729981 161.622068 
L 136.53648 76.344665 
L 137.342978 161.622068 
L 138.149477 76.008919 
L 138.955976 161.622068 
L 139.762475 76.136052 
L 140.568973 161.622068 
L 141.375472 77.066093 
L 142.181971 161.622068 
L 142.988469 77.21286 
L 143.794968 161.622068 
L 144.601467 76.548499 
L 145.407966 161.622068 
L 146.214464 76.932044 
L 147.020963 161.622068 
L 147.827462 76.861491 
L 148.63396 161.622068 
L 149.440459 76.679727 
L 150.246958 161.622068 
L 151.053457 76.090665 
L 151.859955 161.622068 
L 152.666454 76.547068 
L 153.472953 161.622068 
L 154.279451 76.509752 
L 155.08595 161.622068 
L 155.892449 76.672204 
L 156.698948 161.622068 
L 157.505446 76.763099 
L 158.311945 161.622068 
L 159.118444 76.087212 
L 159.924943 161.622068 
L 160.731441 75.600735 
L 161.53794 161.622068 
L 162.344439 77.086296 
L 163.150937 161.622068 
L 163.957436 75.602507 
L 164.763935 161.622068 
L 165.570434 76.510249 
L 166.376932 161.622068 
L 167.183431 75.665114 
L 167.98993 161.622068 
L 168.796428 75.338972 
L 169.602927 161.622068 
L 170.409426 77.494333 
L 171.215925 161.622068 
L 172.022423 75.503454 
L 172.828922 161.622068 
L 173.635421 74.397863 
L 174.44192 161.622068 
L 175.248418 75.093088 
L 176.054917 161.622068 
L 176.861416 74.804585 
L 177.667914 161.622068 
L 178.474413 74.215412 
L 179.280912 161.622068 
L 180.087411 74.405614 
L 180.893909 161.622068 
L 181.700408 73.404621 
L 182.506907 161.622068 
L 183.313405 75.156925 
L 184.119904 161.622068 
L 184.926403 75.899223 
L 185.732902 161.622068 
L 186.5394 75.428689 
L 187.345899 161.622068 
L 188.152398 73.20594 
L 188.958897 161.622068 
L 189.765395 71.620976 
L 190.571894 161.622068 
L 191.378393 73.816553 
L 192.184891 161.622068 
L 192.99139 74.171244 
L 193.797889 161.622068 
L 194.604388 71.847572 
L 195.410886 161.622068 
L 196.217385 73.177514 
L 197.023884 161.622068 
L 197.830382 70.330026 
L 198.636881 161.622068 
L 199.44338 71.725104 
L 200.249879 161.622068 
L 201.056377 70.617161 
L 201.862876 161.622068 
L 202.669375 68.517665 
L 203.475874 161.622068 
L 204.282372 69.711629 
L 205.088871 161.622068 
L 205.89537 68.759885 
L 206.701868 161.622068 
L 207.508367 67.433876 
L 208.314866 161.622068 
L 209.121365 67.132397 
L 209.927863 161.622068 
L 210.734362 66.586938 
L 211.540861 161.622068 
L 212.347359 66.187517 
L 213.153858 161.622068 
L 213.960357 63.075208 
L 214.766856 161.622068 
L 215.573354 61.038238 
L 216.379853 161.622068 
L 217.186352 63.64304 
L 217.992851 161.622068 
L 218.799349 62.596603 
L 219.605848 161.622068 
L 220.412347 60.025662 
L 221.218845 161.622068 
L 222.025344 59.387542 
L 222.831843 161.622068 
L 223.638342 58.034337 
L 224.44484 161.622068 
L 225.251339 58.48433 
L 226.057838 161.622068 
L 226.864336 55.53654 
L 227.670835 161.622068 
L 228.477334 53.09581 
L 229.283833 161.622068 
L 230.090331 56.008025 
L 230.89683 161.622068 
L 231.703329 53.54229 
L 232.509828 161.622068 
L 233.316326 51.983432 
L 234.122825 161.622068 
L 234.929324 55.898017 
L 235.735822 161.622068 
L 236.542321 60.355281 
L 237.34882 161.622068 
L 238.155319 63.979724 
L 238.961817 161.622068 
L 239.768316 70.023028 
L 240.574815 161.622068 
L 241.381313 77.136083 
L 242.187812 161.622068 
L 242.994311 80.708444 
L 243.80081 161.622068 
L 243.80081 161.622068 
" clip-path="url(#p6a63111344)" style="fill: none; stroke: #6c9a8b; stroke-width: 1.5; stroke-linecap: square"/>
   </g>
   <g id="patch_3">
    <path d="M 32.941719 167.104 
L 32.941719 46.5015 
" style="fill: none; stroke: #000000; stroke-width: 0.7; stroke-linejoin: miter; stroke-linecap: square"/>
   </g>
   <g id="patch_4">
    <path d="M 32.941719 167.104 
L 253.841719 167.104 
" style="fill: none; stroke: #000000; stroke-width: 0.7; stroke-linejoin: miter; stroke-linecap: square"/>
   </g>
   <g id="text_14">
    <text style="font: 700 8px 'Arial', 'Helvetica', 'DejaVu Sans', sans-serif; text-anchor: start" x="10.851719" y="42.57955" transform="rotate(-0 10.851719 42.57955)">a</text>
   </g>
   <g id="text_15">
    <text style="font: 8px 'Arial', 'Helvetica', 'DejaVu Sans', sans-serif; text-anchor: middle" x="143.391719" y="40.5015" transform="rotate(-0 143.391719 40.5015)">Actor / policy loss</text>
   </g>
   <g id="legend_1">
    <g id="line2d_21">
     <path d="M 38.341719 93.514156 
L 44.341719 93.514156 
L 50.341719 93.514156 
" style="fill: none; stroke: #335c81; stroke-width: 1.5; stroke-linecap: square"/>
    </g>
    <g id="text_16">
     <text style="font: 6px 'Arial', 'Helvetica', 'DejaVu Sans', sans-serif; text-anchor: start" x="55.141719" y="95.614156" transform="rotate(-0 55.141719 95.614156)">bc</text>
    </g>
    <g id="line2d_22">
     <path d="M 38.341719 102.001344 
L 44.341719 102.001344 
L 50.341719 102.001344 
" style="fill: none; stroke: #e3a62f; stroke-width: 1.5; stroke-linecap: square"/>
    </g>
    <g id="text_17">
     <text style="font: 6px 'Arial', 'Helvetica', 'DejaVu Sans', sans-serif; text-anchor: start" x="55.141719" y="104.101344" transform="rotate(-0 55.141719 104.101344)">cql</text>
    </g>
    <g id="line2d_23">
     <path d="M 38.341719 110.488531 
L 44.341719 110.488531 
L 50.341719 110.488531 
" style="fill: none; stroke: #b23a48; stroke-width: 1.5; stroke-linecap: square"/>
    </g>
    <g id="text_18">
     <text style="font: 6px 'Arial', 'Helvetica', 'DejaVu Sans', sans-serif; text-anchor: start" x="55.141719" y="112.588531" transform="rotate(-0 55.141719 112.588531)">iql</text>
    </g>
    <g id="line2d_24">
     <path d="M 38.341719 118.993531 
L 44.341719 118.993531 
L 50.341719 118.993531 
" style="fill: none; stroke: #6c9a8b; stroke-width: 1.5; stroke-linecap: square"/>
    </g>
    <g id="text_19">
     <text style="font: 6px 'Arial', 'Helvetica', 'DejaVu Sans', sans-serif; text-anchor: start" x="55.141719" y="121.093531" transform="rotate(-0 55.141719 121.093531)">td3_bc</text>
    </g>
   </g>
  </g>
  <g id="axes_2">
   <g id="patch_5">
    <path d="M 289.201719 167.104 
L 510.101719 167.104 
L 510.101719 46.5015 
L 289.201719 46.5015 
z
" style="fill: #ffffff"/>
   </g>
   <g id="matplotlib.axis_3">
    <g id="xtick_7">
     <g id="line2d_25">
      <g>
       <use xlink:href="#m01dedd5f79" x="299.242628" y="167.104" style="stroke: #000000; stroke-width: 0.8"/>
      </g>
     </g>
     <g id="text_20">
      <text style="font: 6px 'Arial', 'Helvetica', 'DejaVu Sans', sans-serif; text-anchor: middle" x="299.242628" y="178.398687" transform="rotate(-0 299.242628 178.398687)">0</text>
     </g>
    </g>
    <g id="xtick_8">
     <g id="line2d_26">
      <g>
       <use xlink:href="#m01dedd5f79" x="339.567564" y="167.104" style="stroke: #000000; stroke-width: 0.8"/>
      </g>
     </g>
     <g id="text_21">
      <text style="font: 6px 'Arial', 'Helvetica', 'DejaVu Sans', sans-serif; text-anchor: middle" x="339.567564" y="178.398687" transform="rotate(-0 339.567564 178.398687)">50</text>
     </g>
    </g>
    <g id="xtick_9">
     <g id="line2d_27">
      <g>
       <use xlink:href="#m01dedd5f79" x="379.8925" y="167.104" style="stroke: #000000; stroke-width: 0.8"/>
      </g>
     </g>
     <g id="text_22">
      <text style="font: 6px 'Arial', 'Helvetica', 'DejaVu Sans', sans-serif; text-anchor: middle" x="379.8925" y="178.398687" transform="rotate(-0 379.8925 178.398687)">100</text>
     </g>
    </g>
    <g id="xtick_10">
     <g id="line2d_28">
      <g>
       <use xlink:href="#m01dedd5f79" x="420.217436" y="167.104" style="stroke: #000000; stroke-width: 0.8"/>
      </g>
     </g>
     <g id="text_23">
      <text style="font: 6px 'Arial', 'Helvetica', 'DejaVu Sans', sans-serif; text-anchor: middle" x="420.217436" y="178.398687" transform="rotate(-0 420.217436 178.398687)">150</text>
     </g>
    </g>
    <g id="xtick_11">
     <g id="line2d_29">
      <g>
       <use xlink:href="#m01dedd5f79" x="460.542372" y="167.104" style="stroke: #000000; stroke-width: 0.8"/>
      </g>
     </g>
     <g id="text_24">
      <text style="font: 6px 'Arial', 'Helvetica', 'DejaVu Sans', sans-serif; text-anchor: middle" x="460.542372" y="178.398687" transform="rotate(-0 460.542372 178.398687)">200</text>
     </g>
    </g>
    <g id="xtick_12">
     <g id="line2d_30">
      <g>
       <use xlink:href="#m01dedd5f79" x="500.867308" y="167.104" style="stroke: #000000; stroke-width: 0.8"/>
      </g>
     </g>
     <g id="text_25">
      <text style="font: 6px 'Arial', 'Helvetica', 'DejaVu Sans', sans-serif; text-anchor: middle" x="500.867308" y="178.398687" transform="rotate(-0 500.867308 178.398687)">250</text>
     </g>
    </g>
    <g id="text_26">
     <text style="font: 7px 'Arial', 'Helvetica', 'DejaVu Sans', sans-serif; text-anchor: middle" x="399.651719" y="188.686969" transform="rotate(-0 399.651719 188.686969)">Gradient step</text>
    </g>
   </g>
   <g id="matplotlib.axis_4">
    <g id="ytick_6">
     <g id="line2d_31">
      <path d="M 289.201719 161.622068 
L 510.101719 161.622068 
" clip-path="url(#p67dc6648a4)" style="fill: none; stroke: #d9d9d9; stroke-width: 0.5; stroke-linecap: square"/>
     </g>
     <g id="line2d_32">
      <g>
       <use xlink:href="#m00cf0a01e0" x="289.201719" y="161.622068" style="stroke: #000000; stroke-width: 0.8"/>
      </g>
     </g>
     <g id="text_27">
      <text style="font: 6px 'Arial', 'Helvetica', 'DejaVu Sans', sans-serif; text-anchor: end" x="282.201719" y="163.769412" transform="rotate(-0 282.201719 163.769412)">0</text>
     </g>
    </g>
    <g id="ytick_7">
     <g id="line2d_33">
      <path d="M 289.201719 144.683196 
L 510.101719 144.683196 
" clip-path="url(#p67dc6648a4)" style="fill: none; stroke: #d9d9d9; stroke-width: 0.5; stroke-linecap: square"/>
     </g>
     <g id="line2d_34">
      <g>
       <use xlink:href="#m00cf0a01e0" x="289.201719" y="144.683196" style="stroke: #000000; stroke-width: 0.8"/>
      </g>
     </g>
     <g id="text_28">
      <text style="font: 6px 'Arial', 'Helvetica', 'DejaVu Sans', sans-serif; text-anchor: end" x="282.201719" y="146.83054" transform="rotate(-0 282.201719 146.83054)">100</text>
     </g>
    </g>
    <g id="ytick_8">
     <g id="line2d_35">
      <path d="M 289.201719 127.744324 
L 510.101719 127.744324 
" clip-path="url(#p67dc6648a4)" style="fill: none; stroke: #d9d9d9; stroke-width: 0.5; stroke-linecap: square"/>
     </g>
     <g id="line2d_36">
      <g>
       <use xlink:href="#m00cf0a01e0" x="289.201719" y="127.744324" style="stroke: #000000; stroke-width: 0.8"/>
      </g>
     </g>
     <g id="text_29">
      <text style="font: 6px 'Arial', 'Helvetica', 'DejaVu Sans', sans-serif; text-anchor: end" x="282.201719" y="129.891667" transform="rotate(-0 282.201719 129.891667)">200</text>
     </g>
    </g>
    <g id="ytick_9">
     <g id="line2d_37">
      <path d="M 289.201719 110.805451 
L 510.101719 110.805451 
" clip-path="url(#p67dc6648a4)" style="fill: none; stroke: #d9d9d9; stroke-width: 0.5; stroke-linecap: square"/>
     </g>
     <g id="line2d_38">
      <g>
       <use xlink:href="#m00cf0a01e0" x="289.201719" y="110.805451" style="stroke: #000000; stroke-width: 0.8"/>
      </g>
     </g>
     <g id="text_30">
      <text style="font: 6px 'Arial', 'Helvetica', 'DejaVu Sans', sans-serif; text-anchor: end" x="282.201719" y="112.952795" transform="rotate(-0 282.201719 112.952795)">300</text>
     </g>
    </g>
    <g id="ytick_10">
     <g id="line2d_39">
      <path d="M 289.201719 93.866579 
L 510.101719 93.866579 
" clip-path="url(#p67dc6648a4)" style="fill: none; stroke: #d9d9d9; stroke-width: 0.5; stroke-linecap: square"/>
     </g>
     <g id="line2d_40">
      <g>
       <use xlink:href="#m00cf0a01e0" x="289.201719" y="93.866579" style="stroke: #000000; stroke-width: 0.8"/>
      </g>
     </g>
     <g id="text_31">
      <text style="font: 6px 'Arial', 'Helvetica', 'DejaVu Sans', sans-serif; text-anchor: end" x="282.201719" y="96.013923" transform="rotate(-0 282.201719 96.013923)">400</text>
     </g>
    </g>
    <g id="ytick_11">
     <g id="line2d_41">
      <path d="M 289.201719 76.927706 
L 510.101719 76.927706 
" clip-path="url(#p67dc6648a4)" style="fill: none; stroke: #d9d9d9; stroke-width: 0.5; stroke-linecap: square"/>
     </g>
     <g id="line2d_42">
      <g>
       <use xlink:href="#m00cf0a01e0" x="289.201719" y="76.927706" style="stroke: #000000; stroke-width: 0.8"/>
      </g>
     </g>
     <g id="text_32">
      <text style="font: 6px 'Arial', 'Helvetica', 'DejaVu Sans', sans-serif; text-anchor: end" x="282.201719" y="79.07505" transform="rotate(-0 282.201719 79.07505)">500</text>
     </g>
    </g>
    <g id="ytick_12">
     <g id="line2d_43">
      <path d="M 289.201719 59.988834 
L 510.101719 59.988834 
" clip-path="url(#p67dc6648a4)" style="fill: none; stroke: #d9d9d9; stroke-width: 0.5; stroke-linecap: square"/>
     </g>
     <g id="line2d_44">
      <g>
       <use xlink:href="#m00cf0a01e0" x="289.201719" y="59.988834" style="stroke: #000000; stroke-width: 0.8"/>
      </g>
     </g>
     <g id="text_33">
      <text style="font: 6px 'Arial', 'Helvetica', 'DejaVu Sans', sans-serif; text-anchor: end" x="282.201719" y="62.136178" transform="rotate(-0 282.201719 62.136178)">600</text>
     </g>
    </g>
    <g id="text_34">
     <text style="font: 7px 'Arial', 'Helvetica', 'DejaVu Sans', sans-serif; text-anchor: middle" x="266.800781" y="106.80275" transform="rotate(-90 266.800781 106.80275)">Loss</text>
    </g>
   </g>
   <g id="line2d_45">
    <path d="M 299.242628 161.622068 
L 500.06081 161.622068 
L 500.06081 161.622068 
" clip-path="url(#p67dc6648a4)" style="fill: none; stroke: #335c81; stroke-width: 1.5; stroke-linecap: square"/>
   </g>
   <g id="line2d_46">
    <path d="M 299.242628 94.260675 
L 300.049127 81.61179 
L 300.855625 86.258479 
L 301.662124 83.248161 
L 302.468623 100.447854 
L 303.275121 104.964556 
L 304.08162 85.299604 
L 304.888119 93.305231 
L 305.694618 93.112325 
L 306.501116 100.206239 
L 307.307615 92.07185 
L 308.114114 107.019714 
L 308.920613 108.684967 
L 309.727111 98.993568 
L 310.53361 78.661739 
L 311.340109 73.652842 
L 312.146607 91.178217 
L 312.953106 90.931004 
L 313.759605 84.896581 
L 314.566104 95.749926 
L 315.372602 87.952604 
L 316.179101 86.263536 
L 316.9856 91.784868 
L 317.792098 88.207698 
L 318.598597 110.537531 
L 319.405096 83.388614 
L 320.211595 112.538727 
L 321.018093 119.780435 
L 321.824592 86.802693 
L 322.631091 85.714584 
L 323.43759 107.518396 
L 324.244088 88.145498 
L 325.050587 100.526223 
L 325.857086 108.377584 
L 326.663584 91.751734 
L 328.276582 70.280888 
L 329.083081 95.809292 
L 329.889579 101.075441 
L 330.696078 97.163761 
L 331.502577 97.642152 
L 332.309075 108.523416 
L 333.115574 115.965209 
L 333.922073 92.940198 
L 334.728572 76.039038 
L 335.53507 96.988405 
L 336.341569 90.977766 
L 337.148068 93.680871 
L 337.954567 117.037827 
L 338.761065 111.276214 
L 339.567564 83.698979 
L 340.374063 94.955425 
L 341.180561 88.799989 
L 341.98706 123.416915 
L 342.793559 79.999064 
L 343.600058 102.601114 
L 344.406556 88.714859 
L 345.213055 113.556459 
L 346.019554 85.393503 
L 346.826052 89.07747 
L 348.43905 116.167493 
L 349.245549 82.547996 
L 350.052047 105.835554 
L 350.858546 123.977216 
L 351.665045 115.64189 
L 352.471544 114.777316 
L 353.278042 95.436657 
L 354.084541 114.70187 
L 354.89104 116.602985 
L 355.697538 97.143962 
L 356.504037 99.057403 
L 357.310536 99.824877 
L 358.117035 85.495086 
L 358.923533 101.939115 
L 360.536531 91.325291 
L 361.343029 114.474398 
L 362.149528 98.67064 
L 362.956027 108.689178 
L 363.762526 104.263265 
L 364.569024 105.767634 
L 365.375523 101.616437 
L 366.182022 109.632892 
L 366.988521 103.113733 
L 367.795019 100.254068 
L 368.601518 98.430917 
L 369.408017 79.36025 
L 370.214515 119.205816 
L 371.021014 94.744351 
L 371.827513 108.442721 
L 372.634012 114.435585 
L 373.44051 104.047231 
L 374.247009 114.158682 
L 375.053508 104.82254 
L 375.860006 110.599219 
L 376.666505 99.580671 
L 377.473004 112.683451 
L 378.279503 88.831305 
L 379.086001 96.585907 
L 379.8925 106.401744 
L 380.698999 93.781001 
L 381.505498 117.075508 
L 382.311996 110.903113 
L 383.118495 109.761477 
L 383.924994 94.652298 
L 384.731492 117.971371 
L 385.537991 102.590927 
L 386.34449 98.027868 
L 387.150989 107.117063 
L 387.957487 110.326004 
L 388.763986 91.142478 
L 389.570485 94.311608 
L 390.376983 109.318286 
L 391.989981 125.911571 
L 394.409477 98.722802 
L 395.215976 115.854817 
L 396.022475 103.185249 
L 396.828973 99.694378 
L 397.635472 102.268477 
L 398.441971 109.331009 
L 399.248469 92.665064 
L 400.054968 116.363839 
L 400.861467 99.431997 
L 401.667966 118.067414 
L 402.474464 92.585599 
L 403.280963 115.377833 
L 404.087462 118.748259 
L 404.89396 76.749054 
L 405.700459 113.160836 
L 406.506958 106.248525 
L 407.313457 97.514018 
L 408.119955 102.827868 
L 408.926454 92.423976 
L 409.732953 102.120931 
L 410.539451 105.799296 
L 411.34595 114.044087 
L 412.152449 111.230955 
L 412.958948 118.900399 
L 413.765446 110.301856 
L 414.571945 92.981822 
L 415.378444 97.640582 
L 416.184943 95.915401 
L 416.991441 97.374733 
L 417.79794 103.553636 
L 418.604439 92.528674 
L 419.410937 102.188739 
L 420.217436 104.049002 
L 421.023935 92.233435 
L 421.830434 106.585778 
L 422.636932 85.561309 
L 423.443431 99.103742 
L 424.24993 94.669133 
L 425.056428 101.393555 
L 425.862927 94.278439 
L 426.669426 97.644931 
L 427.475925 107.955606 
L 428.282423 112.264001 
L 429.088922 109.362745 
L 429.895421 107.558631 
L 430.70192 119.921168 
L 431.508418 105.392506 
L 432.314917 108.737494 
L 433.121416 105.560624 
L 433.927914 115.930822 
L 434.734413 92.517876 
L 435.540912 102.599287 
L 436.347411 108.675539 
L 437.153909 102.43514 
L 437.960408 104.903604 
L 438.766907 108.307774 
L 439.573405 94.782919 
L 440.379904 100.802665 
L 441.186403 93.574232 
L 441.992902 97.226272 
L 442.7994 107.599839 
L 443.605899 105.805259 
L 444.412398 114.037486 
L 445.218897 106.402748 
L 446.025395 104.001666 
L 446.831894 94.497424 
L 447.638393 121.250858 
L 448.444891 105.019271 
L 449.25139 97.544508 
L 450.057889 109.397137 
L 450.864388 83.986917 
L 452.477385 115.46932 
L 453.283884 115.936168 
L 454.090382 105.44549 
L 454.896881 120.385464 
L 455.70338 112.316976 
L 456.509879 116.548667 
L 457.316377 104.386292 
L 458.122876 108.372609 
L 458.929375 103.857676 
L 459.735874 117.68016 
L 460.542372 99.882199 
L 462.15537 113.608941 
L 462.961868 97.822699 
L 463.768367 101.427942 
L 464.574866 95.346335 
L 465.381365 114.747833 
L 466.187863 104.781582 
L 466.994362 112.174795 
L 467.800861 108.623697 
L 468.607359 113.091645 
L 469.413858 121.185872 
L 470.220357 101.777406 
L 471.026856 101.527628 
L 471.833354 119.126036 
L 472.639853 108.31866 
L 473.446352 111.203149 
L 474.252851 116.227873 
L 475.059349 111.171742 
L 475.865848 110.797646 
L 476.672347 110.967119 
L 477.478845 118.67528 
L 478.285344 120.447045 
L 479.091843 102.297951 
L 479.898342 130.009275 
L 480.70484 120.411891 
L 481.511339 89.503448 
L 482.317838 108.852448 
L 483.124336 114.861522 
L 483.930835 112.096381 
L 484.737334 121.66931 
L 485.543833 94.242665 
L 486.350331 124.171354 
L 487.15683 112.519186 
L 487.963329 94.937449 
L 488.769828 109.632688 
L 489.576326 98.914369 
L 490.382825 115.069597 
L 491.189324 110.328911 
L 491.995822 104.012749 
L 492.802321 100.293146 
L 493.60882 99.544695 
L 494.415319 90.483674 
L 495.221817 108.465095 
L 496.028316 120.887685 
L 496.834815 98.203906 
L 497.641313 127.781336 
L 498.447812 101.427431 
L 499.254311 115.688677 
L 500.06081 105.762945 
L 500.06081 105.762945 
" clip-path="url(#p67dc6648a4)" style="fill: none; stroke: #e3a62f; stroke-width: 1.5; stroke-linecap: square"/>
   </g>
   <g id="line2d_47">
    <path d="M 299.242628 94.428952 
L 300.049127 81.743771 
L 300.855625 86.351532 
L 301.662124 83.282263 
L 302.468623 100.444885 
L 303.275121 104.944364 
L 304.08162 85.198122 
L 304.888119 93.165261 
L 305.694618 92.919431 
L 306.501116 99.970185 
L 307.307615 91.814248 
L 308.114114 106.751779 
L 308.920613 108.38862 
L 309.727111 98.594668 
L 310.53361 78.140953 
L 311.340109 73.074668 
L 312.146607 90.595202 
L 312.953106 90.343077 
L 313.759605 84.215991 
L 314.566104 94.984416 
L 315.372602 87.126566 
L 316.179101 85.428654 
L 316.9856 90.920386 
L 317.792098 87.271503 
L 318.598597 109.733745 
L 319.405096 82.355075 
L 320.211595 111.699959 
L 321.018093 118.813009 
L 321.824592 85.527961 
L 322.631091 84.47318 
L 323.43759 106.450276 
L 324.244088 86.802662 
L 325.050587 99.081287 
L 325.857086 107.074644 
L 326.663584 90.14942 
L 327.470083 79.902884 
L 328.276582 68.20576 
L 329.083081 93.994883 
L 329.889579 99.426925 
L 330.696078 95.318047 
L 331.502577 95.616801 
L 332.309075 106.829958 
L 333.115574 114.207926 
L 333.922073 90.643141 
L 334.728572 73.29158 
L 335.53507 94.489172 
L 336.341569 88.304274 
L 337.148068 90.954042 
L 337.954567 114.826374 
L 338.761065 109.120235 
L 339.567564 80.245635 
L 340.374063 91.84086 
L 341.180561 85.534128 
L 341.98706 121.084709 
L 342.793559 76.539269 
L 343.600058 99.612888 
L 344.406556 84.565342 
L 345.213055 110.956946 
L 346.019554 81.052969 
L 346.826052 84.896295 
L 348.43905 112.839175 
L 349.245549 77.449726 
L 350.052047 101.795559 
L 350.858546 120.703176 
L 351.665045 112.279464 
L 352.471544 111.132781 
L 353.278042 90.610164 
L 354.084541 110.504443 
L 354.89104 112.564111 
L 355.697538 92.038144 
L 356.504037 93.820808 
L 357.310536 94.115396 
L 358.117035 79.168893 
L 358.923533 96.705442 
L 360.536531 84.558139 
L 361.343029 109.524649 
L 362.149528 92.240153 
L 362.956027 103.130876 
L 363.762526 98.526818 
L 364.569024 100.024344 
L 365.375523 95.903712 
L 366.182022 104.34232 
L 366.988521 96.142423 
L 367.795019 93.098962 
L 368.601518 92.354298 
L 369.408017 70.419476 
L 370.214515 113.122028 
L 371.021014 86.411119 
L 371.827513 101.889071 
L 372.634012 108.624399 
L 373.44051 97.41088 
L 374.247009 107.991375 
L 375.053508 98.335575 
L 375.860006 104.929054 
L 376.666505 91.102052 
L 377.473004 106.347464 
L 378.279503 80.153639 
L 379.086001 87.544389 
L 379.8925 98.432904 
L 380.698999 83.648019 
L 381.505498 109.784116 
L 382.311996 103.734408 
L 383.118495 102.836203 
L 383.924994 87.064978 
L 384.731492 112.683597 
L 385.537991 94.959726 
L 386.34449 88.9991 
L 387.150989 97.851735 
L 387.957487 101.711877 
L 388.763986 81.295692 
L 389.570485 87.087503 
L 390.376983 100.799524 
L 391.989981 121.265107 
L 394.409477 90.560847 
L 395.215976 108.284455 
L 396.022475 95.087467 
L 396.828973 89.918955 
L 397.635472 93.38488 
L 398.441971 99.018842 
L 399.248469 83.273574 
L 400.054968 107.780957 
L 400.861467 90.489703 
L 401.667966 111.479615 
L 402.474464 81.983001 
L 403.280963 108.075418 
L 404.087462 111.439834 
L 404.89396 64.262355 
L 405.700459 104.060513 
L 406.506958 97.502619 
L 407.313457 86.90451 
L 408.119955 93.33952 
L 408.926454 81.107359 
L 409.732953 92.39828 
L 410.539451 97.177275 
L 411.34595 105.025049 
L 412.152449 103.787547 
L 412.958948 110.336967 
L 413.765446 98.689519 
L 414.571945 81.964435 
L 415.378444 86.557227 
L 416.184943 86.047428 
L 416.991441 86.534415 
L 417.79794 94.487617 
L 418.604439 80.572559 
L 419.410937 88.067486 
L 420.217436 92.889286 
L 421.023935 79.420954 
L 421.830434 94.478253 
L 422.636932 71.841246 
L 423.443431 87.070006 
L 424.24993 83.538202 
L 425.056428 90.23567 
L 425.862927 81.238286 
L 426.669426 82.082037 
L 427.475925 94.434201 
L 428.282423 99.794898 
L 429.088922 97.713395 
L 429.895421 93.394762 
L 430.70192 108.199228 
L 431.508418 91.119318 
L 432.314917 95.768852 
L 433.121416 92.129972 
L 433.927914 101.182601 
L 434.734413 75.563523 
L 436.347411 94.098554 
L 437.153909 85.251114 
L 438.766907 93.999525 
L 439.573405 78.764839 
L 440.379904 81.774682 
L 441.186403 77.451027 
L 441.992902 82.505457 
L 442.7994 90.160463 
L 443.605899 88.941112 
L 444.412398 98.257995 
L 445.218897 87.96957 
L 446.025395 85.249444 
L 446.831894 77.189485 
L 447.638393 104.700849 
L 448.444891 88.207311 
L 449.25139 75.204289 
L 450.057889 90.941813 
L 450.864388 63.419104 
L 451.670886 76.909114 
L 452.477385 94.47991 
L 453.283884 95.003457 
L 454.090382 83.514328 
L 454.896881 98.585703 
L 455.70338 90.486715 
L 456.509879 95.082637 
L 457.316377 84.929781 
L 458.122876 83.17012 
L 458.929375 86.006312 
L 459.735874 97.407052 
L 460.542372 73.734395 
L 462.15537 97.795524 
L 462.961868 80.885095 
L 463.768367 72.736592 
L 464.574866 74.449021 
L 465.381365 86.019386 
L 466.187863 85.468226 
L 466.994362 83.229489 
L 467.800861 77.418921 
L 468.607359 87.71512 
L 469.413858 94.149553 
L 470.220357 70.854256 
L 471.026856 74.641796 
L 471.833354 91.301032 
L 472.639853 72.816611 
L 473.446352 79.246201 
L 474.252851 83.575071 
L 475.059349 78.931409 
L 475.865848 81.028587 
L 476.672347 81.443833 
L 477.478845 90.967468 
L 478.285344 90.778569 
L 479.091843 76.12228 
L 479.898342 98.005892 
L 481.511339 55.032077 
L 483.124336 81.66314 
L 483.930835 74.965346 
L 484.737334 85.554857 
L 485.543833 64.042817 
L 486.350331 87.817797 
L 487.15683 81.271118 
L 487.963329 62.416091 
L 488.769828 69.249702 
L 489.576326 52.195471 
L 490.382825 80.166882 
L 491.189324 75.341109 
L 491.995822 65.91808 
L 492.802321 70.155399 
L 493.60882 53.103225 
L 494.415319 51.983432 
L 495.221817 59.886292 
L 496.028316 96.997427 
L 496.834815 57.684416 
L 497.641313 79.719836 
L 498.447812 58.822975 
L 499.254311 75.262306 
L 500.06081 67.795801 
L 500.06081 67.795801 
" clip-path="url(#p67dc6648a4)" style="fill: none; stroke: #b23a48; stroke-width: 1.5; stroke-linecap: square"/>
   </g>
   <g id="line2d_48">
    <path d="M 299.242628 94.353873 
L 300.049127 81.705068 
L 300.855625 86.351872 
L 301.662124 83.341519 
L 302.468623 100.541226 
L 303.275121 105.057983 
L 304.08162 85.393047 
L 304.888119 93.398801 
L 305.694618 93.206076 
L 306.501116 100.299856 
L 307.307615 92.16537 
L 308.114114 107.113536 
L 308.920613 108.778776 
L 309.727111 99.087375 
L 310.53361 78.755629 
L 311.340109 73.746764 
L 312.146607 91.272263 
L 312.953106 91.025144 
L 313.759605 84.990793 
L 314.566104 95.844266 
L 315.372602 88.04685 
L 316.179101 86.357763 
L 316.9856 91.879334 
L 317.792098 88.302063 
L 318.598597 110.631948 
L 319.405096 83.483306 
L 320.211595 112.633504 
L 321.018093 119.875128 
L 321.824592 86.897008 
L 322.631091 85.809384 
L 323.43759 107.613202 
L 324.244088 88.239969 
L 325.050587 100.620661 
L 325.857086 108.472386 
L 326.663584 91.846169 
L 328.276582 70.375473 
L 329.083081 95.903713 
L 329.889579 101.169843 
L 330.696078 97.257632 
L 331.502577 97.736671 
L 332.309075 108.617948 
L 333.115574 116.060365 
L 333.922073 93.03413 
L 334.728572 76.132141 
L 335.53507 97.082139 
L 336.341569 91.071336 
L 337.148068 93.774597 
L 337.954567 117.131817 
L 338.761065 111.370617 
L 339.567564 83.78846 
L 340.374063 95.047889 
L 341.180561 88.889434 
L 341.98706 123.510569 
L 342.793559 80.089057 
L 343.600058 102.690991 
L 344.406556 88.801542 
L 345.213055 113.647415 
L 346.019554 85.480429 
L 346.826052 89.165487 
L 348.43905 116.255844 
L 349.245549 82.626611 
L 350.052047 105.919969 
L 350.858546 124.064984 
L 351.665045 115.730206 
L 352.471544 114.868343 
L 353.278042 95.518239 
L 354.084541 114.78886 
L 354.89104 116.688868 
L 355.697538 97.227418 
L 356.504037 99.141539 
L 357.310536 99.903359 
L 358.117035 85.571652 
L 358.923533 102.023027 
L 360.536531 91.404244 
L 361.343029 114.566713 
L 362.149528 98.750686 
L 362.956027 108.779412 
L 363.762526 104.346541 
L 364.569024 105.862243 
L 365.375523 101.706588 
L 366.182022 109.729248 
L 366.988521 103.201606 
L 367.795019 100.339856 
L 368.601518 98.531938 
L 369.408017 79.440816 
L 370.214515 119.301751 
L 371.021014 94.835636 
L 371.827513 108.549578 
L 372.634012 114.542728 
L 373.44051 104.145835 
L 374.247009 114.266643 
L 375.053508 104.928041 
L 375.860006 110.713485 
L 376.666505 99.685096 
L 377.473004 112.792727 
L 378.279503 88.936832 
L 379.086001 96.690601 
L 379.8925 106.514355 
L 380.698999 93.882912 
L 381.505498 117.190619 
L 382.311996 111.014085 
L 383.118495 109.879487 
L 383.924994 94.768154 
L 384.731492 118.085993 
L 385.537991 102.706477 
L 386.34449 98.143231 
L 387.150989 107.233302 
L 387.957487 110.443103 
L 388.763986 91.265732 
L 389.570485 94.437072 
L 390.376983 109.443458 
L 391.989981 126.031966 
L 394.409477 98.843603 
L 395.215976 115.972283 
L 396.022475 103.312178 
L 396.828973 99.827568 
L 397.635472 102.391329 
L 398.441971 109.459295 
L 399.248469 92.803881 
L 400.054968 116.489675 
L 400.861467 99.565328 
L 401.667966 118.195296 
L 402.474464 92.72906 
L 403.280963 115.502821 
L 404.087462 118.88397 
L 404.89396 76.906395 
L 405.700459 113.297707 
L 406.506958 106.386806 
L 407.313457 97.665298 
L 408.119955 102.974835 
L 408.926454 92.584581 
L 409.732953 102.278291 
L 410.539451 105.943052 
L 411.34595 114.19053 
L 412.152449 111.383637 
L 412.958948 119.068469 
L 413.765446 110.45507 
L 414.571945 93.151479 
L 415.378444 97.818457 
L 416.184943 96.083599 
L 416.991441 97.54494 
L 417.79794 103.729047 
L 418.604439 92.712201 
L 419.410937 102.358993 
L 420.217436 104.222808 
L 421.023935 92.414361 
L 421.830434 106.769323 
L 422.636932 85.756032 
L 423.443431 99.296962 
L 424.24993 94.878605 
L 425.056428 101.589898 
L 425.862927 94.499872 
L 426.669426 97.851403 
L 427.475925 108.160734 
L 428.282423 112.464704 
L 429.088922 109.587837 
L 429.895421 107.784463 
L 430.70192 120.131007 
L 431.508418 105.620696 
L 432.314917 108.955209 
L 433.121416 105.792546 
L 433.927914 116.16751 
L 434.734413 92.785648 
L 435.540912 102.847131 
L 436.347411 108.936792 
L 437.153909 102.712595 
L 437.960408 105.181947 
L 438.766907 108.5599 
L 439.573405 95.073425 
L 440.379904 101.063311 
L 441.186403 93.872784 
L 441.992902 97.526448 
L 442.7994 107.849418 
L 443.605899 106.062605 
L 444.412398 114.313528 
L 445.218897 106.701173 
L 446.025395 104.308693 
L 446.831894 94.831481 
L 447.638393 121.520878 
L 448.444891 105.318083 
L 449.25139 97.877639 
L 450.057889 109.705542 
L 450.864388 84.358965 
L 452.477385 115.780246 
L 453.283884 116.216822 
L 454.090382 105.802263 
L 454.896881 120.701451 
L 455.70338 112.699351 
L 456.509879 116.868675 
L 457.316377 104.77716 
L 458.122876 108.704119 
L 458.929375 104.266516 
L 459.735874 118.065958 
L 460.542372 100.242962 
L 462.15537 113.98037 
L 462.961868 98.284684 
L 463.768367 101.839426 
L 464.574866 95.85395 
L 465.381365 115.104558 
L 466.187863 105.240396 
L 466.994362 112.570394 
L 467.800861 109.044476 
L 468.607359 113.540982 
L 469.413858 121.554229 
L 470.220357 102.239547 
L 471.026856 102.005421 
L 471.833354 119.56764 
L 472.639853 108.791838 
L 473.446352 111.661126 
L 474.252851 116.706153 
L 475.059349 111.593296 
L 475.865848 111.26596 
L 476.672347 111.487104 
L 477.478845 119.16155 
L 478.285344 120.884942 
L 479.091843 102.808519 
L 479.898342 130.402609 
L 480.70484 120.912002 
L 481.511339 90.122758 
L 482.317838 109.387403 
L 483.124336 115.359565 
L 483.930835 112.672454 
L 484.737334 122.112068 
L 485.543833 94.913944 
L 486.350331 124.65301 
L 487.15683 113.084927 
L 487.963329 95.629842 
L 488.769828 110.183475 
L 489.576326 99.590725 
L 490.382825 115.673991 
L 491.189324 110.987805 
L 491.995822 104.691833 
L 492.802321 100.917788 
L 493.60882 100.249287 
L 494.415319 91.251301 
L 495.221817 109.155698 
L 496.028316 121.517989 
L 496.834815 99.028682 
L 497.641313 128.335748 
L 498.447812 102.139241 
L 499.254311 116.313959 
L 500.06081 106.585407 
L 500.06081 106.585407 
" clip-path="url(#p67dc6648a4)" style="fill: none; stroke: #6c9a8b; stroke-width: 1.5; stroke-linecap: square"/>
   </g>
   <g id="patch_6">
    <path d="M 289.201719 167.104 
L 289.201719 46.5015 
" style="fill: none; stroke: #000000; stroke-width: 0.7; stroke-linejoin: miter; stroke-linecap: square"/>
   </g>
   <g id="patch_7">
    <path d="M 289.201719 167.104 
L 510.101719 167.104 
" style="fill: none; stroke: #000000; stroke-width: 0.7; stroke-linejoin: miter; stroke-linecap: square"/>
   </g>
   <g id="text_35">
    <text style="font: 700 8px 'Arial', 'Helvetica', 'DejaVu Sans', sans-serif; text-anchor: start" x="267.111719" y="42.57955" transform="rotate(-0 267.111719 42.57955)">b</text>
   </g>
   <g id="text_36">
    <text style="font: 8px 'Arial', 'Helvetica', 'DejaVu Sans', sans-serif; text-anchor: middle" x="399.651719" y="40.5015" transform="rotate(-0 399.651719 40.5015)">Critic / value loss</text>
   </g>
   <g id="legend_2">
    <g id="line2d_49">
     <path d="M 382.245156 54.096188 
L 388.245156 54.096188 
L 394.245156 54.096188 
" style="fill: none; stroke: #335c81; stroke-width: 1.5; stroke-linecap: square"/>
    </g>
    <g id="text_37">
     <text style="font: 6px 'Arial', 'Helvetica', 'DejaVu Sans', sans-serif; text-anchor: start" x="399.045156" y="56.196188" transform="rotate(-0 399.045156 56.196188)">bc</text>
    </g>
    <g id="line2d_50">
     <path d="M 382.245156 62.583375 
L 388.245156 62.583375 
L 394.245156 62.583375 
" style="fill: none; stroke: #e3a62f; stroke-width: 1.5; stroke-linecap: square"/>
    </g>
    <g id="text_38">
     <text style="font: 6px 'Arial', 'Helvetica', 'DejaVu Sans', sans-serif; text-anchor: start" x="399.045156" y="64.683375" transform="rotate(-0 399.045156 64.683375)">cql</text>
    </g>
    <g id="line2d_51">
     <path d="M 382.245156 71.070563 
L 388.245156 71.070563 
L 394.245156 71.070563 
" style="fill: none; stroke: #b23a48; stroke-width: 1.5; stroke-linecap: square"/>
    </g>
    <g id="text_39">
     <text style="font: 6px 'Arial', 'Helvetica', 'DejaVu Sans', sans-serif; text-anchor: start" x="399.045156" y="73.170563" transform="rotate(-0 399.045156 73.170563)">iql</text>
    </g>
    <g id="line2d_52">
     <path d="M 382.245156 79.575563 
L 388.245156 79.575563 
L 394.245156 79.575563 
" style="fill: none; stroke: #6c9a8b; stroke-width: 1.5; stroke-linecap: square"/>
    </g>
    <g id="text_40">
     <text style="font: 6px 'Arial', 'Helvetica', 'DejaVu Sans', sans-serif; text-anchor: start" x="399.045156" y="81.675563" transform="rotate(-0 399.045156 81.675563)">td3_bc</text>
    </g>
   </g>
  </g>
  <g id="text_41">
   <text style="font: 9px 'Arial', 'Helvetica', 'DejaVu Sans', sans-serif; text-anchor: middle" x="258.461719" y="13.757344" transform="rotate(-0 258.461719 13.757344)">Offline RL baseline training curves across three seeds</text>
  </g>
 </g>
 <defs>
  <clipPath id="p6a63111344">
   <rect x="32.941719" y="46.5015" width="220.9" height="120.6025"/>
  </clipPath>
  <clipPath id="p67dc6648a4">
   <rect x="289.201719" y="46.5015" width="220.9" height="120.6025"/>
  </clipPath>
 </defs>
</svg>
