<?xml version="1.0" encoding="utf-8" standalone="no"?>
<!DOCTYPE svg PUBLIC "-//W3C//DTD SVG 1.1//EN"
  "http://www.w3.org/Graphics/SVG/1.1/DTD/svg11.dtd">
<svg xmlns:xlink="http://www.w3.org/1999/xlink" width="583.56pt" height="330.408pt" viewBox="0 0 583.56 330.408" xmlns="http://www.w3.org/2000/svg" version="1.1">
 <metadata>
  <rdf:RDF xmlns:dc="http://purl.org/dc/elements/1.1/" xmlns:cc="http://creativecommons.org/ns#" xmlns:rdf="http://www.w3.org/1999/02/22-rdf-syntax-ns#">
   <cc:Work>
    <dc:type rdf:resource="http://purl.org/dc/dcmitype/StillImage"/>
    <dc:date>2026-07-01T07:48:50.414686</dc:date>
    <dc:format>image/svg+xml</dc:format>
    <dc:creator>
     <cc:Agent>
      <dc:title>Matplotlib v3.7.0, https://matplotlib.org/</dc:title>
     </cc:Agent>
    </dc:creator>
   </cc:Work>
  </rdf:RDF>
 </metadata>
 <defs>
  <style type="text/css">*{stroke-linejoin: round; stroke-linecap: butt}</style>
 </defs>
 <g id="figure_1">
  <g id="patch_1">
   <path d="M 0 330.408 
L 583.56 330.408 
L 583.56 0 
L 0 0 
z
" style="fill: #ffffff"/>
  </g>
  <g id="axes_1">
   <g id="patch_2">
    <path d="M 29.9664 106.74252 
L 103.9572 106.74252 
Q 118.1862 106.74252 118.1862 98.84232 
L 118.1862 67.24152 
Q 118.1862 59.34132 103.9572 59.34132 
L 29.9664 59.34132 
Q 15.7374 59.34132 15.7374 67.24152 
L 15.7374 98.84232 
Q 15.7374 106.74252 29.9664 106.74252 
z
" clip-path="url(#pc655361133)" style="fill: #e8f1fa; stroke: #2b3a42; stroke-width: 1.2; stroke-linejoin: miter"/>
   </g>
   <g id="patch_3">
    <path d="M 143.7984 106.74252 
L 223.4808 106.74252 
Q 237.7098 106.74252 237.7098 98.84232 
L 237.7098 67.24152 
Q 237.7098 59.34132 223.4808 59.34132 
L 143.7984 59.34132 
Q 129.5694 59.34132 129.5694 67.24152 
L 129.5694 98.84232 
Q 129.5694 106.74252 143.7984 106.74252 
z
" clip-path="url(#pc655361133)" style="fill: #e8f1fa; stroke: #2b3a42; stroke-width: 1.2; stroke-linejoin: miter"/>
   </g>
   <g id="patch_4">
    <path d="M 263.322 106.74252 
L 348.696 106.74252 
Q 362.925 106.74252 362.925 98.84232 
L 362.925 67.24152 
Q 362.925 59.34132 348.696 59.34132 
L 263.322 59.34132 
Q 249.093 59.34132 249.093 67.24152 
L 249.093 98.84232 
Q 249.093 106.74252 263.322 106.74252 
z
" clip-path="url(#pc655361133)" style="fill: #e8f1fa; stroke: #2b3a42; stroke-width: 1.2; stroke-linejoin: miter"/>
   </g>
   <g id="patch_5">
    <path d="M 394.2288 106.74252 
L 473.9112 106.74252 
Q 488.1402 106.74252 488.1402 98.84232 
L 488.1402 67.24152 
Q 488.1402 59.34132 473.9112 59.34132 
L 394.2288 59.34132 
Q 379.9998 59.34132 379.9998 67.24152 
L 379.9998 98.84232 
Q 379.9998 106.74252 394.2288 106.74252 
z
" clip-path="url(#pc655361133)" style="fill: #e8f1fa; stroke: #2b3a42; stroke-width: 1.2; stroke-linejoin: miter"/>
   </g>
   <g id="patch_6">
    <path d="M 111.646279 83.04192 
Q 123.876841 83.04192 134.765762 83.04192 
" clip-path="url(#pc655361133)" style="fill: none; stroke: #2b3a42; stroke-width: 1.2; stroke-linecap: round"/>
    <path d="M 130.765762 81.04192 
L 134.765762 83.04192 
L 130.765762 85.04192 
z
" clip-path="url(#pc655361133)" style="fill: #2b3a42; stroke: #2b3a42; stroke-width: 1.2; stroke-linecap: round"/>
   </g>
   <g id="patch_7">
    <path d="M 231.169879 83.04192 
Q 243.400441 83.04192 254.289362 83.04192 
" clip-path="url(#pc655361133)" style="fill: none; stroke: #2b3a42; stroke-width: 1.2; stroke-linecap: round"/>
    <path d="M 250.289362 81.04192 
L 254.289362 83.04192 
L 250.289362 85.04192 
z
" clip-path="url(#pc655361133)" style="fill: #2b3a42; stroke: #2b3a42; stroke-width: 1.2; stroke-linecap: round"/>
   </g>
   <g id="patch_8">
    <path d="M 356.384384 83.04192 
Q 371.461904 83.04192 385.197783 83.04192 
" clip-path="url(#pc655361133)" style="fill: none; stroke: #2b3a42; stroke-width: 1.2; stroke-linecap: round"/>
    <path d="M 381.197783 81.04192 
L 385.197783 83.04192 
L 381.197783 85.04192 
z
" clip-path="url(#pc655361133)" style="fill: #2b3a42; stroke: #2b3a42; stroke-width: 1.2; stroke-linecap: round"/>
   </g>
   <g id="patch_9">
    <path d="M 35.658 192.06468 
L 126.7236 192.06468 
Q 140.9526 192.06468 140.9526 184.16448 
L 140.9526 149.4036 
Q 140.9526 141.5034 126.7236 141.5034 
L 35.658 141.5034 
Q 21.429 141.5034 21.429 149.4036 
L 21.429 184.16448 
Q 21.429 192.06468 35.658 192.06468 
z
" clip-path="url(#pc655361133)" style="fill: #fff7e6; stroke: #2b3a42; stroke-width: 1.2; stroke-linejoin: miter"/>
   </g>
   <g id="patch_10">
    <path d="M 177.948 192.06468 
L 257.6304 192.06468 
Q 271.8594 192.06468 271.8594 184.16448 
L 271.8594 149.4036 
Q 271.8594 141.5034 257.6304 141.5034 
L 177.948 141.5034 
Q 163.719 141.5034 163.719 149.4036 
L 163.719 184.16448 
Q 163.719 192.06468 177.948 192.06468 
z
" clip-path="url(#pc655361133)" style="fill: #fff7e6; stroke: #2b3a42; stroke-width: 1.2; stroke-linejoin: miter"/>
   </g>
   <g id="patch_11">
    <path d="M 308.8548 192.06468 
L 377.154 192.06468 
Q 391.383 192.06468 391.383 184.16448 
L 391.383 149.4036 
Q 391.383 141.5034 377.154 141.5034 
L 308.8548 141.5034 
Q 294.6258 141.5034 294.6258 149.4036 
L 294.6258 184.16448 
Q 294.6258 192.06468 308.8548 192.06468 
z
" clip-path="url(#pc655361133)" style="fill: #fff7e6; stroke: #2b3a42; stroke-width: 1.2; stroke-linejoin: miter"/>
   </g>
   <g id="patch_12">
    <path d="M 434.07 192.06468 
L 525.1356 192.06468 
Q 539.3646 192.06468 539.3646 184.16448 
L 539.3646 149.4036 
Q 539.3646 141.5034 525.1356 141.5034 
L 434.07 141.5034 
Q 419.841 141.5034 419.841 149.4036 
L 419.841 184.16448 
Q 419.841 192.06468 434.07 192.06468 
z
" clip-path="url(#pc655361133)" style="fill: #eaf6ef; stroke: #2b3a42; stroke-width: 1.2; stroke-linejoin: miter"/>
   </g>
   <g id="patch_13">
    <path d="M 134.414069 166.78404 
Q 152.335129 166.78404 168.914548 166.78404 
" clip-path="url(#pc655361133)" style="fill: none; stroke: #2b3a42; stroke-width: 1.2; stroke-linecap: round"/>
    <path d="M 164.914548 164.78404 
L 168.914548 166.78404 
L 164.914548 168.78404 
z
" clip-path="url(#pc655361133)" style="fill: #2b3a42; stroke: #2b3a42; stroke-width: 1.2; stroke-linecap: round"/>
   </g>
   <g id="patch_14">
    <path d="M 265.320869 166.78404 
Q 283.241929 166.78404 299.821348 166.78404 
" clip-path="url(#pc655361133)" style="fill: none; stroke: #2b3a42; stroke-width: 1.2; stroke-linecap: round"/>
    <path d="M 295.821348 164.78404 
L 299.821348 166.78404 
L 295.821348 168.78404 
z
" clip-path="url(#pc655361133)" style="fill: #2b3a42; stroke: #2b3a42; stroke-width: 1.2; stroke-linecap: round"/>
   </g>
   <g id="patch_15">
    <path d="M 384.843774 166.78404 
Q 405.610673 166.78404 425.035931 166.78404 
" clip-path="url(#pc655361133)" style="fill: none; stroke: #2b3a42; stroke-width: 1.2; stroke-linecap: round"/>
    <path d="M 421.035931 164.78404 
L 425.035931 166.78404 
L 421.035931 168.78404 
z
" clip-path="url(#pc655361133)" style="fill: #2b3a42; stroke: #2b3a42; stroke-width: 1.2; stroke-linecap: round"/>
   </g>
   <g id="patch_16">
    <path d="M 432.516914 103.267096 
Q 393.645136 134.63845 346.26505 145.504711 
" clip-path="url(#pc655361133)" style="fill: none; stroke: #2b3a42; stroke-width: 1.2; stroke-linecap: round"/>
    <path d="M 350.610908 146.559946 
L 346.26505 145.504711 
L 349.716752 142.661166 
z
" clip-path="url(#pc655361133)" style="fill: #2b3a42; stroke: #2b3a42; stroke-width: 1.2; stroke-linecap: round"/>
   </g>
   <g id="patch_17">
    <path d="M 177.948 271.06668 
L 269.0136 271.06668 
Q 283.2426 271.06668 283.2426 263.16648 
L 283.2426 228.4056 
Q 283.2426 220.5054 269.0136 220.5054 
L 177.948 220.5054 
Q 163.719 220.5054 163.719 228.4056 
L 163.719 263.16648 
Q 163.719 271.06668 177.948 271.06668 
z
" clip-path="url(#pc655361133)" style="fill: #edf2ff; stroke: #2b3a42; stroke-width: 1.2; stroke-linejoin: miter"/>
   </g>
   <g id="patch_18">
    <path d="M 314.5464 271.06668 
L 405.612 271.06668 
Q 419.841 271.06668 419.841 263.16648 
L 419.841 228.4056 
Q 419.841 220.5054 405.612 220.5054 
L 314.5464 220.5054 
Q 300.3174 220.5054 300.3174 228.4056 
L 300.3174 263.16648 
Q 300.3174 271.06668 314.5464 271.06668 
z
" clip-path="url(#pc655361133)" style="fill: #edf2ff; stroke: #2b3a42; stroke-width: 1.2; stroke-linejoin: miter"/>
   </g>
   <g id="patch_19">
    <path d="M 445.4532 271.06668 
L 536.5188 271.06668 
Q 550.7478 271.06668 550.7478 263.16648 
L 550.7478 228.4056 
Q 550.7478 220.5054 536.5188 220.5054 
L 445.4532 220.5054 
Q 431.2242 220.5054 431.2242 228.4056 
L 431.2242 263.16648 
Q 431.2242 271.06668 445.4532 271.06668 
z
" clip-path="url(#pc655361133)" style="fill: #edf2ff; stroke: #2b3a42; stroke-width: 1.2; stroke-linejoin: miter"/>
   </g>
   <g id="patch_20">
    <path d="M 217.7892 189.328927 
Q 217.7892 206.2854 217.7892 221.900231 
" clip-path="url(#pc655361133)" style="fill: none; stroke: #2b3a42; stroke-width: 1.2; stroke-linecap: round"/>
    <path d="M 219.7892 217.900231 
L 217.7892 221.900231 
L 215.7892 217.900231 
z
" clip-path="url(#pc655361133)" style="fill: #2b3a42; stroke: #2b3a42; stroke-width: 1.2; stroke-linecap: round"/>
   </g>
   <g id="patch_21">
    <path d="M 276.701984 245.78604 
Q 291.779504 245.78604 305.515383 245.78604 
" clip-path="url(#pc655361133)" style="fill: none; stroke: #2b3a42; stroke-width: 1.2; stroke-linecap: round"/>
    <path d="M 301.515383 243.78604 
L 305.515383 245.78604 
L 301.515383 247.78604 
z
" clip-path="url(#pc655361133)" style="fill: #2b3a42; stroke: #2b3a42; stroke-width: 1.2; stroke-linecap: round"/>
   </g>
   <g id="patch_22">
    <path d="M 413.301079 245.78604 
Q 425.531641 245.78604 436.420562 245.78604 
" clip-path="url(#pc655361133)" style="fill: none; stroke: #2b3a42; stroke-width: 1.2; stroke-linecap: round"/>
    <path d="M 432.420562 243.78604 
L 436.420562 245.78604 
L 432.420562 247.78604 
z
" clip-path="url(#pc655361133)" style="fill: #2b3a42; stroke: #2b3a42; stroke-width: 1.2; stroke-linecap: round"/>
   </g>
   <g id="patch_23">
    <path d="M 490.689331 223.268927 
Q 488.140371 206.286179 485.790549 190.63021 
" clip-path="url(#pc655361133)" style="fill: none; stroke: #2b3a42; stroke-width: 1.2; stroke-linecap: round"/>
    <path d="M 484.406417 194.88276 
L 485.790549 190.63021 
L 488.362109 194.289046 
z
" clip-path="url(#pc655361133)" style="fill: #2b3a42; stroke: #2b3a42; stroke-width: 1.2; stroke-linecap: round"/>
   </g>
   <g id="patch_24">
    <path d="M 343.824582 189.146081 
Q 351.542153 206.285823 358.708883 222.202219 
" clip-path="url(#pc655361133)" style="fill: none; stroke: #2b3a42; stroke-width: 1.2; stroke-linecap: round"/>
    <path d="M 358.890251 217.733763 
L 358.708883 222.202219 
L 355.242938 219.376051 
z
" clip-path="url(#pc655361133)" style="fill: #2b3a42; stroke: #2b3a42; stroke-width: 1.2; stroke-linecap: round"/>
   </g>
   <g id="patch_25">
    <path d="M 47.0412 312.14772 
L 149.49 312.14772 
Q 163.719 312.14772 163.719 304.24752 
L 163.719 278.96688 
Q 163.719 271.06668 149.49 271.06668 
L 47.0412 271.06668 
Q 32.8122 271.06668 32.8122 278.96688 
L 32.8122 304.24752 
Q 32.8122 312.14772 47.0412 312.14772 
z
" clip-path="url(#pc655361133)" style="fill: #f6f6f6; stroke: #2b3a42; stroke-width: 1.2; stroke-linejoin: miter"/>
   </g>
   <g id="patch_26">
    <path d="M 240.5556 312.14772 
L 343.0044 312.14772 
Q 357.2334 312.14772 357.2334 304.24752 
L 357.2334 278.96688 
Q 357.2334 271.06668 343.0044 271.06668 
L 240.5556 271.06668 
Q 226.3266 271.06668 226.3266 278.96688 
L 226.3266 304.24752 
Q 226.3266 312.14772 240.5556 312.14772 
z
" clip-path="url(#pc655361133)" style="fill: #f6f6f6; stroke: #2b3a42; stroke-width: 1.2; stroke-linejoin: miter"/>
   </g>
   <g id="patch_27">
    <path d="M 428.3784 312.14772 
L 530.8272 312.14772 
Q 545.0562 312.14772 545.0562 304.24752 
L 545.0562 278.96688 
Q 545.0562 271.06668 530.8272 271.06668 
L 428.3784 271.06668 
Q 414.1494 271.06668 414.1494 278.96688 
L 414.1494 304.24752 
Q 414.1494 312.14772 428.3784 312.14772 
z
" clip-path="url(#pc655361133)" style="fill: #f6f6f6; stroke: #2b3a42; stroke-width: 1.2; stroke-linejoin: miter"/>
   </g>
   <g id="patch_28">
    <path d="M 479.039331 189.244447 
Q 466.89402 231.565375 478.669074 272.596715 
" clip-path="url(#pc655361133)" style="fill: none; stroke: #6b6b6b; stroke-width: 1.2; stroke-linecap: round"/>
    <path d="M 479.488107 268.200218 
L 478.669074 272.596715 
L 475.643296 269.30359 
z
" clip-path="url(#pc655361133)" style="fill: #6b6b6b; stroke: #6b6b6b; stroke-width: 1.2; stroke-linecap: round"/>
   </g>
   <g id="patch_29">
    <path d="M 219.761656 266.014443 
Q 256.133388 260.524088 288.712861 274.477642 
" clip-path="url(#pc655361133)" style="fill: none; stroke: #6b6b6b; stroke-width: 1.2; stroke-linecap: round"/>
    <path d="M 285.823316 271.064355 
L 288.712861 274.477642 
L 284.248504 274.741306 
z
" clip-path="url(#pc655361133)" style="fill: #6b6b6b; stroke: #6b6b6b; stroke-width: 1.2; stroke-linecap: round"/>
   </g>
   <g id="patch_30">
    <path d="M 479.6028 268.330927 
Q 479.6028 271.070499 479.6028 272.46843 
" clip-path="url(#pc655361133)" style="fill: none; stroke: #6b6b6b; stroke-width: 1.2; stroke-linecap: round"/>
    <path d="M 481.6028 268.46843 
L 479.6028 272.46843 
L 477.6028 268.46843 
z
" clip-path="url(#pc655361133)" style="fill: #6b6b6b; stroke: #6b6b6b; stroke-width: 1.2; stroke-linecap: round"/>
   </g>
   <g id="patch_31">
    <path d="M 27.1206 46.701 
L 41.3496 46.701 
L 41.3496 41.012856 
L 27.1206 41.012856 
z
" clip-path="url(#pc655361133)" style="fill: #e8f1fa; stroke: #2b3a42; stroke-width: 0.6; stroke-linejoin: miter"/>
   </g>
   <g id="patch_32">
    <path d="M 123.8778 46.701 
L 138.1068 46.701 
L 138.1068 41.012856 
L 123.8778 41.012856 
z
" clip-path="url(#pc655361133)" style="fill: #fff7e6; stroke: #2b3a42; stroke-width: 0.6; stroke-linejoin: miter"/>
   </g>
   <g id="patch_33">
    <path d="M 197.8686 46.701 
L 212.0976 46.701 
L 212.0976 41.012856 
L 197.8686 41.012856 
z
" clip-path="url(#pc655361133)" style="fill: #edf2ff; stroke: #2b3a42; stroke-width: 0.6; stroke-linejoin: miter"/>
   </g>
   <g id="text_1">
    <!-- Distribution-shift-aware safe offline RL dispatch -->
    <g transform="translate(18.5832 19.84032) scale(0.13 -0.13)">
     <defs>
      <path id="DejaVuSans-Bold-44" d="M 1791 3756 
L 1791 909 
L 2222 909 
Q 2959 909 3348 1275 
Q 3738 1641 3738 2338 
Q 3738 3031 3350 3393 
Q 2963 3756 2222 3756 
L 1791 3756 
z
M 588 4666 
L 1856 4666 
Q 2919 4666 3439 4514 
Q 3959 4363 4331 4000 
Q 4659 3684 4818 3271 
Q 4978 2859 4978 2338 
Q 4978 1809 4818 1395 
Q 4659 981 4331 666 
Q 3956 303 3431 151 
Q 2906 0 1856 0 
L 588 0 
L 588 4666 
z
" transform="scale(0.015625)"/>
      <path id="DejaVuSans-Bold-69" d="M 538 3500 
L 1656 3500 
L 1656 0 
L 538 0 
L 538 3500 
z
M 538 4863 
L 1656 4863 
L 1656 3950 
L 538 3950 
L 538 4863 
z
" transform="scale(0.015625)"/>
      <path id="DejaVuSans-Bold-73" d="M 3272 3391 
L 3272 2541 
Q 2913 2691 2578 2766 
Q 2244 2841 1947 2841 
Q 1628 2841 1473 2761 
Q 1319 2681 1319 2516 
Q 1319 2381 1436 2309 
Q 1553 2238 1856 2203 
L 2053 2175 
Q 2913 2066 3209 1816 
Q 3506 1566 3506 1031 
Q 3506 472 3093 190 
Q 2681 -91 1863 -91 
Q 1516 -91 1145 -36 
Q 775 19 384 128 
L 384 978 
Q 719 816 1070 734 
Q 1422 653 1784 653 
Q 2113 653 2278 743 
Q 2444 834 2444 1013 
Q 2444 1163 2330 1236 
Q 2216 1309 1875 1350 
L 1678 1375 
Q 931 1469 631 1722 
Q 331 1975 331 2491 
Q 331 3047 712 3315 
Q 1094 3584 1881 3584 
Q 2191 3584 2531 3537 
Q 2872 3491 3272 3391 
z
" transform="scale(0.015625)"/>
      <path id="DejaVuSans-Bold-74" d="M 1759 4494 
L 1759 3500 
L 2913 3500 
L 2913 2700 
L 1759 2700 
L 1759 1216 
Q 1759 972 1856 886 
Q 1953 800 2241 800 
L 2816 800 
L 2816 0 
L 1856 0 
Q 1194 0 917 276 
Q 641 553 641 1216 
L 641 2700 
L 84 2700 
L 84 3500 
L 641 3500 
L 641 4494 
L 1759 4494 
z
" transform="scale(0.015625)"/>
      <path id="DejaVuSans-Bold-72" d="M 3138 2547 
Q 2991 2616 2845 2648 
Q 2700 2681 2553 2681 
Q 2122 2681 1889 2404 
Q 1656 2128 1656 1613 
L 1656 0 
L 538 0 
L 538 3500 
L 1656 3500 
L 1656 2925 
Q 1872 3269 2151 3426 
Q 2431 3584 2822 3584 
Q 2878 3584 2943 3579 
Q 3009 3575 3134 3559 
L 3138 2547 
z
" transform="scale(0.015625)"/>
      <path id="DejaVuSans-Bold-62" d="M 2400 722 
Q 2759 722 2948 984 
Q 3138 1247 3138 1747 
Q 3138 2247 2948 2509 
Q 2759 2772 2400 2772 
Q 2041 2772 1848 2508 
Q 1656 2244 1656 1747 
Q 1656 1250 1848 986 
Q 2041 722 2400 722 
z
M 1656 2988 
Q 1888 3294 2169 3439 
Q 2450 3584 2816 3584 
Q 3463 3584 3878 3070 
Q 4294 2556 4294 1747 
Q 4294 938 3878 423 
Q 3463 -91 2816 -91 
Q 2450 -91 2169 54 
Q 1888 200 1656 506 
L 1656 0 
L 538 0 
L 538 4863 
L 1656 4863 
L 1656 2988 
z
" transform="scale(0.015625)"/>
      <path id="DejaVuSans-Bold-75" d="M 500 1363 
L 500 3500 
L 1625 3500 
L 1625 3150 
Q 1625 2866 1622 2436 
Q 1619 2006 1619 1863 
Q 1619 1441 1641 1255 
Q 1663 1069 1716 984 
Q 1784 875 1895 815 
Q 2006 756 2150 756 
Q 2500 756 2700 1025 
Q 2900 1294 2900 1772 
L 2900 3500 
L 4019 3500 
L 4019 0 
L 2900 0 
L 2900 506 
Q 2647 200 2364 54 
Q 2081 -91 1741 -91 
Q 1134 -91 817 281 
Q 500 653 500 1363 
z
" transform="scale(0.015625)"/>
      <path id="DejaVuSans-Bold-6f" d="M 2203 2784 
Q 1831 2784 1636 2517 
Q 1441 2250 1441 1747 
Q 1441 1244 1636 976 
Q 1831 709 2203 709 
Q 2569 709 2762 976 
Q 2956 1244 2956 1747 
Q 2956 2250 2762 2517 
Q 2569 2784 2203 2784 
z
M 2203 3584 
Q 3106 3584 3614 3096 
Q 4122 2609 4122 1747 
Q 4122 884 3614 396 
Q 3106 -91 2203 -91 
Q 1297 -91 786 396 
Q 275 884 275 1747 
Q 275 2609 786 3096 
Q 1297 3584 2203 3584 
z
" transform="scale(0.015625)"/>
      <path id="DejaVuSans-Bold-6e" d="M 4056 2131 
L 4056 0 
L 2931 0 
L 2931 347 
L 2931 1631 
Q 2931 2084 2911 2256 
Q 2891 2428 2841 2509 
Q 2775 2619 2662 2680 
Q 2550 2741 2406 2741 
Q 2056 2741 1856 2470 
Q 1656 2200 1656 1722 
L 1656 0 
L 538 0 
L 538 3500 
L 1656 3500 
L 1656 2988 
Q 1909 3294 2193 3439 
Q 2478 3584 2822 3584 
Q 3428 3584 3742 3212 
Q 4056 2841 4056 2131 
z
" transform="scale(0.015625)"/>
      <path id="DejaVuSans-Bold-2d" d="M 347 2297 
L 2309 2297 
L 2309 1388 
L 347 1388 
L 347 2297 
z
" transform="scale(0.015625)"/>
      <path id="DejaVuSans-Bold-68" d="M 4056 2131 
L 4056 0 
L 2931 0 
L 2931 347 
L 2931 1625 
Q 2931 2084 2911 2256 
Q 2891 2428 2841 2509 
Q 2775 2619 2662 2680 
Q 2550 2741 2406 2741 
Q 2056 2741 1856 2470 
Q 1656 2200 1656 1722 
L 1656 0 
L 538 0 
L 538 4863 
L 1656 4863 
L 1656 2988 
Q 1909 3294 2193 3439 
Q 2478 3584 2822 3584 
Q 3428 3584 3742 3212 
Q 4056 2841 4056 2131 
z
" transform="scale(0.015625)"/>
      <path id="DejaVuSans-Bold-66" d="M 2841 4863 
L 2841 4128 
L 2222 4128 
Q 1984 4128 1890 4042 
Q 1797 3956 1797 3744 
L 1797 3500 
L 2753 3500 
L 2753 2700 
L 1797 2700 
L 1797 0 
L 678 0 
L 678 2700 
L 122 2700 
L 122 3500 
L 678 3500 
L 678 3744 
Q 678 4316 997 4589 
Q 1316 4863 1984 4863 
L 2841 4863 
z
" transform="scale(0.015625)"/>
      <path id="DejaVuSans-Bold-61" d="M 2106 1575 
Q 1756 1575 1579 1456 
Q 1403 1338 1403 1106 
Q 1403 894 1545 773 
Q 1688 653 1941 653 
Q 2256 653 2472 879 
Q 2688 1106 2688 1447 
L 2688 1575 
L 2106 1575 
z
M 3816 1997 
L 3816 0 
L 2688 0 
L 2688 519 
Q 2463 200 2181 54 
Q 1900 -91 1497 -91 
Q 953 -91 614 226 
Q 275 544 275 1050 
Q 275 1666 698 1953 
Q 1122 2241 2028 2241 
L 2688 2241 
L 2688 2328 
Q 2688 2594 2478 2717 
Q 2269 2841 1825 2841 
Q 1466 2841 1156 2769 
Q 847 2697 581 2553 
L 581 3406 
Q 941 3494 1303 3539 
Q 1666 3584 2028 3584 
Q 2975 3584 3395 3211 
Q 3816 2838 3816 1997 
z
" transform="scale(0.015625)"/>
      <path id="DejaVuSans-Bold-77" d="M 225 3500 
L 1313 3500 
L 1900 1088 
L 2491 3500 
L 3425 3500 
L 4013 1113 
L 4603 3500 
L 5691 3500 
L 4769 0 
L 3547 0 
L 2956 2406 
L 2369 0 
L 1147 0 
L 225 3500 
z
" transform="scale(0.015625)"/>
      <path id="DejaVuSans-Bold-65" d="M 4031 1759 
L 4031 1441 
L 1416 1441 
Q 1456 1047 1700 850 
Q 1944 653 2381 653 
Q 2734 653 3104 758 
Q 3475 863 3866 1075 
L 3866 213 
Q 3469 63 3072 -14 
Q 2675 -91 2278 -91 
Q 1328 -91 801 392 
Q 275 875 275 1747 
Q 275 2603 792 3093 
Q 1309 3584 2216 3584 
Q 3041 3584 3536 3087 
Q 4031 2591 4031 1759 
z
M 2881 2131 
Q 2881 2450 2695 2645 
Q 2509 2841 2209 2841 
Q 1884 2841 1681 2658 
Q 1478 2475 1428 2131 
L 2881 2131 
z
" transform="scale(0.015625)"/>
      <path id="DejaVuSans-Bold-20" transform="scale(0.015625)"/>
      <path id="DejaVuSans-Bold-6c" d="M 538 4863 
L 1656 4863 
L 1656 0 
L 538 0 
L 538 4863 
z
" transform="scale(0.015625)"/>
      <path id="DejaVuSans-Bold-52" d="M 2297 2597 
Q 2675 2597 2839 2737 
Q 3003 2878 3003 3200 
Q 3003 3519 2839 3656 
Q 2675 3794 2297 3794 
L 1791 3794 
L 1791 2597 
L 2297 2597 
z
M 1791 1766 
L 1791 0 
L 588 0 
L 588 4666 
L 2425 4666 
Q 3347 4666 3776 4356 
Q 4206 4047 4206 3378 
Q 4206 2916 3982 2619 
Q 3759 2322 3309 2181 
Q 3556 2125 3751 1926 
Q 3947 1728 4147 1325 
L 4800 0 
L 3519 0 
L 2950 1159 
Q 2778 1509 2601 1637 
Q 2425 1766 2131 1766 
L 1791 1766 
z
" transform="scale(0.015625)"/>
      <path id="DejaVuSans-Bold-4c" d="M 588 4666 
L 1791 4666 
L 1791 909 
L 3903 909 
L 3903 0 
L 588 0 
L 588 4666 
z
" transform="scale(0.015625)"/>
      <path id="DejaVuSans-Bold-64" d="M 2919 2988 
L 2919 4863 
L 4044 4863 
L 4044 0 
L 2919 0 
L 2919 506 
Q 2688 197 2409 53 
Q 2131 -91 1766 -91 
Q 1119 -91 703 423 
Q 288 938 288 1747 
Q 288 2556 703 3070 
Q 1119 3584 1766 3584 
Q 2128 3584 2408 3439 
Q 2688 3294 2919 2988 
z
M 2181 722 
Q 2541 722 2730 984 
Q 2919 1247 2919 1747 
Q 2919 2247 2730 2509 
Q 2541 2772 2181 2772 
Q 1825 2772 1636 2509 
Q 1447 2247 1447 1747 
Q 1447 1247 1636 984 
Q 1825 722 2181 722 
z
" transform="scale(0.015625)"/>
      <path id="DejaVuSans-Bold-70" d="M 1656 506 
L 1656 -1331 
L 538 -1331 
L 538 3500 
L 1656 3500 
L 1656 2988 
Q 1888 3294 2169 3439 
Q 2450 3584 2816 3584 
Q 3463 3584 3878 3070 
Q 4294 2556 4294 1747 
Q 4294 938 3878 423 
Q 3463 -91 2816 -91 
Q 2450 -91 2169 54 
Q 1888 200 1656 506 
z
M 2400 2772 
Q 2041 2772 1848 2508 
Q 1656 2244 1656 1747 
Q 1656 1250 1848 986 
Q 2041 722 2400 722 
Q 2759 722 2948 984 
Q 3138 1247 3138 1747 
Q 3138 2247 2948 2509 
Q 2759 2772 2400 2772 
z
" transform="scale(0.015625)"/>
      <path id="DejaVuSans-Bold-63" d="M 3366 3391 
L 3366 2478 
Q 3138 2634 2908 2709 
Q 2678 2784 2431 2784 
Q 1963 2784 1702 2511 
Q 1441 2238 1441 1747 
Q 1441 1256 1702 982 
Q 1963 709 2431 709 
Q 2694 709 2930 787 
Q 3166 866 3366 1019 
L 3366 103 
Q 3103 6 2833 -42 
Q 2563 -91 2291 -91 
Q 1344 -91 809 395 
Q 275 881 275 1747 
Q 275 2613 809 3098 
Q 1344 3584 2291 3584 
Q 2566 3584 2833 3536 
Q 3100 3488 3366 3391 
z
" transform="scale(0.015625)"/>
     </defs>
     <use xlink:href="#DejaVuSans-Bold-44"/>
     <use xlink:href="#DejaVuSans-Bold-69" x="83.007812"/>
     <use xlink:href="#DejaVuSans-Bold-73" x="117.285156"/>
     <use xlink:href="#DejaVuSans-Bold-74" x="176.806641"/>
     <use xlink:href="#DejaVuSans-Bold-72" x="224.609375"/>
     <use xlink:href="#DejaVuSans-Bold-69" x="273.925781"/>
     <use xlink:href="#DejaVuSans-Bold-62" x="308.203125"/>
     <use xlink:href="#DejaVuSans-Bold-75" x="379.785156"/>
     <use xlink:href="#DejaVuSans-Bold-74" x="450.976562"/>
     <use xlink:href="#DejaVuSans-Bold-69" x="498.779297"/>
     <use xlink:href="#DejaVuSans-Bold-6f" x="533.056641"/>
     <use xlink:href="#DejaVuSans-Bold-6e" x="601.757812"/>
     <use xlink:href="#DejaVuSans-Bold-2d" x="672.949219"/>
     <use xlink:href="#DejaVuSans-Bold-73" x="714.453125"/>
     <use xlink:href="#DejaVuSans-Bold-68" x="773.974609"/>
     <use xlink:href="#DejaVuSans-Bold-69" x="845.166016"/>
     <use xlink:href="#DejaVuSans-Bold-66" x="879.443359"/>
     <use xlink:href="#DejaVuSans-Bold-74" x="922.949219"/>
     <use xlink:href="#DejaVuSans-Bold-2d" x="970.751953"/>
     <use xlink:href="#DejaVuSans-Bold-61" x="1012.255859"/>
     <use xlink:href="#DejaVuSans-Bold-77" x="1079.736328"/>
     <use xlink:href="#DejaVuSans-Bold-61" x="1172.119141"/>
     <use xlink:href="#DejaVuSans-Bold-72" x="1239.599609"/>
     <use xlink:href="#DejaVuSans-Bold-65" x="1288.916016"/>
     <use xlink:href="#DejaVuSans-Bold-20" x="1356.738281"/>
     <use xlink:href="#DejaVuSans-Bold-73" x="1391.552734"/>
     <use xlink:href="#DejaVuSans-Bold-61" x="1451.074219"/>
     <use xlink:href="#DejaVuSans-Bold-66" x="1518.554688"/>
     <use xlink:href="#DejaVuSans-Bold-65" x="1562.060547"/>
     <use xlink:href="#DejaVuSans-Bold-20" x="1629.882812"/>
     <use xlink:href="#DejaVuSans-Bold-6f" x="1664.697266"/>
     <use xlink:href="#DejaVuSans-Bold-66" x="1733.398438"/>
     <use xlink:href="#DejaVuSans-Bold-66" x="1776.904297"/>
     <use xlink:href="#DejaVuSans-Bold-6c" x="1820.410156"/>
     <use xlink:href="#DejaVuSans-Bold-69" x="1854.6875"/>
     <use xlink:href="#DejaVuSans-Bold-6e" x="1888.964844"/>
     <use xlink:href="#DejaVuSans-Bold-65" x="1960.15625"/>
     <use xlink:href="#DejaVuSans-Bold-20" x="2027.978516"/>
     <use xlink:href="#DejaVuSans-Bold-52" x="2062.792969"/>
     <use xlink:href="#DejaVuSans-Bold-4c" x="2139.794922"/>
     <use xlink:href="#DejaVuSans-Bold-20" x="2203.515625"/>
     <use xlink:href="#DejaVuSans-Bold-64" x="2238.330078"/>
     <use xlink:href="#DejaVuSans-Bold-69" x="2309.912109"/>
     <use xlink:href="#DejaVuSans-Bold-73" x="2344.189453"/>
     <use xlink:href="#DejaVuSans-Bold-70" x="2403.710938"/>
     <use xlink:href="#DejaVuSans-Bold-61" x="2475.292969"/>
     <use xlink:href="#DejaVuSans-Bold-74" x="2542.773438"/>
     <use xlink:href="#DejaVuSans-Bold-63" x="2590.576172"/>
     <use xlink:href="#DejaVuSans-Bold-68" x="2649.853516"/>
    </g>
   </g>
   <g id="text_2">
    <!-- Offline policy proposes an action; OOD risk decides how much physics-based correction is needed. -->
    <g style="fill: #4a4a4a" transform="translate(18.5832 35.64072) scale(0.09 -0.09)">
     <defs>
      <path id="DejaVuSans-4f" d="M 2522 4238 
Q 1834 4238 1429 3725 
Q 1025 3213 1025 2328 
Q 1025 1447 1429 934 
Q 1834 422 2522 422 
Q 3209 422 3611 934 
Q 4013 1447 4013 2328 
Q 4013 3213 3611 3725 
Q 3209 4238 2522 4238 
z
M 2522 4750 
Q 3503 4750 4090 4092 
Q 4678 3434 4678 2328 
Q 4678 1225 4090 567 
Q 3503 -91 2522 -91 
Q 1538 -91 948 565 
Q 359 1222 359 2328 
Q 359 3434 948 4092 
Q 1538 4750 2522 4750 
z
" transform="scale(0.015625)"/>
      <path id="DejaVuSans-66" d="M 2375 4863 
L 2375 4384 
L 1825 4384 
Q 1516 4384 1395 4259 
Q 1275 4134 1275 3809 
L 1275 3500 
L 2222 3500 
L 2222 3053 
L 1275 3053 
L 1275 0 
L 697 0 
L 697 3053 
L 147 3053 
L 147 3500 
L 697 3500 
L 697 3744 
Q 697 4328 969 4595 
Q 1241 4863 1831 4863 
L 2375 4863 
z
" transform="scale(0.015625)"/>
      <path id="DejaVuSans-6c" d="M 603 4863 
L 1178 4863 
L 1178 0 
L 603 0 
L 603 4863 
z
" transform="scale(0.015625)"/>
      <path id="DejaVuSans-69" d="M 603 3500 
L 1178 3500 
L 1178 0 
L 603 0 
L 603 3500 
z
M 603 4863 
L 1178 4863 
L 1178 4134 
L 603 4134 
L 603 4863 
z
" transform="scale(0.015625)"/>
      <path id="DejaVuSans-6e" d="M 3513 2113 
L 3513 0 
L 2938 0 
L 2938 2094 
Q 2938 2591 2744 2837 
Q 2550 3084 2163 3084 
Q 1697 3084 1428 2787 
Q 1159 2491 1159 1978 
L 1159 0 
L 581 0 
L 581 3500 
L 1159 3500 
L 1159 2956 
Q 1366 3272 1645 3428 
Q 1925 3584 2291 3584 
Q 2894 3584 3203 3211 
Q 3513 2838 3513 2113 
z
" transform="scale(0.015625)"/>
      <path id="DejaVuSans-65" d="M 3597 1894 
L 3597 1613 
L 953 1613 
Q 991 1019 1311 708 
Q 1631 397 2203 397 
Q 2534 397 2845 478 
Q 3156 559 3463 722 
L 3463 178 
Q 3153 47 2828 -22 
Q 2503 -91 2169 -91 
Q 1331 -91 842 396 
Q 353 884 353 1716 
Q 353 2575 817 3079 
Q 1281 3584 2069 3584 
Q 2775 3584 3186 3129 
Q 3597 2675 3597 1894 
z
M 3022 2063 
Q 3016 2534 2758 2815 
Q 2500 3097 2075 3097 
Q 1594 3097 1305 2825 
Q 1016 2553 972 2059 
L 3022 2063 
z
" transform="scale(0.015625)"/>
      <path id="DejaVuSans-20" transform="scale(0.015625)"/>
      <path id="DejaVuSans-70" d="M 1159 525 
L 1159 -1331 
L 581 -1331 
L 581 3500 
L 1159 3500 
L 1159 2969 
Q 1341 3281 1617 3432 
Q 1894 3584 2278 3584 
Q 2916 3584 3314 3078 
Q 3713 2572 3713 1747 
Q 3713 922 3314 415 
Q 2916 -91 2278 -91 
Q 1894 -91 1617 61 
Q 1341 213 1159 525 
z
M 3116 1747 
Q 3116 2381 2855 2742 
Q 2594 3103 2138 3103 
Q 1681 3103 1420 2742 
Q 1159 2381 1159 1747 
Q 1159 1113 1420 752 
Q 1681 391 2138 391 
Q 2594 391 2855 752 
Q 3116 1113 3116 1747 
z
" transform="scale(0.015625)"/>
      <path id="DejaVuSans-6f" d="M 1959 3097 
Q 1497 3097 1228 2736 
Q 959 2375 959 1747 
Q 959 1119 1226 758 
Q 1494 397 1959 397 
Q 2419 397 2687 759 
Q 2956 1122 2956 1747 
Q 2956 2369 2687 2733 
Q 2419 3097 1959 3097 
z
M 1959 3584 
Q 2709 3584 3137 3096 
Q 3566 2609 3566 1747 
Q 3566 888 3137 398 
Q 2709 -91 1959 -91 
Q 1206 -91 779 398 
Q 353 888 353 1747 
Q 353 2609 779 3096 
Q 1206 3584 1959 3584 
z
" transform="scale(0.015625)"/>
      <path id="DejaVuSans-63" d="M 3122 3366 
L 3122 2828 
Q 2878 2963 2633 3030 
Q 2388 3097 2138 3097 
Q 1578 3097 1268 2742 
Q 959 2388 959 1747 
Q 959 1106 1268 751 
Q 1578 397 2138 397 
Q 2388 397 2633 464 
Q 2878 531 3122 666 
L 3122 134 
Q 2881 22 2623 -34 
Q 2366 -91 2075 -91 
Q 1284 -91 818 406 
Q 353 903 353 1747 
Q 353 2603 823 3093 
Q 1294 3584 2113 3584 
Q 2378 3584 2631 3529 
Q 2884 3475 3122 3366 
z
" transform="scale(0.015625)"/>
      <path id="DejaVuSans-79" d="M 2059 -325 
Q 1816 -950 1584 -1140 
Q 1353 -1331 966 -1331 
L 506 -1331 
L 506 -850 
L 844 -850 
Q 1081 -850 1212 -737 
Q 1344 -625 1503 -206 
L 1606 56 
L 191 3500 
L 800 3500 
L 1894 763 
L 2988 3500 
L 3597 3500 
L 2059 -325 
z
" transform="scale(0.015625)"/>
      <path id="DejaVuSans-72" d="M 2631 2963 
Q 2534 3019 2420 3045 
Q 2306 3072 2169 3072 
Q 1681 3072 1420 2755 
Q 1159 2438 1159 1844 
L 1159 0 
L 581 0 
L 581 3500 
L 1159 3500 
L 1159 2956 
Q 1341 3275 1631 3429 
Q 1922 3584 2338 3584 
Q 2397 3584 2469 3576 
Q 2541 3569 2628 3553 
L 2631 2963 
z
" transform="scale(0.015625)"/>
      <path id="DejaVuSans-73" d="M 2834 3397 
L 2834 2853 
Q 2591 2978 2328 3040 
Q 2066 3103 1784 3103 
Q 1356 3103 1142 2972 
Q 928 2841 928 2578 
Q 928 2378 1081 2264 
Q 1234 2150 1697 2047 
L 1894 2003 
Q 2506 1872 2764 1633 
Q 3022 1394 3022 966 
Q 3022 478 2636 193 
Q 2250 -91 1575 -91 
Q 1294 -91 989 -36 
Q 684 19 347 128 
L 347 722 
Q 666 556 975 473 
Q 1284 391 1588 391 
Q 1994 391 2212 530 
Q 2431 669 2431 922 
Q 2431 1156 2273 1281 
Q 2116 1406 1581 1522 
L 1381 1569 
Q 847 1681 609 1914 
Q 372 2147 372 2553 
Q 372 3047 722 3315 
Q 1072 3584 1716 3584 
Q 2034 3584 2315 3537 
Q 2597 3491 2834 3397 
z
" transform="scale(0.015625)"/>
      <path id="DejaVuSans-61" d="M 2194 1759 
Q 1497 1759 1228 1600 
Q 959 1441 959 1056 
Q 959 750 1161 570 
Q 1363 391 1709 391 
Q 2188 391 2477 730 
Q 2766 1069 2766 1631 
L 2766 1759 
L 2194 1759 
z
M 3341 1997 
L 3341 0 
L 2766 0 
L 2766 531 
Q 2569 213 2275 61 
Q 1981 -91 1556 -91 
Q 1019 -91 701 211 
Q 384 513 384 1019 
Q 384 1609 779 1909 
Q 1175 2209 1959 2209 
L 2766 2209 
L 2766 2266 
Q 2766 2663 2505 2880 
Q 2244 3097 1772 3097 
Q 1472 3097 1187 3025 
Q 903 2953 641 2809 
L 641 3341 
Q 956 3463 1253 3523 
Q 1550 3584 1831 3584 
Q 2591 3584 2966 3190 
Q 3341 2797 3341 1997 
z
" transform="scale(0.015625)"/>
      <path id="DejaVuSans-74" d="M 1172 4494 
L 1172 3500 
L 2356 3500 
L 2356 3053 
L 1172 3053 
L 1172 1153 
Q 1172 725 1289 603 
Q 1406 481 1766 481 
L 2356 481 
L 2356 0 
L 1766 0 
Q 1100 0 847 248 
Q 594 497 594 1153 
L 594 3053 
L 172 3053 
L 172 3500 
L 594 3500 
L 594 4494 
L 1172 4494 
z
" transform="scale(0.015625)"/>
      <path id="DejaVuSans-3b" d="M 750 3309 
L 1409 3309 
L 1409 2516 
L 750 2516 
L 750 3309 
z
M 750 794 
L 1409 794 
L 1409 256 
L 897 -744 
L 494 -744 
L 750 256 
L 750 794 
z
" transform="scale(0.015625)"/>
      <path id="DejaVuSans-44" d="M 1259 4147 
L 1259 519 
L 2022 519 
Q 2988 519 3436 956 
Q 3884 1394 3884 2338 
Q 3884 3275 3436 3711 
Q 2988 4147 2022 4147 
L 1259 4147 
z
M 628 4666 
L 1925 4666 
Q 3281 4666 3915 4102 
Q 4550 3538 4550 2338 
Q 4550 1131 3912 565 
Q 3275 0 1925 0 
L 628 0 
L 628 4666 
z
" transform="scale(0.015625)"/>
      <path id="DejaVuSans-6b" d="M 581 4863 
L 1159 4863 
L 1159 1991 
L 2875 3500 
L 3609 3500 
L 1753 1863 
L 3688 0 
L 2938 0 
L 1159 1709 
L 1159 0 
L 581 0 
L 581 4863 
z
" transform="scale(0.015625)"/>
      <path id="DejaVuSans-64" d="M 2906 2969 
L 2906 4863 
L 3481 4863 
L 3481 0 
L 2906 0 
L 2906 525 
Q 2725 213 2448 61 
Q 2172 -91 1784 -91 
Q 1150 -91 751 415 
Q 353 922 353 1747 
Q 353 2572 751 3078 
Q 1150 3584 1784 3584 
Q 2172 3584 2448 3432 
Q 2725 3281 2906 2969 
z
M 947 1747 
Q 947 1113 1208 752 
Q 1469 391 1925 391 
Q 2381 391 2643 752 
Q 2906 1113 2906 1747 
Q 2906 2381 2643 2742 
Q 2381 3103 1925 3103 
Q 1469 3103 1208 2742 
Q 947 2381 947 1747 
z
" transform="scale(0.015625)"/>
      <path id="DejaVuSans-68" d="M 3513 2113 
L 3513 0 
L 2938 0 
L 2938 2094 
Q 2938 2591 2744 2837 
Q 2550 3084 2163 3084 
Q 1697 3084 1428 2787 
Q 1159 2491 1159 1978 
L 1159 0 
L 581 0 
L 581 4863 
L 1159 4863 
L 1159 2956 
Q 1366 3272 1645 3428 
Q 1925 3584 2291 3584 
Q 2894 3584 3203 3211 
Q 3513 2838 3513 2113 
z
" transform="scale(0.015625)"/>
      <path id="DejaVuSans-77" d="M 269 3500 
L 844 3500 
L 1563 769 
L 2278 3500 
L 2956 3500 
L 3675 769 
L 4391 3500 
L 4966 3500 
L 4050 0 
L 3372 0 
L 2619 2869 
L 1863 0 
L 1184 0 
L 269 3500 
z
" transform="scale(0.015625)"/>
      <path id="DejaVuSans-6d" d="M 3328 2828 
Q 3544 3216 3844 3400 
Q 4144 3584 4550 3584 
Q 5097 3584 5394 3201 
Q 5691 2819 5691 2113 
L 5691 0 
L 5113 0 
L 5113 2094 
Q 5113 2597 4934 2840 
Q 4756 3084 4391 3084 
Q 3944 3084 3684 2787 
Q 3425 2491 3425 1978 
L 3425 0 
L 2847 0 
L 2847 2094 
Q 2847 2600 2669 2842 
Q 2491 3084 2119 3084 
Q 1678 3084 1418 2786 
Q 1159 2488 1159 1978 
L 1159 0 
L 581 0 
L 581 3500 
L 1159 3500 
L 1159 2956 
Q 1356 3278 1631 3431 
Q 1906 3584 2284 3584 
Q 2666 3584 2933 3390 
Q 3200 3197 3328 2828 
z
" transform="scale(0.015625)"/>
      <path id="DejaVuSans-75" d="M 544 1381 
L 544 3500 
L 1119 3500 
L 1119 1403 
Q 1119 906 1312 657 
Q 1506 409 1894 409 
Q 2359 409 2629 706 
Q 2900 1003 2900 1516 
L 2900 3500 
L 3475 3500 
L 3475 0 
L 2900 0 
L 2900 538 
Q 2691 219 2414 64 
Q 2138 -91 1772 -91 
Q 1169 -91 856 284 
Q 544 659 544 1381 
z
M 1991 3584 
L 1991 3584 
z
" transform="scale(0.015625)"/>
      <path id="DejaVuSans-2d" d="M 313 2009 
L 1997 2009 
L 1997 1497 
L 313 1497 
L 313 2009 
z
" transform="scale(0.015625)"/>
      <path id="DejaVuSans-62" d="M 3116 1747 
Q 3116 2381 2855 2742 
Q 2594 3103 2138 3103 
Q 1681 3103 1420 2742 
Q 1159 2381 1159 1747 
Q 1159 1113 1420 752 
Q 1681 391 2138 391 
Q 2594 391 2855 752 
Q 3116 1113 3116 1747 
z
M 1159 2969 
Q 1341 3281 1617 3432 
Q 1894 3584 2278 3584 
Q 2916 3584 3314 3078 
Q 3713 2572 3713 1747 
Q 3713 922 3314 415 
Q 2916 -91 2278 -91 
Q 1894 -91 1617 61 
Q 1341 213 1159 525 
L 1159 0 
L 581 0 
L 581 4863 
L 1159 4863 
L 1159 2969 
z
" transform="scale(0.015625)"/>
      <path id="DejaVuSans-2e" d="M 684 794 
L 1344 794 
L 1344 0 
L 684 0 
L 684 794 
z
" transform="scale(0.015625)"/>
     </defs>
     <use xlink:href="#DejaVuSans-4f"/>
     <use xlink:href="#DejaVuSans-66" x="78.710938"/>
     <use xlink:href="#DejaVuSans-66" x="113.916016"/>
     <use xlink:href="#DejaVuSans-6c" x="149.121094"/>
     <use xlink:href="#DejaVuSans-69" x="176.904297"/>
     <use xlink:href="#DejaVuSans-6e" x="204.6875"/>
     <use xlink:href="#DejaVuSans-65" x="268.066406"/>
     <use xlink:href="#DejaVuSans-20" x="329.589844"/>
     <use xlink:href="#DejaVuSans-70" x="361.376953"/>
     <use xlink:href="#DejaVuSans-6f" x="424.853516"/>
     <use xlink:href="#DejaVuSans-6c" x="486.035156"/>
     <use xlink:href="#DejaVuSans-69" x="513.818359"/>
     <use xlink:href="#DejaVuSans-63" x="541.601562"/>
     <use xlink:href="#DejaVuSans-79" x="596.582031"/>
     <use xlink:href="#DejaVuSans-20" x="655.761719"/>
     <use xlink:href="#DejaVuSans-70" x="687.548828"/>
     <use xlink:href="#DejaVuSans-72" x="751.025391"/>
     <use xlink:href="#DejaVuSans-6f" x="789.888672"/>
     <use xlink:href="#DejaVuSans-70" x="851.070312"/>
     <use xlink:href="#DejaVuSans-6f" x="914.546875"/>
     <use xlink:href="#DejaVuSans-73" x="975.728516"/>
     <use xlink:href="#DejaVuSans-65" x="1027.828125"/>
     <use xlink:href="#DejaVuSans-73" x="1089.351562"/>
     <use xlink:href="#DejaVuSans-20" x="1141.451172"/>
     <use xlink:href="#DejaVuSans-61" x="1173.238281"/>
     <use xlink:href="#DejaVuSans-6e" x="1234.517578"/>
     <use xlink:href="#DejaVuSans-20" x="1297.896484"/>
     <use xlink:href="#DejaVuSans-61" x="1329.683594"/>
     <use xlink:href="#DejaVuSans-63" x="1390.962891"/>
     <use xlink:href="#DejaVuSans-74" x="1445.943359"/>
     <use xlink:href="#DejaVuSans-69" x="1485.152344"/>
     <use xlink:href="#DejaVuSans-6f" x="1512.935547"/>
     <use xlink:href="#DejaVuSans-6e" x="1574.117188"/>
     <use xlink:href="#DejaVuSans-3b" x="1637.496094"/>
     <use xlink:href="#DejaVuSans-20" x="1671.1875"/>
     <use xlink:href="#DejaVuSans-4f" x="1702.974609"/>
     <use xlink:href="#DejaVuSans-4f" x="1781.685547"/>
     <use xlink:href="#DejaVuSans-44" x="1860.396484"/>
     <use xlink:href="#DejaVuSans-20" x="1937.398438"/>
     <use xlink:href="#DejaVuSans-72" x="1969.185547"/>
     <use xlink:href="#DejaVuSans-69" x="2010.298828"/>
     <use xlink:href="#DejaVuSans-73" x="2038.082031"/>
     <use xlink:href="#DejaVuSans-6b" x="2090.181641"/>
     <use xlink:href="#DejaVuSans-20" x="2148.091797"/>
     <use xlink:href="#DejaVuSans-64" x="2179.878906"/>
     <use xlink:href="#DejaVuSans-65" x="2243.355469"/>
     <use xlink:href="#DejaVuSans-63" x="2304.878906"/>
     <use xlink:href="#DejaVuSans-69" x="2359.859375"/>
     <use xlink:href="#DejaVuSans-64" x="2387.642578"/>
     <use xlink:href="#DejaVuSans-65" x="2451.119141"/>
     <use xlink:href="#DejaVuSans-73" x="2512.642578"/>
     <use xlink:href="#DejaVuSans-20" x="2564.742188"/>
     <use xlink:href="#DejaVuSans-68" x="2596.529297"/>
     <use xlink:href="#DejaVuSans-6f" x="2659.908203"/>
     <use xlink:href="#DejaVuSans-77" x="2721.089844"/>
     <use xlink:href="#DejaVuSans-20" x="2802.876953"/>
     <use xlink:href="#DejaVuSans-6d" x="2834.664062"/>
     <use xlink:href="#DejaVuSans-75" x="2932.076172"/>
     <use xlink:href="#DejaVuSans-63" x="2995.455078"/>
     <use xlink:href="#DejaVuSans-68" x="3050.435547"/>
     <use xlink:href="#DejaVuSans-20" x="3113.814453"/>
     <use xlink:href="#DejaVuSans-70" x="3145.601562"/>
     <use xlink:href="#DejaVuSans-68" x="3209.078125"/>
     <use xlink:href="#DejaVuSans-79" x="3272.457031"/>
     <use xlink:href="#DejaVuSans-73" x="3331.636719"/>
     <use xlink:href="#DejaVuSans-69" x="3383.736328"/>
     <use xlink:href="#DejaVuSans-63" x="3411.519531"/>
     <use xlink:href="#DejaVuSans-73" x="3466.5"/>
     <use xlink:href="#DejaVuSans-2d" x="3518.599609"/>
     <use xlink:href="#DejaVuSans-62" x="3554.683594"/>
     <use xlink:href="#DejaVuSans-61" x="3618.160156"/>
     <use xlink:href="#DejaVuSans-73" x="3679.439453"/>
     <use xlink:href="#DejaVuSans-65" x="3731.539062"/>
     <use xlink:href="#DejaVuSans-64" x="3793.0625"/>
     <use xlink:href="#DejaVuSans-20" x="3856.539062"/>
     <use xlink:href="#DejaVuSans-63" x="3888.326172"/>
     <use xlink:href="#DejaVuSans-6f" x="3943.306641"/>
     <use xlink:href="#DejaVuSans-72" x="4004.488281"/>
     <use xlink:href="#DejaVuSans-72" x="4043.851562"/>
     <use xlink:href="#DejaVuSans-65" x="4082.714844"/>
     <use xlink:href="#DejaVuSans-63" x="4144.238281"/>
     <use xlink:href="#DejaVuSans-74" x="4199.21875"/>
     <use xlink:href="#DejaVuSans-69" x="4238.427734"/>
     <use xlink:href="#DejaVuSans-6f" x="4266.210938"/>
     <use xlink:href="#DejaVuSans-6e" x="4327.392578"/>
     <use xlink:href="#DejaVuSans-20" x="4390.771484"/>
     <use xlink:href="#DejaVuSans-69" x="4422.558594"/>
     <use xlink:href="#DejaVuSans-73" x="4450.341797"/>
     <use xlink:href="#DejaVuSans-20" x="4502.441406"/>
     <use xlink:href="#DejaVuSans-6e" x="4534.228516"/>
     <use xlink:href="#DejaVuSans-65" x="4597.607422"/>
     <use xlink:href="#DejaVuSans-65" x="4659.130859"/>
     <use xlink:href="#DejaVuSans-64" x="4720.654297"/>
     <use xlink:href="#DejaVuSans-65" x="4784.130859"/>
     <use xlink:href="#DejaVuSans-64" x="4845.654297"/>
     <use xlink:href="#DejaVuSans-2e" x="4909.130859"/>
    </g>
   </g>
   <g id="text_3">
    <!-- Public data -->
    <g transform="translate(44.842425 75.987232) scale(0.08 -0.08)">
     <defs>
      <path id="DejaVuSans-50" d="M 1259 4147 
L 1259 2394 
L 2053 2394 
Q 2494 2394 2734 2622 
Q 2975 2850 2975 3272 
Q 2975 3691 2734 3919 
Q 2494 4147 2053 4147 
L 1259 4147 
z
M 628 4666 
L 2053 4666 
Q 2838 4666 3239 4311 
Q 3641 3956 3641 3272 
Q 3641 2581 3239 2228 
Q 2838 1875 2053 1875 
L 1259 1875 
L 1259 0 
L 628 0 
L 628 4666 
z
" transform="scale(0.015625)"/>
     </defs>
     <use xlink:href="#DejaVuSans-50"/>
     <use xlink:href="#DejaVuSans-75" x="58.552734"/>
     <use xlink:href="#DejaVuSans-62" x="121.931641"/>
     <use xlink:href="#DejaVuSans-6c" x="185.408203"/>
     <use xlink:href="#DejaVuSans-69" x="213.191406"/>
     <use xlink:href="#DejaVuSans-63" x="240.974609"/>
     <use xlink:href="#DejaVuSans-20" x="295.955078"/>
     <use xlink:href="#DejaVuSans-64" x="327.742188"/>
     <use xlink:href="#DejaVuSans-61" x="391.21875"/>
     <use xlink:href="#DejaVuSans-74" x="452.498047"/>
     <use xlink:href="#DejaVuSans-61" x="491.707031"/>
    </g>
    <!-- OPSD + When2Heat -->
    <g transform="translate(26.367425 85.24942) scale(0.08 -0.08)">
     <defs>
      <path id="DejaVuSans-53" d="M 3425 4513 
L 3425 3897 
Q 3066 4069 2747 4153 
Q 2428 4238 2131 4238 
Q 1616 4238 1336 4038 
Q 1056 3838 1056 3469 
Q 1056 3159 1242 3001 
Q 1428 2844 1947 2747 
L 2328 2669 
Q 3034 2534 3370 2195 
Q 3706 1856 3706 1288 
Q 3706 609 3251 259 
Q 2797 -91 1919 -91 
Q 1588 -91 1214 -16 
Q 841 59 441 206 
L 441 856 
Q 825 641 1194 531 
Q 1563 422 1919 422 
Q 2459 422 2753 634 
Q 3047 847 3047 1241 
Q 3047 1584 2836 1778 
Q 2625 1972 2144 2069 
L 1759 2144 
Q 1053 2284 737 2584 
Q 422 2884 422 3419 
Q 422 4038 858 4394 
Q 1294 4750 2059 4750 
Q 2388 4750 2728 4690 
Q 3069 4631 3425 4513 
z
" transform="scale(0.015625)"/>
      <path id="DejaVuSans-2b" d="M 2944 4013 
L 2944 2272 
L 4684 2272 
L 4684 1741 
L 2944 1741 
L 2944 0 
L 2419 0 
L 2419 1741 
L 678 1741 
L 678 2272 
L 2419 2272 
L 2419 4013 
L 2944 4013 
z
" transform="scale(0.015625)"/>
      <path id="DejaVuSans-57" d="M 213 4666 
L 850 4666 
L 1831 722 
L 2809 4666 
L 3519 4666 
L 4500 722 
L 5478 4666 
L 6119 4666 
L 4947 0 
L 4153 0 
L 3169 4050 
L 2175 0 
L 1381 0 
L 213 4666 
z
" transform="scale(0.015625)"/>
      <path id="DejaVuSans-32" d="M 1228 531 
L 3431 531 
L 3431 0 
L 469 0 
L 469 531 
Q 828 903 1448 1529 
Q 2069 2156 2228 2338 
Q 2531 2678 2651 2914 
Q 2772 3150 2772 3378 
Q 2772 3750 2511 3984 
Q 2250 4219 1831 4219 
Q 1534 4219 1204 4116 
Q 875 4013 500 3803 
L 500 4441 
Q 881 4594 1212 4672 
Q 1544 4750 1819 4750 
Q 2544 4750 2975 4387 
Q 3406 4025 3406 3419 
Q 3406 3131 3298 2873 
Q 3191 2616 2906 2266 
Q 2828 2175 2409 1742 
Q 1991 1309 1228 531 
z
" transform="scale(0.015625)"/>
      <path id="DejaVuSans-48" d="M 628 4666 
L 1259 4666 
L 1259 2753 
L 3553 2753 
L 3553 4666 
L 4184 4666 
L 4184 0 
L 3553 0 
L 3553 2222 
L 1259 2222 
L 1259 0 
L 628 0 
L 628 4666 
z
" transform="scale(0.015625)"/>
     </defs>
     <use xlink:href="#DejaVuSans-4f"/>
     <use xlink:href="#DejaVuSans-50" x="78.710938"/>
     <use xlink:href="#DejaVuSans-53" x="139.013672"/>
     <use xlink:href="#DejaVuSans-44" x="202.490234"/>
     <use xlink:href="#DejaVuSans-20" x="279.492188"/>
     <use xlink:href="#DejaVuSans-2b" x="311.279297"/>
     <use xlink:href="#DejaVuSans-20" x="395.068359"/>
     <use xlink:href="#DejaVuSans-57" x="426.855469"/>
     <use xlink:href="#DejaVuSans-68" x="525.732422"/>
     <use xlink:href="#DejaVuSans-65" x="589.111328"/>
     <use xlink:href="#DejaVuSans-6e" x="650.634766"/>
     <use xlink:href="#DejaVuSans-32" x="714.013672"/>
     <use xlink:href="#DejaVuSans-48" x="777.636719"/>
     <use xlink:href="#DejaVuSans-65" x="852.832031"/>
     <use xlink:href="#DejaVuSans-61" x="914.355469"/>
     <use xlink:href="#DejaVuSans-74" x="975.634766"/>
    </g>
    <!-- weather -->
    <g transform="translate(50.5693 94.511607) scale(0.08 -0.08)">
     <use xlink:href="#DejaVuSans-77"/>
     <use xlink:href="#DejaVuSans-65" x="81.787109"/>
     <use xlink:href="#DejaVuSans-61" x="143.310547"/>
     <use xlink:href="#DejaVuSans-74" x="204.589844"/>
     <use xlink:href="#DejaVuSans-68" x="243.798828"/>
     <use xlink:href="#DejaVuSans-65" x="307.177734"/>
     <use xlink:href="#DejaVuSans-72" x="368.701172"/>
    </g>
   </g>
   <g id="text_4">
    <!-- Aggregate RIES -->
    <g transform="translate(152.491475 75.987232) scale(0.08 -0.08)">
     <defs>
      <path id="DejaVuSans-41" d="M 2188 4044 
L 1331 1722 
L 3047 1722 
L 2188 4044 
z
M 1831 4666 
L 2547 4666 
L 4325 0 
L 3669 0 
L 3244 1197 
L 1141 1197 
L 716 0 
L 50 0 
L 1831 4666 
z
" transform="scale(0.015625)"/>
      <path id="DejaVuSans-67" d="M 2906 1791 
Q 2906 2416 2648 2759 
Q 2391 3103 1925 3103 
Q 1463 3103 1205 2759 
Q 947 2416 947 1791 
Q 947 1169 1205 825 
Q 1463 481 1925 481 
Q 2391 481 2648 825 
Q 2906 1169 2906 1791 
z
M 3481 434 
Q 3481 -459 3084 -895 
Q 2688 -1331 1869 -1331 
Q 1566 -1331 1297 -1286 
Q 1028 -1241 775 -1147 
L 775 -588 
Q 1028 -725 1275 -790 
Q 1522 -856 1778 -856 
Q 2344 -856 2625 -561 
Q 2906 -266 2906 331 
L 2906 616 
Q 2728 306 2450 153 
Q 2172 0 1784 0 
Q 1141 0 747 490 
Q 353 981 353 1791 
Q 353 2603 747 3093 
Q 1141 3584 1784 3584 
Q 2172 3584 2450 3431 
Q 2728 3278 2906 2969 
L 2906 3500 
L 3481 3500 
L 3481 434 
z
" transform="scale(0.015625)"/>
      <path id="DejaVuSans-52" d="M 2841 2188 
Q 3044 2119 3236 1894 
Q 3428 1669 3622 1275 
L 4263 0 
L 3584 0 
L 2988 1197 
Q 2756 1666 2539 1819 
Q 2322 1972 1947 1972 
L 1259 1972 
L 1259 0 
L 628 0 
L 628 4666 
L 2053 4666 
Q 2853 4666 3247 4331 
Q 3641 3997 3641 3322 
Q 3641 2881 3436 2590 
Q 3231 2300 2841 2188 
z
M 1259 4147 
L 1259 2491 
L 2053 2491 
Q 2509 2491 2742 2702 
Q 2975 2913 2975 3322 
Q 2975 3731 2742 3939 
Q 2509 4147 2053 4147 
L 1259 4147 
z
" transform="scale(0.015625)"/>
      <path id="DejaVuSans-49" d="M 628 4666 
L 1259 4666 
L 1259 0 
L 628 0 
L 628 4666 
z
" transform="scale(0.015625)"/>
      <path id="DejaVuSans-45" d="M 628 4666 
L 3578 4666 
L 3578 4134 
L 1259 4134 
L 1259 2753 
L 3481 2753 
L 3481 2222 
L 1259 2222 
L 1259 531 
L 3634 531 
L 3634 0 
L 628 0 
L 628 4666 
z
" transform="scale(0.015625)"/>
     </defs>
     <use xlink:href="#DejaVuSans-41"/>
     <use xlink:href="#DejaVuSans-67" x="68.408203"/>
     <use xlink:href="#DejaVuSans-67" x="131.884766"/>
     <use xlink:href="#DejaVuSans-72" x="195.361328"/>
     <use xlink:href="#DejaVuSans-65" x="234.224609"/>
     <use xlink:href="#DejaVuSans-67" x="295.748047"/>
     <use xlink:href="#DejaVuSans-61" x="359.224609"/>
     <use xlink:href="#DejaVuSans-74" x="420.503906"/>
     <use xlink:href="#DejaVuSans-65" x="459.712891"/>
     <use xlink:href="#DejaVuSans-20" x="521.236328"/>
     <use xlink:href="#DejaVuSans-52" x="553.023438"/>
     <use xlink:href="#DejaVuSans-49" x="622.505859"/>
     <use xlink:href="#DejaVuSans-45" x="651.998047"/>
     <use xlink:href="#DejaVuSans-53" x="715.181641"/>
    </g>
    <!-- simulator -->
    <g transform="translate(164.79085 85.24942) scale(0.08 -0.08)">
     <use xlink:href="#DejaVuSans-73"/>
     <use xlink:href="#DejaVuSans-69" x="52.099609"/>
     <use xlink:href="#DejaVuSans-6d" x="79.882812"/>
     <use xlink:href="#DejaVuSans-75" x="177.294922"/>
     <use xlink:href="#DejaVuSans-6c" x="240.673828"/>
     <use xlink:href="#DejaVuSans-61" x="268.457031"/>
     <use xlink:href="#DejaVuSans-74" x="329.736328"/>
     <use xlink:href="#DejaVuSans-6f" x="368.945312"/>
     <use xlink:href="#DejaVuSans-72" x="430.126953"/>
    </g>
    <!-- balances + storage -->
    <g transform="translate(144.7171 94.511607) scale(0.08 -0.08)">
     <use xlink:href="#DejaVuSans-62"/>
     <use xlink:href="#DejaVuSans-61" x="63.476562"/>
     <use xlink:href="#DejaVuSans-6c" x="124.755859"/>
     <use xlink:href="#DejaVuSans-61" x="152.539062"/>
     <use xlink:href="#DejaVuSans-6e" x="213.818359"/>
     <use xlink:href="#DejaVuSans-63" x="277.197266"/>
     <use xlink:href="#DejaVuSans-65" x="332.177734"/>
     <use xlink:href="#DejaVuSans-73" x="393.701172"/>
     <use xlink:href="#DejaVuSans-20" x="445.800781"/>
     <use xlink:href="#DejaVuSans-2b" x="477.587891"/>
     <use xlink:href="#DejaVuSans-20" x="561.376953"/>
     <use xlink:href="#DejaVuSans-73" x="593.164062"/>
     <use xlink:href="#DejaVuSans-74" x="645.263672"/>
     <use xlink:href="#DejaVuSans-6f" x="684.472656"/>
     <use xlink:href="#DejaVuSans-72" x="745.654297"/>
     <use xlink:href="#DejaVuSans-61" x="786.767578"/>
     <use xlink:href="#DejaVuSans-67" x="848.046875"/>
     <use xlink:href="#DejaVuSans-65" x="911.523438"/>
    </g>
   </g>
   <g id="text_5">
    <!-- Offline datasets -->
    <g transform="translate(274.347125 75.987232) scale(0.08 -0.08)">
     <use xlink:href="#DejaVuSans-4f"/>
     <use xlink:href="#DejaVuSans-66" x="78.710938"/>
     <use xlink:href="#DejaVuSans-66" x="113.916016"/>
     <use xlink:href="#DejaVuSans-6c" x="149.121094"/>
     <use xlink:href="#DejaVuSans-69" x="176.904297"/>
     <use xlink:href="#DejaVuSans-6e" x="204.6875"/>
     <use xlink:href="#DejaVuSans-65" x="268.066406"/>
     <use xlink:href="#DejaVuSans-20" x="329.589844"/>
     <use xlink:href="#DejaVuSans-64" x="361.376953"/>
     <use xlink:href="#DejaVuSans-61" x="424.853516"/>
     <use xlink:href="#DejaVuSans-74" x="486.132812"/>
     <use xlink:href="#DejaVuSans-61" x="525.341797"/>
     <use xlink:href="#DejaVuSans-73" x="586.621094"/>
     <use xlink:href="#DejaVuSans-65" x="638.720703"/>
     <use xlink:href="#DejaVuSans-74" x="700.244141"/>
     <use xlink:href="#DejaVuSans-73" x="739.453125"/>
    </g>
    <!-- expert / mixed / poor -->
    <g transform="translate(263.92775 85.24942) scale(0.08 -0.08)">
     <defs>
      <path id="DejaVuSans-78" d="M 3513 3500 
L 2247 1797 
L 3578 0 
L 2900 0 
L 1881 1375 
L 863 0 
L 184 0 
L 1544 1831 
L 300 3500 
L 978 3500 
L 1906 2253 
L 2834 3500 
L 3513 3500 
z
" transform="scale(0.015625)"/>
      <path id="DejaVuSans-2f" d="M 1625 4666 
L 2156 4666 
L 531 -594 
L 0 -594 
L 1625 4666 
z
" transform="scale(0.015625)"/>
     </defs>
     <use xlink:href="#DejaVuSans-65"/>
     <use xlink:href="#DejaVuSans-78" x="59.773438"/>
     <use xlink:href="#DejaVuSans-70" x="118.953125"/>
     <use xlink:href="#DejaVuSans-65" x="182.429688"/>
     <use xlink:href="#DejaVuSans-72" x="243.953125"/>
     <use xlink:href="#DejaVuSans-74" x="285.066406"/>
     <use xlink:href="#DejaVuSans-20" x="324.275391"/>
     <use xlink:href="#DejaVuSans-2f" x="356.0625"/>
     <use xlink:href="#DejaVuSans-20" x="389.753906"/>
     <use xlink:href="#DejaVuSans-6d" x="421.541016"/>
     <use xlink:href="#DejaVuSans-69" x="518.953125"/>
     <use xlink:href="#DejaVuSans-78" x="546.736328"/>
     <use xlink:href="#DejaVuSans-65" x="602.791016"/>
     <use xlink:href="#DejaVuSans-64" x="664.314453"/>
     <use xlink:href="#DejaVuSans-20" x="727.791016"/>
     <use xlink:href="#DejaVuSans-2f" x="759.578125"/>
     <use xlink:href="#DejaVuSans-20" x="793.269531"/>
     <use xlink:href="#DejaVuSans-70" x="825.056641"/>
     <use xlink:href="#DejaVuSans-6f" x="888.533203"/>
     <use xlink:href="#DejaVuSans-6f" x="949.714844"/>
     <use xlink:href="#DejaVuSans-72" x="1010.896484"/>
    </g>
    <!-- fixed trajectories -->
    <g transform="translate(272.223375 94.511607) scale(0.08 -0.08)">
     <defs>
      <path id="DejaVuSans-6a" d="M 603 3500 
L 1178 3500 
L 1178 -63 
Q 1178 -731 923 -1031 
Q 669 -1331 103 -1331 
L -116 -1331 
L -116 -844 
L 38 -844 
Q 366 -844 484 -692 
Q 603 -541 603 -63 
L 603 3500 
z
M 603 4863 
L 1178 4863 
L 1178 4134 
L 603 4134 
L 603 4863 
z
" transform="scale(0.015625)"/>
     </defs>
     <use xlink:href="#DejaVuSans-66"/>
     <use xlink:href="#DejaVuSans-69" x="35.205078"/>
     <use xlink:href="#DejaVuSans-78" x="62.988281"/>
     <use xlink:href="#DejaVuSans-65" x="119.042969"/>
     <use xlink:href="#DejaVuSans-64" x="180.566406"/>
     <use xlink:href="#DejaVuSans-20" x="244.042969"/>
     <use xlink:href="#DejaVuSans-74" x="275.830078"/>
     <use xlink:href="#DejaVuSans-72" x="315.039062"/>
     <use xlink:href="#DejaVuSans-61" x="356.152344"/>
     <use xlink:href="#DejaVuSans-6a" x="417.431641"/>
     <use xlink:href="#DejaVuSans-65" x="445.214844"/>
     <use xlink:href="#DejaVuSans-63" x="506.738281"/>
     <use xlink:href="#DejaVuSans-74" x="561.71875"/>
     <use xlink:href="#DejaVuSans-6f" x="600.927734"/>
     <use xlink:href="#DejaVuSans-72" x="662.109375"/>
     <use xlink:href="#DejaVuSans-69" x="703.222656"/>
     <use xlink:href="#DejaVuSans-65" x="731.005859"/>
     <use xlink:href="#DejaVuSans-73" x="792.529297"/>
    </g>
   </g>
   <g id="text_6">
    <!-- Offline policy -->
    <g transform="translate(407.83875 75.987232) scale(0.08 -0.08)">
     <use xlink:href="#DejaVuSans-4f"/>
     <use xlink:href="#DejaVuSans-66" x="78.710938"/>
     <use xlink:href="#DejaVuSans-66" x="113.916016"/>
     <use xlink:href="#DejaVuSans-6c" x="149.121094"/>
     <use xlink:href="#DejaVuSans-69" x="176.904297"/>
     <use xlink:href="#DejaVuSans-6e" x="204.6875"/>
     <use xlink:href="#DejaVuSans-65" x="268.066406"/>
     <use xlink:href="#DejaVuSans-20" x="329.589844"/>
     <use xlink:href="#DejaVuSans-70" x="361.376953"/>
     <use xlink:href="#DejaVuSans-6f" x="424.853516"/>
     <use xlink:href="#DejaVuSans-6c" x="486.035156"/>
     <use xlink:href="#DejaVuSans-69" x="513.818359"/>
     <use xlink:href="#DejaVuSans-63" x="541.601562"/>
     <use xlink:href="#DejaVuSans-79" x="596.582031"/>
    </g>
    <!-- BC / TD3+BC -->
    <g transform="translate(407.825 85.24942) scale(0.08 -0.08)">
     <defs>
      <path id="DejaVuSans-42" d="M 1259 2228 
L 1259 519 
L 2272 519 
Q 2781 519 3026 730 
Q 3272 941 3272 1375 
Q 3272 1813 3026 2020 
Q 2781 2228 2272 2228 
L 1259 2228 
z
M 1259 4147 
L 1259 2741 
L 2194 2741 
Q 2656 2741 2882 2914 
Q 3109 3088 3109 3444 
Q 3109 3797 2882 3972 
Q 2656 4147 2194 4147 
L 1259 4147 
z
M 628 4666 
L 2241 4666 
Q 2963 4666 3353 4366 
Q 3744 4066 3744 3513 
Q 3744 3084 3544 2831 
Q 3344 2578 2956 2516 
Q 3422 2416 3680 2098 
Q 3938 1781 3938 1306 
Q 3938 681 3513 340 
Q 3088 0 2303 0 
L 628 0 
L 628 4666 
z
" transform="scale(0.015625)"/>
      <path id="DejaVuSans-43" d="M 4122 4306 
L 4122 3641 
Q 3803 3938 3442 4084 
Q 3081 4231 2675 4231 
Q 1875 4231 1450 3742 
Q 1025 3253 1025 2328 
Q 1025 1406 1450 917 
Q 1875 428 2675 428 
Q 3081 428 3442 575 
Q 3803 722 4122 1019 
L 4122 359 
Q 3791 134 3420 21 
Q 3050 -91 2638 -91 
Q 1578 -91 968 557 
Q 359 1206 359 2328 
Q 359 3453 968 4101 
Q 1578 4750 2638 4750 
Q 3056 4750 3426 4639 
Q 3797 4528 4122 4306 
z
" transform="scale(0.015625)"/>
      <path id="DejaVuSans-54" d="M -19 4666 
L 3928 4666 
L 3928 4134 
L 2272 4134 
L 2272 0 
L 1638 0 
L 1638 4134 
L -19 4134 
L -19 4666 
z
" transform="scale(0.015625)"/>
      <path id="DejaVuSans-33" d="M 2597 2516 
Q 3050 2419 3304 2112 
Q 3559 1806 3559 1356 
Q 3559 666 3084 287 
Q 2609 -91 1734 -91 
Q 1441 -91 1130 -33 
Q 819 25 488 141 
L 488 750 
Q 750 597 1062 519 
Q 1375 441 1716 441 
Q 2309 441 2620 675 
Q 2931 909 2931 1356 
Q 2931 1769 2642 2001 
Q 2353 2234 1838 2234 
L 1294 2234 
L 1294 2753 
L 1863 2753 
Q 2328 2753 2575 2939 
Q 2822 3125 2822 3475 
Q 2822 3834 2567 4026 
Q 2313 4219 1838 4219 
Q 1578 4219 1281 4162 
Q 984 4106 628 3988 
L 628 4550 
Q 988 4650 1302 4700 
Q 1616 4750 1894 4750 
Q 2613 4750 3031 4423 
Q 3450 4097 3450 3541 
Q 3450 3153 3228 2886 
Q 3006 2619 2597 2516 
z
" transform="scale(0.015625)"/>
     </defs>
     <use xlink:href="#DejaVuSans-42"/>
     <use xlink:href="#DejaVuSans-43" x="66.853516"/>
     <use xlink:href="#DejaVuSans-20" x="136.677734"/>
     <use xlink:href="#DejaVuSans-2f" x="168.464844"/>
     <use xlink:href="#DejaVuSans-20" x="202.15625"/>
     <use xlink:href="#DejaVuSans-54" x="233.943359"/>
     <use xlink:href="#DejaVuSans-44" x="295.027344"/>
     <use xlink:href="#DejaVuSans-33" x="372.029297"/>
     <use xlink:href="#DejaVuSans-2b" x="435.652344"/>
     <use xlink:href="#DejaVuSans-42" x="519.441406"/>
     <use xlink:href="#DejaVuSans-43" x="586.294922"/>
    </g>
    <!-- CQL / IQL -->
    <g transform="translate(415.451875 94.511607) scale(0.08 -0.08)">
     <defs>
      <path id="DejaVuSans-51" d="M 2522 4238 
Q 1834 4238 1429 3725 
Q 1025 3213 1025 2328 
Q 1025 1447 1429 934 
Q 1834 422 2522 422 
Q 3209 422 3611 934 
Q 4013 1447 4013 2328 
Q 4013 3213 3611 3725 
Q 3209 4238 2522 4238 
z
M 3406 84 
L 4238 -825 
L 3475 -825 
L 2784 -78 
Q 2681 -84 2626 -87 
Q 2572 -91 2522 -91 
Q 1538 -91 948 567 
Q 359 1225 359 2328 
Q 359 3434 948 4092 
Q 1538 4750 2522 4750 
Q 3503 4750 4090 4092 
Q 4678 3434 4678 2328 
Q 4678 1516 4351 937 
Q 4025 359 3406 84 
z
" transform="scale(0.015625)"/>
      <path id="DejaVuSans-4c" d="M 628 4666 
L 1259 4666 
L 1259 531 
L 3531 531 
L 3531 0 
L 628 0 
L 628 4666 
z
" transform="scale(0.015625)"/>
     </defs>
     <use xlink:href="#DejaVuSans-43"/>
     <use xlink:href="#DejaVuSans-51" x="69.824219"/>
     <use xlink:href="#DejaVuSans-4c" x="148.535156"/>
     <use xlink:href="#DejaVuSans-20" x="204.248047"/>
     <use xlink:href="#DejaVuSans-2f" x="236.035156"/>
     <use xlink:href="#DejaVuSans-20" x="269.726562"/>
     <use xlink:href="#DejaVuSans-49" x="301.513672"/>
     <use xlink:href="#DejaVuSans-51" x="331.005859"/>
     <use xlink:href="#DejaVuSans-4c" x="409.716797"/>
    </g>
   </g>
   <g id="text_7">
    <!-- Shifted deployment -->
    <g transform="translate(41.900175 159.729352) scale(0.08 -0.08)">
     <use xlink:href="#DejaVuSans-53"/>
     <use xlink:href="#DejaVuSans-68" x="63.476562"/>
     <use xlink:href="#DejaVuSans-69" x="126.855469"/>
     <use xlink:href="#DejaVuSans-66" x="154.638672"/>
     <use xlink:href="#DejaVuSans-74" x="188.09375"/>
     <use xlink:href="#DejaVuSans-65" x="227.302734"/>
     <use xlink:href="#DejaVuSans-64" x="288.826172"/>
     <use xlink:href="#DejaVuSans-20" x="352.302734"/>
     <use xlink:href="#DejaVuSans-64" x="384.089844"/>
     <use xlink:href="#DejaVuSans-65" x="447.566406"/>
     <use xlink:href="#DejaVuSans-70" x="509.089844"/>
     <use xlink:href="#DejaVuSans-6c" x="572.566406"/>
     <use xlink:href="#DejaVuSans-6f" x="600.349609"/>
     <use xlink:href="#DejaVuSans-79" x="661.53125"/>
     <use xlink:href="#DejaVuSans-6d" x="720.710938"/>
     <use xlink:href="#DejaVuSans-65" x="818.123047"/>
     <use xlink:href="#DejaVuSans-6e" x="879.646484"/>
     <use xlink:href="#DejaVuSans-74" x="943.025391"/>
    </g>
    <!-- load, cold wave, -->
    <g transform="translate(48.707675 168.99154) scale(0.08 -0.08)">
     <defs>
      <path id="DejaVuSans-2c" d="M 750 794 
L 1409 794 
L 1409 256 
L 897 -744 
L 494 -744 
L 750 256 
L 750 794 
z
" transform="scale(0.015625)"/>
      <path id="DejaVuSans-76" d="M 191 3500 
L 800 3500 
L 1894 563 
L 2988 3500 
L 3597 3500 
L 2284 0 
L 1503 0 
L 191 3500 
z
" transform="scale(0.015625)"/>
     </defs>
     <use xlink:href="#DejaVuSans-6c"/>
     <use xlink:href="#DejaVuSans-6f" x="27.783203"/>
     <use xlink:href="#DejaVuSans-61" x="88.964844"/>
     <use xlink:href="#DejaVuSans-64" x="150.244141"/>
     <use xlink:href="#DejaVuSans-2c" x="213.720703"/>
     <use xlink:href="#DejaVuSans-20" x="245.507812"/>
     <use xlink:href="#DejaVuSans-63" x="277.294922"/>
     <use xlink:href="#DejaVuSans-6f" x="332.275391"/>
     <use xlink:href="#DejaVuSans-6c" x="393.457031"/>
     <use xlink:href="#DejaVuSans-64" x="421.240234"/>
     <use xlink:href="#DejaVuSans-20" x="484.716797"/>
     <use xlink:href="#DejaVuSans-77" x="516.503906"/>
     <use xlink:href="#DejaVuSans-61" x="598.291016"/>
     <use xlink:href="#DejaVuSans-76" x="659.570312"/>
     <use xlink:href="#DejaVuSans-65" x="718.75"/>
     <use xlink:href="#DejaVuSans-2c" x="780.273438"/>
    </g>
    <!-- renewables, faults -->
    <g transform="translate(44.5608 178.253727) scale(0.08 -0.08)">
     <use xlink:href="#DejaVuSans-72"/>
     <use xlink:href="#DejaVuSans-65" x="38.863281"/>
     <use xlink:href="#DejaVuSans-6e" x="100.386719"/>
     <use xlink:href="#DejaVuSans-65" x="163.765625"/>
     <use xlink:href="#DejaVuSans-77" x="225.289062"/>
     <use xlink:href="#DejaVuSans-61" x="307.076172"/>
     <use xlink:href="#DejaVuSans-62" x="368.355469"/>
     <use xlink:href="#DejaVuSans-6c" x="431.832031"/>
     <use xlink:href="#DejaVuSans-65" x="459.615234"/>
     <use xlink:href="#DejaVuSans-73" x="521.138672"/>
     <use xlink:href="#DejaVuSans-2c" x="573.238281"/>
     <use xlink:href="#DejaVuSans-20" x="605.025391"/>
     <use xlink:href="#DejaVuSans-66" x="636.8125"/>
     <use xlink:href="#DejaVuSans-61" x="672.017578"/>
     <use xlink:href="#DejaVuSans-75" x="733.296875"/>
     <use xlink:href="#DejaVuSans-6c" x="796.675781"/>
     <use xlink:href="#DejaVuSans-74" x="824.458984"/>
     <use xlink:href="#DejaVuSans-73" x="863.667969"/>
    </g>
   </g>
   <g id="text_8">
    <!-- State $s_t$ -->
    <g transform="translate(202.6292 159.729352) scale(0.08 -0.08)">
     <defs>
      <path id="DejaVuSans-Oblique-73" d="M 3200 3397 
L 3091 2853 
Q 2863 2978 2609 3040 
Q 2356 3103 2088 3103 
Q 1634 3103 1373 2948 
Q 1113 2794 1113 2528 
Q 1113 2219 1719 2053 
Q 1766 2041 1788 2034 
L 1972 1978 
Q 2547 1819 2739 1644 
Q 2931 1469 2931 1166 
Q 2931 609 2489 259 
Q 2047 -91 1331 -91 
Q 1053 -91 747 -37 
Q 441 16 72 128 
L 184 722 
Q 500 559 806 475 
Q 1113 391 1394 391 
Q 1816 391 2080 572 
Q 2344 753 2344 1031 
Q 2344 1331 1650 1516 
L 1591 1531 
L 1394 1581 
Q 956 1697 753 1886 
Q 550 2075 550 2369 
Q 550 2928 970 3256 
Q 1391 3584 2113 3584 
Q 2397 3584 2667 3537 
Q 2938 3491 3200 3397 
z
" transform="scale(0.015625)"/>
      <path id="DejaVuSans-Oblique-74" d="M 2706 3500 
L 2619 3053 
L 1472 3053 
L 1100 1153 
Q 1081 1047 1072 975 
Q 1063 903 1063 863 
Q 1063 663 1183 572 
Q 1303 481 1569 481 
L 2150 481 
L 2053 0 
L 1503 0 
Q 991 0 739 200 
Q 488 400 488 806 
Q 488 878 497 964 
Q 506 1050 525 1153 
L 897 3053 
L 409 3053 
L 500 3500 
L 978 3500 
L 1172 4494 
L 1747 4494 
L 1556 3500 
L 2706 3500 
z
" transform="scale(0.015625)"/>
     </defs>
     <use xlink:href="#DejaVuSans-53" transform="translate(0 0.78125)"/>
     <use xlink:href="#DejaVuSans-74" transform="translate(63.476562 0.78125)"/>
     <use xlink:href="#DejaVuSans-61" transform="translate(102.685547 0.78125)"/>
     <use xlink:href="#DejaVuSans-74" transform="translate(163.964844 0.78125)"/>
     <use xlink:href="#DejaVuSans-65" transform="translate(203.173828 0.78125)"/>
     <use xlink:href="#DejaVuSans-20" transform="translate(264.697266 0.78125)"/>
     <use xlink:href="#DejaVuSans-Oblique-73" transform="translate(296.484375 0.78125)"/>
     <use xlink:href="#DejaVuSans-Oblique-74" transform="translate(348.583984 -15.625) scale(0.7)"/>
    </g>
    <!-- SOC, load, COP, -->
    <g transform="translate(186.048575 168.99154) scale(0.08 -0.08)">
     <use xlink:href="#DejaVuSans-53"/>
     <use xlink:href="#DejaVuSans-4f" x="63.476562"/>
     <use xlink:href="#DejaVuSans-43" x="142.1875"/>
     <use xlink:href="#DejaVuSans-2c" x="212.011719"/>
     <use xlink:href="#DejaVuSans-20" x="243.798828"/>
     <use xlink:href="#DejaVuSans-6c" x="275.585938"/>
     <use xlink:href="#DejaVuSans-6f" x="303.369141"/>
     <use xlink:href="#DejaVuSans-61" x="364.550781"/>
     <use xlink:href="#DejaVuSans-64" x="425.830078"/>
     <use xlink:href="#DejaVuSans-2c" x="489.306641"/>
     <use xlink:href="#DejaVuSans-20" x="521.09375"/>
     <use xlink:href="#DejaVuSans-43" x="552.880859"/>
     <use xlink:href="#DejaVuSans-4f" x="622.705078"/>
     <use xlink:href="#DejaVuSans-50" x="701.416016"/>
     <use xlink:href="#DejaVuSans-2c" x="761.71875"/>
    </g>
    <!-- time, price signal -->
    <g transform="translate(183.151075 178.253727) scale(0.08 -0.08)">
     <use xlink:href="#DejaVuSans-74"/>
     <use xlink:href="#DejaVuSans-69" x="39.208984"/>
     <use xlink:href="#DejaVuSans-6d" x="66.992188"/>
     <use xlink:href="#DejaVuSans-65" x="164.404297"/>
     <use xlink:href="#DejaVuSans-2c" x="225.927734"/>
     <use xlink:href="#DejaVuSans-20" x="257.714844"/>
     <use xlink:href="#DejaVuSans-70" x="289.501953"/>
     <use xlink:href="#DejaVuSans-72" x="352.978516"/>
     <use xlink:href="#DejaVuSans-69" x="394.091797"/>
     <use xlink:href="#DejaVuSans-63" x="421.875"/>
     <use xlink:href="#DejaVuSans-65" x="476.855469"/>
     <use xlink:href="#DejaVuSans-20" x="538.378906"/>
     <use xlink:href="#DejaVuSans-73" x="570.166016"/>
     <use xlink:href="#DejaVuSans-69" x="622.265625"/>
     <use xlink:href="#DejaVuSans-67" x="650.048828"/>
     <use xlink:href="#DejaVuSans-6e" x="713.525391"/>
     <use xlink:href="#DejaVuSans-61" x="776.904297"/>
     <use xlink:href="#DejaVuSans-6c" x="838.183594"/>
    </g>
   </g>
   <g id="text_9">
    <!-- Raw action -->
    <g transform="translate(321.008775 164.360446) scale(0.08 -0.08)">
     <use xlink:href="#DejaVuSans-52"/>
     <use xlink:href="#DejaVuSans-61" x="67.232422"/>
     <use xlink:href="#DejaVuSans-77" x="128.511719"/>
     <use xlink:href="#DejaVuSans-20" x="210.298828"/>
     <use xlink:href="#DejaVuSans-61" x="242.085938"/>
     <use xlink:href="#DejaVuSans-63" x="303.365234"/>
     <use xlink:href="#DejaVuSans-74" x="358.345703"/>
     <use xlink:href="#DejaVuSans-69" x="397.554688"/>
     <use xlink:href="#DejaVuSans-6f" x="425.337891"/>
     <use xlink:href="#DejaVuSans-6e" x="486.519531"/>
    </g>
    <!-- $a_t$ -->
    <g transform="translate(339.3244 173.622634) scale(0.08 -0.08)">
     <defs>
      <path id="DejaVuSans-Oblique-61" d="M 3438 1997 
L 3047 0 
L 2472 0 
L 2578 531 
Q 2325 219 2001 64 
Q 1678 -91 1281 -91 
Q 834 -91 548 182 
Q 263 456 263 884 
Q 263 1497 752 1853 
Q 1241 2209 2100 2209 
L 2900 2209 
L 2931 2363 
Q 2938 2388 2941 2417 
Q 2944 2447 2944 2509 
Q 2944 2788 2717 2942 
Q 2491 3097 2081 3097 
Q 1800 3097 1504 3025 
Q 1209 2953 897 2809 
L 997 3341 
Q 1322 3463 1633 3523 
Q 1944 3584 2234 3584 
Q 2853 3584 3176 3315 
Q 3500 3047 3500 2534 
Q 3500 2431 3484 2292 
Q 3469 2153 3438 1997 
z
M 2816 1759 
L 2241 1759 
Q 1534 1759 1195 1570 
Q 856 1381 856 984 
Q 856 709 1029 553 
Q 1203 397 1509 397 
Q 1978 397 2328 733 
Q 2678 1069 2791 1631 
L 2816 1759 
z
" transform="scale(0.015625)"/>
     </defs>
     <use xlink:href="#DejaVuSans-Oblique-61"/>
     <use xlink:href="#DejaVuSans-Oblique-74" transform="translate(61.279297 -16.40625) scale(0.7)"/>
    </g>
   </g>
   <g id="text_10">
    <!-- Safe action -->
    <g transform="translate(457.15905 158.640446) scale(0.08 -0.08)">
     <use xlink:href="#DejaVuSans-53"/>
     <use xlink:href="#DejaVuSans-61" x="63.476562"/>
     <use xlink:href="#DejaVuSans-66" x="124.755859"/>
     <use xlink:href="#DejaVuSans-65" x="159.960938"/>
     <use xlink:href="#DejaVuSans-20" x="221.484375"/>
     <use xlink:href="#DejaVuSans-61" x="253.271484"/>
     <use xlink:href="#DejaVuSans-63" x="314.550781"/>
     <use xlink:href="#DejaVuSans-74" x="369.53125"/>
     <use xlink:href="#DejaVuSans-69" x="408.740234"/>
     <use xlink:href="#DejaVuSans-6f" x="436.523438"/>
     <use xlink:href="#DejaVuSans-6e" x="497.705078"/>
    </g>
    <!-- $a_t^{safe}$ -->
    <g transform="translate(470.9628 169.504196) scale(0.08 -0.08)">
     <defs>
      <path id="DejaVuSans-Oblique-66" d="M 3059 4863 
L 2969 4384 
L 2419 4384 
Q 2106 4384 1964 4261 
Q 1822 4138 1753 3809 
L 1691 3500 
L 2638 3500 
L 2553 3053 
L 1606 3053 
L 1013 0 
L 434 0 
L 1031 3053 
L 481 3053 
L 563 3500 
L 1113 3500 
L 1159 3744 
Q 1278 4363 1576 4613 
Q 1875 4863 2516 4863 
L 3059 4863 
z
" transform="scale(0.015625)"/>
      <path id="DejaVuSans-Oblique-65" d="M 3078 2063 
Q 3088 2113 3092 2166 
Q 3097 2219 3097 2272 
Q 3097 2653 2873 2875 
Q 2650 3097 2266 3097 
Q 1838 3097 1509 2826 
Q 1181 2556 1013 2059 
L 3078 2063 
z
M 3578 1613 
L 903 1613 
Q 884 1494 878 1425 
Q 872 1356 872 1306 
Q 872 872 1139 634 
Q 1406 397 1894 397 
Q 2269 397 2603 481 
Q 2938 566 3225 728 
L 3116 159 
Q 2806 34 2476 -28 
Q 2147 -91 1806 -91 
Q 1078 -91 686 257 
Q 294 606 294 1247 
Q 294 1794 489 2264 
Q 684 2734 1063 3103 
Q 1306 3334 1642 3459 
Q 1978 3584 2356 3584 
Q 2950 3584 3301 3228 
Q 3653 2872 3653 2272 
Q 3653 2128 3634 1964 
Q 3616 1800 3578 1613 
z
" transform="scale(0.015625)"/>
     </defs>
     <use xlink:href="#DejaVuSans-Oblique-61" transform="translate(0 0.529687)"/>
     <use xlink:href="#DejaVuSans-Oblique-73" transform="translate(65.929193 38.810938) scale(0.7)"/>
     <use xlink:href="#DejaVuSans-Oblique-61" transform="translate(102.398919 38.810938) scale(0.7)"/>
     <use xlink:href="#DejaVuSans-Oblique-66" transform="translate(145.294427 38.810938) scale(0.7)"/>
     <use xlink:href="#DejaVuSans-Oblique-65" transform="translate(169.937982 38.810938) scale(0.7)"/>
     <use xlink:href="#DejaVuSans-Oblique-74" transform="translate(61.279297 -26.814063) scale(0.7)"/>
    </g>
    <!-- physical dispatch -->
    <g transform="translate(444.9053 179.342634) scale(0.08 -0.08)">
     <use xlink:href="#DejaVuSans-70"/>
     <use xlink:href="#DejaVuSans-68" x="63.476562"/>
     <use xlink:href="#DejaVuSans-79" x="126.855469"/>
     <use xlink:href="#DejaVuSans-73" x="186.035156"/>
     <use xlink:href="#DejaVuSans-69" x="238.134766"/>
     <use xlink:href="#DejaVuSans-63" x="265.917969"/>
     <use xlink:href="#DejaVuSans-61" x="320.898438"/>
     <use xlink:href="#DejaVuSans-6c" x="382.177734"/>
     <use xlink:href="#DejaVuSans-20" x="409.960938"/>
     <use xlink:href="#DejaVuSans-64" x="441.748047"/>
     <use xlink:href="#DejaVuSans-69" x="505.224609"/>
     <use xlink:href="#DejaVuSans-73" x="533.007812"/>
     <use xlink:href="#DejaVuSans-70" x="585.107422"/>
     <use xlink:href="#DejaVuSans-61" x="648.583984"/>
     <use xlink:href="#DejaVuSans-74" x="709.863281"/>
     <use xlink:href="#DejaVuSans-63" x="749.072266"/>
     <use xlink:href="#DejaVuSans-68" x="804.052734"/>
    </g>
   </g>
   <g id="text_11">
    <!-- Dynamics ensemble -->
    <g transform="translate(182.9358 238.731352) scale(0.08 -0.08)">
     <use xlink:href="#DejaVuSans-44"/>
     <use xlink:href="#DejaVuSans-79" x="77.001953"/>
     <use xlink:href="#DejaVuSans-6e" x="136.181641"/>
     <use xlink:href="#DejaVuSans-61" x="199.560547"/>
     <use xlink:href="#DejaVuSans-6d" x="260.839844"/>
     <use xlink:href="#DejaVuSans-69" x="358.251953"/>
     <use xlink:href="#DejaVuSans-63" x="386.035156"/>
     <use xlink:href="#DejaVuSans-73" x="441.015625"/>
     <use xlink:href="#DejaVuSans-20" x="493.115234"/>
     <use xlink:href="#DejaVuSans-65" x="524.902344"/>
     <use xlink:href="#DejaVuSans-6e" x="586.425781"/>
     <use xlink:href="#DejaVuSans-73" x="649.804688"/>
     <use xlink:href="#DejaVuSans-65" x="701.904297"/>
     <use xlink:href="#DejaVuSans-6d" x="763.427734"/>
     <use xlink:href="#DejaVuSans-62" x="860.839844"/>
     <use xlink:href="#DejaVuSans-6c" x="924.316406"/>
     <use xlink:href="#DejaVuSans-65" x="952.099609"/>
    </g>
    <!-- OOD risk $R_{OOD}$ -->
    <g transform="translate(194.9208 247.99354) scale(0.08 -0.08)">
     <defs>
      <path id="DejaVuSans-Oblique-52" d="M 1613 4147 
L 1294 2491 
L 2106 2491 
Q 2584 2491 2879 2755 
Q 3175 3019 3175 3444 
Q 3175 3784 2976 3965 
Q 2778 4147 2406 4147 
L 1613 4147 
z
M 2772 2241 
Q 2972 2194 3105 2009 
Q 3238 1825 3413 1275 
L 3809 0 
L 3144 0 
L 2778 1197 
Q 2638 1659 2453 1815 
Q 2269 1972 1888 1972 
L 1191 1972 
L 806 0 
L 172 0 
L 1081 4666 
L 2503 4666 
Q 3150 4666 3495 4373 
Q 3841 4081 3841 3531 
Q 3841 3044 3547 2687 
Q 3253 2331 2772 2241 
z
" transform="scale(0.015625)"/>
      <path id="DejaVuSans-Oblique-4f" d="M 2919 4238 
Q 2400 4238 2003 3986 
Q 1606 3734 1313 3219 
Q 1125 2891 1026 2522 
Q 928 2153 928 1778 
Q 928 1128 1239 775 
Q 1550 422 2119 422 
Q 2631 422 3032 676 
Q 3434 931 3719 1434 
Q 3909 1772 4009 2142 
Q 4109 2513 4109 2881 
Q 4109 3528 3796 3883 
Q 3484 4238 2919 4238 
z
M 2100 -91 
Q 1241 -91 748 418 
Q 256 928 256 1813 
Q 256 2319 448 2847 
Q 641 3375 978 3788 
Q 1375 4272 1862 4511 
Q 2350 4750 2938 4750 
Q 3794 4750 4287 4245 
Q 4781 3741 4781 2869 
Q 4781 2331 4593 1812 
Q 4406 1294 4056 872 
Q 3656 384 3173 146 
Q 2691 -91 2100 -91 
z
" transform="scale(0.015625)"/>
      <path id="DejaVuSans-Oblique-44" d="M 1081 4666 
L 2438 4666 
Q 3519 4666 4070 4208 
Q 4622 3750 4622 2847 
Q 4622 2250 4412 1698 
Q 4203 1147 3834 769 
Q 3463 381 2891 190 
Q 2319 0 1538 0 
L 172 0 
L 1081 4666 
z
M 1613 4147 
L 909 519 
L 1734 519 
Q 2794 519 3375 1128 
Q 3956 1738 3956 2847 
Q 3956 3519 3581 3833 
Q 3206 4147 2406 4147 
L 1613 4147 
z
" transform="scale(0.015625)"/>
     </defs>
     <use xlink:href="#DejaVuSans-4f" transform="translate(0 0.015625)"/>
     <use xlink:href="#DejaVuSans-4f" transform="translate(78.710938 0.015625)"/>
     <use xlink:href="#DejaVuSans-44" transform="translate(157.421875 0.015625)"/>
     <use xlink:href="#DejaVuSans-20" transform="translate(234.423828 0.015625)"/>
     <use xlink:href="#DejaVuSans-72" transform="translate(266.210938 0.015625)"/>
     <use xlink:href="#DejaVuSans-69" transform="translate(307.324219 0.015625)"/>
     <use xlink:href="#DejaVuSans-73" transform="translate(335.107422 0.015625)"/>
     <use xlink:href="#DejaVuSans-6b" transform="translate(387.207031 0.015625)"/>
     <use xlink:href="#DejaVuSans-20" transform="translate(445.117188 0.015625)"/>
     <use xlink:href="#DejaVuSans-Oblique-52" transform="translate(476.904297 0.015625)"/>
     <use xlink:href="#DejaVuSans-Oblique-4f" transform="translate(546.386719 -16.390625) scale(0.7)"/>
     <use xlink:href="#DejaVuSans-Oblique-4f" transform="translate(601.484375 -16.390625) scale(0.7)"/>
     <use xlink:href="#DejaVuSans-Oblique-44" transform="translate(656.582031 -16.390625) scale(0.7)"/>
    </g>
    <!-- disagreement + error -->
    <g transform="translate(180.24205 257.255727) scale(0.08 -0.08)">
     <use xlink:href="#DejaVuSans-64"/>
     <use xlink:href="#DejaVuSans-69" x="63.476562"/>
     <use xlink:href="#DejaVuSans-73" x="91.259766"/>
     <use xlink:href="#DejaVuSans-61" x="143.359375"/>
     <use xlink:href="#DejaVuSans-67" x="204.638672"/>
     <use xlink:href="#DejaVuSans-72" x="268.115234"/>
     <use xlink:href="#DejaVuSans-65" x="306.978516"/>
     <use xlink:href="#DejaVuSans-65" x="368.501953"/>
     <use xlink:href="#DejaVuSans-6d" x="430.025391"/>
     <use xlink:href="#DejaVuSans-65" x="527.4375"/>
     <use xlink:href="#DejaVuSans-6e" x="588.960938"/>
     <use xlink:href="#DejaVuSans-74" x="652.339844"/>
     <use xlink:href="#DejaVuSans-20" x="691.548828"/>
     <use xlink:href="#DejaVuSans-2b" x="723.335938"/>
     <use xlink:href="#DejaVuSans-20" x="807.125"/>
     <use xlink:href="#DejaVuSans-65" x="838.912109"/>
     <use xlink:href="#DejaVuSans-72" x="900.435547"/>
     <use xlink:href="#DejaVuSans-72" x="939.798828"/>
     <use xlink:href="#DejaVuSans-6f" x="978.662109"/>
     <use xlink:href="#DejaVuSans-72" x="1039.84375"/>
    </g>
   </g>
   <g id="text_12">
    <!-- Adaptive gate -->
    <g transform="translate(332.083575 238.722446) scale(0.08 -0.08)">
     <use xlink:href="#DejaVuSans-41"/>
     <use xlink:href="#DejaVuSans-64" x="66.658203"/>
     <use xlink:href="#DejaVuSans-61" x="130.134766"/>
     <use xlink:href="#DejaVuSans-70" x="191.414062"/>
     <use xlink:href="#DejaVuSans-74" x="254.890625"/>
     <use xlink:href="#DejaVuSans-69" x="294.099609"/>
     <use xlink:href="#DejaVuSans-76" x="321.882812"/>
     <use xlink:href="#DejaVuSans-65" x="381.0625"/>
     <use xlink:href="#DejaVuSans-20" x="442.585938"/>
     <use xlink:href="#DejaVuSans-67" x="474.373047"/>
     <use xlink:href="#DejaVuSans-61" x="537.849609"/>
     <use xlink:href="#DejaVuSans-74" x="599.128906"/>
     <use xlink:href="#DejaVuSans-65" x="638.337891"/>
    </g>
    <!-- risk weight $\rho$ -->
    <g transform="translate(334.3192 247.986196) scale(0.08 -0.08)">
     <defs>
      <path id="DejaVuSans-Oblique-3c1" d="M 1203 2875 
Q 1453 3194 1981 3475 
Q 2188 3584 2756 3584 
Q 3394 3584 3694 3078 
Q 3994 2572 3834 1747 
Q 3672 922 3175 415 
Q 2678 -91 2041 -91 
Q 1656 -91 1409 63 
Q 1163 213 1044 525 
L 681 -1331 
L 103 -1331 
L 697 1716 
Q 838 2438 1203 2875 
z
M 3238 1747 
Q 3359 2381 3169 2744 
Q 2978 3103 2522 3103 
Q 2066 3103 1734 2744 
Q 1403 2381 1281 1747 
Q 1156 1113 1347 750 
Q 1538 391 1994 391 
Q 2450 391 2781 750 
Q 3113 1113 3238 1747 
z
" transform="scale(0.015625)"/>
     </defs>
     <use xlink:href="#DejaVuSans-72" transform="translate(0 0.015625)"/>
     <use xlink:href="#DejaVuSans-69" transform="translate(41.113281 0.015625)"/>
     <use xlink:href="#DejaVuSans-73" transform="translate(68.896484 0.015625)"/>
     <use xlink:href="#DejaVuSans-6b" transform="translate(120.996094 0.015625)"/>
     <use xlink:href="#DejaVuSans-20" transform="translate(178.90625 0.015625)"/>
     <use xlink:href="#DejaVuSans-77" transform="translate(210.693359 0.015625)"/>
     <use xlink:href="#DejaVuSans-65" transform="translate(292.480469 0.015625)"/>
     <use xlink:href="#DejaVuSans-69" transform="translate(354.003906 0.015625)"/>
     <use xlink:href="#DejaVuSans-67" transform="translate(381.787109 0.015625)"/>
     <use xlink:href="#DejaVuSans-68" transform="translate(445.263672 0.015625)"/>
     <use xlink:href="#DejaVuSans-74" transform="translate(508.642578 0.015625)"/>
     <use xlink:href="#DejaVuSans-20" transform="translate(547.851562 0.015625)"/>
     <use xlink:href="#DejaVuSans-Oblique-3c1" transform="translate(579.638672 0.015625)"/>
    </g>
    <!-- pass / blend / project -->
    <g transform="translate(318.073575 257.264634) scale(0.08 -0.08)">
     <use xlink:href="#DejaVuSans-70"/>
     <use xlink:href="#DejaVuSans-61" x="63.476562"/>
     <use xlink:href="#DejaVuSans-73" x="124.755859"/>
     <use xlink:href="#DejaVuSans-73" x="176.855469"/>
     <use xlink:href="#DejaVuSans-20" x="228.955078"/>
     <use xlink:href="#DejaVuSans-2f" x="260.742188"/>
     <use xlink:href="#DejaVuSans-20" x="294.433594"/>
     <use xlink:href="#DejaVuSans-62" x="326.220703"/>
     <use xlink:href="#DejaVuSans-6c" x="389.697266"/>
     <use xlink:href="#DejaVuSans-65" x="417.480469"/>
     <use xlink:href="#DejaVuSans-6e" x="479.003906"/>
     <use xlink:href="#DejaVuSans-64" x="542.382812"/>
     <use xlink:href="#DejaVuSans-20" x="605.859375"/>
     <use xlink:href="#DejaVuSans-2f" x="637.646484"/>
     <use xlink:href="#DejaVuSans-20" x="671.337891"/>
     <use xlink:href="#DejaVuSans-70" x="703.125"/>
     <use xlink:href="#DejaVuSans-72" x="766.601562"/>
     <use xlink:href="#DejaVuSans-6f" x="805.464844"/>
     <use xlink:href="#DejaVuSans-6a" x="866.646484"/>
     <use xlink:href="#DejaVuSans-65" x="894.429688"/>
     <use xlink:href="#DejaVuSans-63" x="955.953125"/>
     <use xlink:href="#DejaVuSans-74" x="1010.933594"/>
    </g>
   </g>
   <g id="text_13">
    <!-- Physics projection -->
    <g transform="translate(454.94725 238.731352) scale(0.08 -0.08)">
     <use xlink:href="#DejaVuSans-50"/>
     <use xlink:href="#DejaVuSans-68" x="60.302734"/>
     <use xlink:href="#DejaVuSans-79" x="123.681641"/>
     <use xlink:href="#DejaVuSans-73" x="182.861328"/>
     <use xlink:href="#DejaVuSans-69" x="234.960938"/>
     <use xlink:href="#DejaVuSans-63" x="262.744141"/>
     <use xlink:href="#DejaVuSans-73" x="317.724609"/>
     <use xlink:href="#DejaVuSans-20" x="369.824219"/>
     <use xlink:href="#DejaVuSans-70" x="401.611328"/>
     <use xlink:href="#DejaVuSans-72" x="465.087891"/>
     <use xlink:href="#DejaVuSans-6f" x="503.951172"/>
     <use xlink:href="#DejaVuSans-6a" x="565.132812"/>
     <use xlink:href="#DejaVuSans-65" x="592.916016"/>
     <use xlink:href="#DejaVuSans-63" x="654.439453"/>
     <use xlink:href="#DejaVuSans-74" x="709.419922"/>
     <use xlink:href="#DejaVuSans-69" x="748.628906"/>
     <use xlink:href="#DejaVuSans-6f" x="776.412109"/>
     <use xlink:href="#DejaVuSans-6e" x="837.59375"/>
    </g>
    <!-- min correction to -->
    <g transform="translate(456.78725 247.99354) scale(0.08 -0.08)">
     <use xlink:href="#DejaVuSans-6d"/>
     <use xlink:href="#DejaVuSans-69" x="97.412109"/>
     <use xlink:href="#DejaVuSans-6e" x="125.195312"/>
     <use xlink:href="#DejaVuSans-20" x="188.574219"/>
     <use xlink:href="#DejaVuSans-63" x="220.361328"/>
     <use xlink:href="#DejaVuSans-6f" x="275.341797"/>
     <use xlink:href="#DejaVuSans-72" x="336.523438"/>
     <use xlink:href="#DejaVuSans-72" x="375.886719"/>
     <use xlink:href="#DejaVuSans-65" x="414.75"/>
     <use xlink:href="#DejaVuSans-63" x="476.273438"/>
     <use xlink:href="#DejaVuSans-74" x="531.253906"/>
     <use xlink:href="#DejaVuSans-69" x="570.462891"/>
     <use xlink:href="#DejaVuSans-6f" x="598.246094"/>
     <use xlink:href="#DejaVuSans-6e" x="659.427734"/>
     <use xlink:href="#DejaVuSans-20" x="722.806641"/>
     <use xlink:href="#DejaVuSans-74" x="754.59375"/>
     <use xlink:href="#DejaVuSans-6f" x="793.802734"/>
    </g>
    <!-- feasible set $\mathcal{F}$ -->
    <g transform="translate(464.066 257.255727) scale(0.08 -0.08)">
     <defs>
      <path id="STIXNonUnicode-Italic-e232" d="M 378 3418 
L 275 3533 
Q 730 3955 1174 4096 
Q 1619 4237 2163 4237 
Q 2714 4237 3110 4208 
Q 3507 4179 3849 4099 
Q 4192 4019 4368 3868 
Q 4544 3718 4544 3488 
Q 4544 3270 4429 3123 
Q 4314 2976 4109 2976 
Q 3962 2976 3853 3062 
Q 3744 3149 3744 3277 
Q 3744 3398 3792 3465 
Q 3840 3533 3897 3549 
Q 3955 3565 4000 3593 
Q 4045 3622 4045 3680 
Q 4045 3808 3696 3894 
Q 3347 3981 2893 3981 
Q 2694 3981 2608 3920 
Q 2522 3859 2464 3667 
L 2099 2413 
L 3494 2413 
L 3411 2157 
L 2029 2157 
L 1747 1203 
Q 1626 787 1491 537 
Q 1357 288 1174 173 
Q 992 58 829 29 
Q 666 0 384 0 
L 435 154 
Q 608 154 726 288 
Q 845 422 934 742 
L 1690 3334 
Q 1754 3558 1754 3667 
Q 1754 3776 1690 3827 
Q 1626 3878 1459 3878 
Q 858 3878 378 3418 
z
" transform="scale(0.015625)"/>
     </defs>
     <use xlink:href="#DejaVuSans-66" transform="translate(0 0.015625)"/>
     <use xlink:href="#DejaVuSans-65" transform="translate(35.205078 0.015625)"/>
     <use xlink:href="#DejaVuSans-61" transform="translate(96.728516 0.015625)"/>
     <use xlink:href="#DejaVuSans-73" transform="translate(158.007812 0.015625)"/>
     <use xlink:href="#DejaVuSans-69" transform="translate(210.107422 0.015625)"/>
     <use xlink:href="#DejaVuSans-62" transform="translate(237.890625 0.015625)"/>
     <use xlink:href="#DejaVuSans-6c" transform="translate(301.367188 0.015625)"/>
     <use xlink:href="#DejaVuSans-65" transform="translate(329.150391 0.015625)"/>
     <use xlink:href="#DejaVuSans-20" transform="translate(390.673828 0.015625)"/>
     <use xlink:href="#DejaVuSans-73" transform="translate(422.460938 0.015625)"/>
     <use xlink:href="#DejaVuSans-65" transform="translate(474.560547 0.015625)"/>
     <use xlink:href="#DejaVuSans-74" transform="translate(536.083984 0.015625)"/>
     <use xlink:href="#DejaVuSans-20" transform="translate(575.292969 0.015625)"/>
     <use xlink:href="#STIXNonUnicode-Italic-e232" transform="translate(607.080078 0.015625)"/>
    </g>
   </g>
   <g id="text_14">
    <!-- Evaluation metrics -->
    <g transform="translate(63.258178 284.99343) scale(0.075 -0.075)">
     <use xlink:href="#DejaVuSans-45"/>
     <use xlink:href="#DejaVuSans-76" x="63.183594"/>
     <use xlink:href="#DejaVuSans-61" x="122.363281"/>
     <use xlink:href="#DejaVuSans-6c" x="183.642578"/>
     <use xlink:href="#DejaVuSans-75" x="211.425781"/>
     <use xlink:href="#DejaVuSans-61" x="274.804688"/>
     <use xlink:href="#DejaVuSans-74" x="336.083984"/>
     <use xlink:href="#DejaVuSans-69" x="375.292969"/>
     <use xlink:href="#DejaVuSans-6f" x="403.076172"/>
     <use xlink:href="#DejaVuSans-6e" x="464.257812"/>
     <use xlink:href="#DejaVuSans-20" x="527.636719"/>
     <use xlink:href="#DejaVuSans-6d" x="559.423828"/>
     <use xlink:href="#DejaVuSans-65" x="656.835938"/>
     <use xlink:href="#DejaVuSans-74" x="718.359375"/>
     <use xlink:href="#DejaVuSans-72" x="757.568359"/>
     <use xlink:href="#DejaVuSans-69" x="798.681641"/>
     <use xlink:href="#DejaVuSans-63" x="826.464844"/>
     <use xlink:href="#DejaVuSans-73" x="881.445312"/>
    </g>
    <!-- cost, hard safety, -->
    <g transform="translate(65.618334 293.676731) scale(0.075 -0.075)">
     <use xlink:href="#DejaVuSans-63"/>
     <use xlink:href="#DejaVuSans-6f" x="54.980469"/>
     <use xlink:href="#DejaVuSans-73" x="116.162109"/>
     <use xlink:href="#DejaVuSans-74" x="168.261719"/>
     <use xlink:href="#DejaVuSans-2c" x="207.470703"/>
     <use xlink:href="#DejaVuSans-20" x="239.257812"/>
     <use xlink:href="#DejaVuSans-68" x="271.044922"/>
     <use xlink:href="#DejaVuSans-61" x="334.423828"/>
     <use xlink:href="#DejaVuSans-72" x="395.703125"/>
     <use xlink:href="#DejaVuSans-64" x="435.066406"/>
     <use xlink:href="#DejaVuSans-20" x="498.542969"/>
     <use xlink:href="#DejaVuSans-73" x="530.330078"/>
     <use xlink:href="#DejaVuSans-61" x="582.429688"/>
     <use xlink:href="#DejaVuSans-66" x="643.708984"/>
     <use xlink:href="#DejaVuSans-65" x="678.914062"/>
     <use xlink:href="#DejaVuSans-74" x="740.4375"/>
     <use xlink:href="#DejaVuSans-79" x="779.646484"/>
     <use xlink:href="#DejaVuSans-2c" x="838.826172"/>
    </g>
    <!-- CVaR, time -->
    <g transform="translate(77.613061 302.360032) scale(0.075 -0.075)">
     <defs>
      <path id="DejaVuSans-56" d="M 1831 0 
L 50 4666 
L 709 4666 
L 2188 738 
L 3669 4666 
L 4325 4666 
L 2547 0 
L 1831 0 
z
" transform="scale(0.015625)"/>
     </defs>
     <use xlink:href="#DejaVuSans-43"/>
     <use xlink:href="#DejaVuSans-56" x="69.824219"/>
     <use xlink:href="#DejaVuSans-61" x="130.482422"/>
     <use xlink:href="#DejaVuSans-52" x="191.761719"/>
     <use xlink:href="#DejaVuSans-2c" x="261.244141"/>
     <use xlink:href="#DejaVuSans-20" x="293.03125"/>
     <use xlink:href="#DejaVuSans-74" x="324.818359"/>
     <use xlink:href="#DejaVuSans-69" x="364.027344"/>
     <use xlink:href="#DejaVuSans-6d" x="391.810547"/>
     <use xlink:href="#DejaVuSans-65" x="489.222656"/>
    </g>
   </g>
   <g id="text_15">
    <!-- Mechanism evidence -->
    <g transform="translate(252.281367 284.99343) scale(0.075 -0.075)">
     <defs>
      <path id="DejaVuSans-4d" d="M 628 4666 
L 1569 4666 
L 2759 1491 
L 3956 4666 
L 4897 4666 
L 4897 0 
L 4281 0 
L 4281 4097 
L 3078 897 
L 2444 897 
L 1241 4097 
L 1241 0 
L 628 0 
L 628 4666 
z
" transform="scale(0.015625)"/>
     </defs>
     <use xlink:href="#DejaVuSans-4d"/>
     <use xlink:href="#DejaVuSans-65" x="86.279297"/>
     <use xlink:href="#DejaVuSans-63" x="147.802734"/>
     <use xlink:href="#DejaVuSans-68" x="202.783203"/>
     <use xlink:href="#DejaVuSans-61" x="266.162109"/>
     <use xlink:href="#DejaVuSans-6e" x="327.441406"/>
     <use xlink:href="#DejaVuSans-69" x="390.820312"/>
     <use xlink:href="#DejaVuSans-73" x="418.603516"/>
     <use xlink:href="#DejaVuSans-6d" x="470.703125"/>
     <use xlink:href="#DejaVuSans-20" x="568.115234"/>
     <use xlink:href="#DejaVuSans-65" x="599.902344"/>
     <use xlink:href="#DejaVuSans-76" x="661.425781"/>
     <use xlink:href="#DejaVuSans-69" x="720.605469"/>
     <use xlink:href="#DejaVuSans-64" x="748.388672"/>
     <use xlink:href="#DejaVuSans-65" x="811.865234"/>
     <use xlink:href="#DejaVuSans-6e" x="873.388672"/>
     <use xlink:href="#DejaVuSans-63" x="936.767578"/>
     <use xlink:href="#DejaVuSans-65" x="991.748047"/>
    </g>
    <!-- intervention rate -->
    <g transform="translate(260.146992 293.676731) scale(0.075 -0.075)">
     <use xlink:href="#DejaVuSans-69"/>
     <use xlink:href="#DejaVuSans-6e" x="27.783203"/>
     <use xlink:href="#DejaVuSans-74" x="91.162109"/>
     <use xlink:href="#DejaVuSans-65" x="130.371094"/>
     <use xlink:href="#DejaVuSans-72" x="191.894531"/>
     <use xlink:href="#DejaVuSans-76" x="233.007812"/>
     <use xlink:href="#DejaVuSans-65" x="292.1875"/>
     <use xlink:href="#DejaVuSans-6e" x="353.710938"/>
     <use xlink:href="#DejaVuSans-74" x="417.089844"/>
     <use xlink:href="#DejaVuSans-69" x="456.298828"/>
     <use xlink:href="#DejaVuSans-6f" x="484.082031"/>
     <use xlink:href="#DejaVuSans-6e" x="545.263672"/>
     <use xlink:href="#DejaVuSans-20" x="608.642578"/>
     <use xlink:href="#DejaVuSans-72" x="640.429688"/>
     <use xlink:href="#DejaVuSans-61" x="681.542969"/>
     <use xlink:href="#DejaVuSans-74" x="742.822266"/>
     <use xlink:href="#DejaVuSans-65" x="782.03125"/>
    </g>
    <!-- projection distance -->
    <g transform="translate(255.971602 302.360032) scale(0.075 -0.075)">
     <use xlink:href="#DejaVuSans-70"/>
     <use xlink:href="#DejaVuSans-72" x="63.476562"/>
     <use xlink:href="#DejaVuSans-6f" x="102.339844"/>
     <use xlink:href="#DejaVuSans-6a" x="163.521484"/>
     <use xlink:href="#DejaVuSans-65" x="191.304688"/>
     <use xlink:href="#DejaVuSans-63" x="252.828125"/>
     <use xlink:href="#DejaVuSans-74" x="307.808594"/>
     <use xlink:href="#DejaVuSans-69" x="347.017578"/>
     <use xlink:href="#DejaVuSans-6f" x="374.800781"/>
     <use xlink:href="#DejaVuSans-6e" x="435.982422"/>
     <use xlink:href="#DejaVuSans-20" x="499.361328"/>
     <use xlink:href="#DejaVuSans-64" x="531.148438"/>
     <use xlink:href="#DejaVuSans-69" x="594.625"/>
     <use xlink:href="#DejaVuSans-73" x="622.408203"/>
     <use xlink:href="#DejaVuSans-74" x="674.507812"/>
     <use xlink:href="#DejaVuSans-61" x="713.716797"/>
     <use xlink:href="#DejaVuSans-6e" x="774.996094"/>
     <use xlink:href="#DejaVuSans-63" x="838.375"/>
     <use xlink:href="#DejaVuSans-65" x="893.355469"/>
    </g>
   </g>
   <g id="text_16">
    <!-- Claim boundary -->
    <g transform="translate(449.889909 284.99343) scale(0.075 -0.075)">
     <use xlink:href="#DejaVuSans-43"/>
     <use xlink:href="#DejaVuSans-6c" x="69.824219"/>
     <use xlink:href="#DejaVuSans-61" x="97.607422"/>
     <use xlink:href="#DejaVuSans-69" x="158.886719"/>
     <use xlink:href="#DejaVuSans-6d" x="186.669922"/>
     <use xlink:href="#DejaVuSans-20" x="284.082031"/>
     <use xlink:href="#DejaVuSans-62" x="315.869141"/>
     <use xlink:href="#DejaVuSans-6f" x="379.345703"/>
     <use xlink:href="#DejaVuSans-75" x="440.527344"/>
     <use xlink:href="#DejaVuSans-6e" x="503.90625"/>
     <use xlink:href="#DejaVuSans-64" x="567.285156"/>
     <use xlink:href="#DejaVuSans-61" x="630.761719"/>
     <use xlink:href="#DejaVuSans-72" x="692.041016"/>
     <use xlink:href="#DejaVuSans-79" x="733.154297"/>
    </g>
    <!-- aggregate model -->
    <g transform="translate(447.453581 293.676731) scale(0.075 -0.075)">
     <use xlink:href="#DejaVuSans-61"/>
     <use xlink:href="#DejaVuSans-67" x="61.279297"/>
     <use xlink:href="#DejaVuSans-67" x="124.755859"/>
     <use xlink:href="#DejaVuSans-72" x="188.232422"/>
     <use xlink:href="#DejaVuSans-65" x="227.095703"/>
     <use xlink:href="#DejaVuSans-67" x="288.619141"/>
     <use xlink:href="#DejaVuSans-61" x="352.095703"/>
     <use xlink:href="#DejaVuSans-74" x="413.375"/>
     <use xlink:href="#DejaVuSans-65" x="452.583984"/>
     <use xlink:href="#DejaVuSans-20" x="514.107422"/>
     <use xlink:href="#DejaVuSans-6d" x="545.894531"/>
     <use xlink:href="#DejaVuSans-6f" x="643.306641"/>
     <use xlink:href="#DejaVuSans-64" x="704.488281"/>
     <use xlink:href="#DejaVuSans-65" x="767.964844"/>
     <use xlink:href="#DejaVuSans-6c" x="829.488281"/>
    </g>
    <!-- predefined shifts -->
    <g transform="translate(448.101042 302.360032) scale(0.075 -0.075)">
     <use xlink:href="#DejaVuSans-70"/>
     <use xlink:href="#DejaVuSans-72" x="63.476562"/>
     <use xlink:href="#DejaVuSans-65" x="102.339844"/>
     <use xlink:href="#DejaVuSans-64" x="163.863281"/>
     <use xlink:href="#DejaVuSans-65" x="227.339844"/>
     <use xlink:href="#DejaVuSans-66" x="288.863281"/>
     <use xlink:href="#DejaVuSans-69" x="324.068359"/>
     <use xlink:href="#DejaVuSans-6e" x="351.851562"/>
     <use xlink:href="#DejaVuSans-65" x="415.230469"/>
     <use xlink:href="#DejaVuSans-64" x="476.753906"/>
     <use xlink:href="#DejaVuSans-20" x="540.230469"/>
     <use xlink:href="#DejaVuSans-73" x="572.017578"/>
     <use xlink:href="#DejaVuSans-68" x="624.117188"/>
     <use xlink:href="#DejaVuSans-69" x="687.496094"/>
     <use xlink:href="#DejaVuSans-66" x="715.279297"/>
     <use xlink:href="#DejaVuSans-74" x="748.734375"/>
     <use xlink:href="#DejaVuSans-73" x="787.943359"/>
    </g>
   </g>
   <g id="text_17">
    <!-- offline preparation -->
    <g style="fill: #333333" transform="translate(44.1954 45.78849) scale(0.07 -0.07)">
     <use xlink:href="#DejaVuSans-6f"/>
     <use xlink:href="#DejaVuSans-66" x="61.181641"/>
     <use xlink:href="#DejaVuSans-66" x="96.386719"/>
     <use xlink:href="#DejaVuSans-6c" x="131.591797"/>
     <use xlink:href="#DejaVuSans-69" x="159.375"/>
     <use xlink:href="#DejaVuSans-6e" x="187.158203"/>
     <use xlink:href="#DejaVuSans-65" x="250.537109"/>
     <use xlink:href="#DejaVuSans-20" x="312.060547"/>
     <use xlink:href="#DejaVuSans-70" x="343.847656"/>
     <use xlink:href="#DejaVuSans-72" x="407.324219"/>
     <use xlink:href="#DejaVuSans-65" x="446.1875"/>
     <use xlink:href="#DejaVuSans-70" x="507.710938"/>
     <use xlink:href="#DejaVuSans-61" x="571.1875"/>
     <use xlink:href="#DejaVuSans-72" x="632.466797"/>
     <use xlink:href="#DejaVuSans-61" x="673.580078"/>
     <use xlink:href="#DejaVuSans-74" x="734.859375"/>
     <use xlink:href="#DejaVuSans-69" x="774.068359"/>
     <use xlink:href="#DejaVuSans-6f" x="801.851562"/>
     <use xlink:href="#DejaVuSans-6e" x="863.033203"/>
    </g>
   </g>
   <g id="text_18">
    <!-- deployment -->
    <g style="fill: #333333" transform="translate(140.9526 45.78849) scale(0.07 -0.07)">
     <use xlink:href="#DejaVuSans-64"/>
     <use xlink:href="#DejaVuSans-65" x="63.476562"/>
     <use xlink:href="#DejaVuSans-70" x="125"/>
     <use xlink:href="#DejaVuSans-6c" x="188.476562"/>
     <use xlink:href="#DejaVuSans-6f" x="216.259766"/>
     <use xlink:href="#DejaVuSans-79" x="277.441406"/>
     <use xlink:href="#DejaVuSans-6d" x="336.621094"/>
     <use xlink:href="#DejaVuSans-65" x="434.033203"/>
     <use xlink:href="#DejaVuSans-6e" x="495.556641"/>
     <use xlink:href="#DejaVuSans-74" x="558.935547"/>
    </g>
   </g>
   <g id="text_19">
    <!-- risk and safety -->
    <g style="fill: #333333" transform="translate(214.9434 45.78849) scale(0.07 -0.07)">
     <use xlink:href="#DejaVuSans-72"/>
     <use xlink:href="#DejaVuSans-69" x="41.113281"/>
     <use xlink:href="#DejaVuSans-73" x="68.896484"/>
     <use xlink:href="#DejaVuSans-6b" x="120.996094"/>
     <use xlink:href="#DejaVuSans-20" x="178.90625"/>
     <use xlink:href="#DejaVuSans-61" x="210.693359"/>
     <use xlink:href="#DejaVuSans-6e" x="271.972656"/>
     <use xlink:href="#DejaVuSans-64" x="335.351562"/>
     <use xlink:href="#DejaVuSans-20" x="398.828125"/>
     <use xlink:href="#DejaVuSans-73" x="430.615234"/>
     <use xlink:href="#DejaVuSans-61" x="482.714844"/>
     <use xlink:href="#DejaVuSans-66" x="543.994141"/>
     <use xlink:href="#DejaVuSans-65" x="579.199219"/>
     <use xlink:href="#DejaVuSans-74" x="640.722656"/>
     <use xlink:href="#DejaVuSans-79" x="679.931641"/>
    </g>
   </g>
  </g>
 </g>
 <defs>
  <clipPath id="pc655361133">
   <rect x="7.2" y="7.2" width="569.16" height="316.008"/>
  </clipPath>
 </defs>
</svg>
