<?xml version="1.0" encoding="utf-8" standalone="no"?>
<!DOCTYPE svg PUBLIC "-//W3C//DTD SVG 1.1//EN"
  "http://www.w3.org/Graphics/SVG/1.1/DTD/svg11.dtd">
<svg xmlns:xlink="http://www.w3.org/1999/xlink" width="625.076586pt" height="354.413187pt" viewBox="0 0 625.076586 354.413187" xmlns="http://www.w3.org/2000/svg" version="1.1">
 <metadata>
  <rdf:RDF xmlns:dc="http://purl.org/dc/elements/1.1/" xmlns:cc="http://creativecommons.org/ns#" xmlns:rdf="http://www.w3.org/1999/02/22-rdf-syntax-ns#">
   <cc:Work>
    <dc:type rdf:resource="http://purl.org/dc/dcmitype/StillImage"/>
    <dc:date>2026-07-01T07:48:51.493654</dc:date>
    <dc:format>image/svg+xml</dc:format>
    <dc:creator>
     <cc:Agent>
      <dc:title>Matplotlib v3.7.0, https://matplotlib.org/</dc:title>
     </cc:Agent>
    </dc:creator>
   </cc:Work>
  </rdf:RDF>
 </metadata>
 <defs>
  <style type="text/css">*{stroke-linejoin: round; stroke-linecap: butt}</style>
 </defs>
 <g id="figure_1">
  <g id="patch_1">
   <path d="M 0 354.413187 
L 625.076586 354.413187 
L 625.076586 0 
L 0 0 
z
" style="fill: #ffffff"/>
  </g>
  <g id="axes_1">
   <g id="patch_2">
    <path d="M 209.259635 188.64 
C 209.259635 177.619869 207.088909 166.706894 202.871687 156.52562 
C 198.654466 146.344346 192.472762 137.092773 184.680352 129.300363 
C 176.887943 121.507954 167.63637 115.32625 157.455096 111.109028 
C 147.273822 106.891807 136.360847 104.721081 125.340716 104.721081 
C 114.320584 104.721081 103.40761 106.891807 93.226336 111.109028 
C 83.045062 115.32625 73.793489 121.507954 66.001079 129.300363 
C 58.208669 137.092773 52.026966 146.344346 47.809744 156.52562 
C 43.592522 166.706894 41.421797 177.619869 41.421797 188.64 
C 41.421797 199.660131 43.592522 210.573106 47.809744 220.75438 
C 52.026966 230.935654 58.208669 240.187227 66.001079 247.979637 
C 73.793489 255.772046 83.045062 261.95375 93.226336 266.170972 
C 103.40761 270.388193 114.320584 272.558919 125.340716 272.558919 
C 136.360847 272.558919 147.273822 270.388193 157.455096 266.170972 
C 167.63637 261.95375 176.887943 255.772046 184.680352 247.979637 
C 192.472762 240.187227 198.654466 230.935654 202.871687 220.75438 
C 207.088909 210.573106 209.259635 199.660131 209.259635 188.64 
M 125.340716 188.64 
C 125.340716 188.64 125.340716 188.64 125.340716 188.64 
C 125.340716 188.64 125.340716 188.64 125.340716 188.64 
C 125.340716 188.64 125.340716 188.64 125.340716 188.64 
C 125.340716 188.64 125.340716 188.64 125.340716 188.64 
C 125.340716 188.64 125.340716 188.64 125.340716 188.64 
C 125.340716 188.64 125.340716 188.64 125.340716 188.64 
C 125.340716 188.64 125.340716 188.64 125.340716 188.64 
C 125.340716 188.64 125.340716 188.64 125.340716 188.64 
C 125.340716 188.64 125.340716 188.64 125.340716 188.64 
C 125.340716 188.64 125.340716 188.64 125.340716 188.64 
C 125.340716 188.64 125.340716 188.64 125.340716 188.64 
C 125.340716 188.64 125.340716 188.64 125.340716 188.64 
C 125.340716 188.64 125.340716 188.64 125.340716 188.64 
C 125.340716 188.64 125.340716 188.64 125.340716 188.64 
C 125.340716 188.64 125.340716 188.64 125.340716 188.64 
C 125.340716 188.64 125.340716 188.64 125.340716 188.64 
z
" style="fill: #ffffff"/>
   </g>
   <g id="matplotlib.axis_1">
    <g id="xtick_1">
     <g id="line2d_1">
      <path d="M 125.340716 188.64 
L 209.259635 188.64 
" clip-path="url(#pca30e751da)" style="fill: none; stroke: #dddddd; stroke-width: 0.6; stroke-linecap: square"/>
     </g>
     <g id="text_1">
      <!-- renewable -->
      <g transform="translate(205.019166 182.733094) scale(0.07 -0.07)">
       <defs>
        <path id="DejaVuSans-72" d="M 2631 2963 
Q 2534 3019 2420 3045 
Q 2306 3072 2169 3072 
Q 1681 3072 1420 2755 
Q 1159 2438 1159 1844 
L 1159 0 
L 581 0 
L 581 3500 
L 1159 3500 
L 1159 2956 
Q 1341 3275 1631 3429 
Q 1922 3584 2338 3584 
Q 2397 3584 2469 3576 
Q 2541 3569 2628 3553 
L 2631 2963 
z
" transform="scale(0.015625)"/>
        <path id="DejaVuSans-65" d="M 3597 1894 
L 3597 1613 
L 953 1613 
Q 991 1019 1311 708 
Q 1631 397 2203 397 
Q 2534 397 2845 478 
Q 3156 559 3463 722 
L 3463 178 
Q 3153 47 2828 -22 
Q 2503 -91 2169 -91 
Q 1331 -91 842 396 
Q 353 884 353 1716 
Q 353 2575 817 3079 
Q 1281 3584 2069 3584 
Q 2775 3584 3186 3129 
Q 3597 2675 3597 1894 
z
M 3022 2063 
Q 3016 2534 2758 2815 
Q 2500 3097 2075 3097 
Q 1594 3097 1305 2825 
Q 1016 2553 972 2059 
L 3022 2063 
z
" transform="scale(0.015625)"/>
        <path id="DejaVuSans-6e" d="M 3513 2113 
L 3513 0 
L 2938 0 
L 2938 2094 
Q 2938 2591 2744 2837 
Q 2550 3084 2163 3084 
Q 1697 3084 1428 2787 
Q 1159 2491 1159 1978 
L 1159 0 
L 581 0 
L 581 3500 
L 1159 3500 
L 1159 2956 
Q 1366 3272 1645 3428 
Q 1925 3584 2291 3584 
Q 2894 3584 3203 3211 
Q 3513 2838 3513 2113 
z
" transform="scale(0.015625)"/>
        <path id="DejaVuSans-77" d="M 269 3500 
L 844 3500 
L 1563 769 
L 2278 3500 
L 2956 3500 
L 3675 769 
L 4391 3500 
L 4966 3500 
L 4050 0 
L 3372 0 
L 2619 2869 
L 1863 0 
L 1184 0 
L 269 3500 
z
" transform="scale(0.015625)"/>
        <path id="DejaVuSans-61" d="M 2194 1759 
Q 1497 1759 1228 1600 
Q 959 1441 959 1056 
Q 959 750 1161 570 
Q 1363 391 1709 391 
Q 2188 391 2477 730 
Q 2766 1069 2766 1631 
L 2766 1759 
L 2194 1759 
z
M 3341 1997 
L 3341 0 
L 2766 0 
L 2766 531 
Q 2569 213 2275 61 
Q 1981 -91 1556 -91 
Q 1019 -91 701 211 
Q 384 513 384 1019 
Q 384 1609 779 1909 
Q 1175 2209 1959 2209 
L 2766 2209 
L 2766 2266 
Q 2766 2663 2505 2880 
Q 2244 3097 1772 3097 
Q 1472 3097 1187 3025 
Q 903 2953 641 2809 
L 641 3341 
Q 956 3463 1253 3523 
Q 1550 3584 1831 3584 
Q 2591 3584 2966 3190 
Q 3341 2797 3341 1997 
z
" transform="scale(0.015625)"/>
        <path id="DejaVuSans-62" d="M 3116 1747 
Q 3116 2381 2855 2742 
Q 2594 3103 2138 3103 
Q 1681 3103 1420 2742 
Q 1159 2381 1159 1747 
Q 1159 1113 1420 752 
Q 1681 391 2138 391 
Q 2594 391 2855 752 
Q 3116 1113 3116 1747 
z
M 1159 2969 
Q 1341 3281 1617 3432 
Q 1894 3584 2278 3584 
Q 2916 3584 3314 3078 
Q 3713 2572 3713 1747 
Q 3713 922 3314 415 
Q 2916 -91 2278 -91 
Q 1894 -91 1617 61 
Q 1341 213 1159 525 
L 1159 0 
L 581 0 
L 581 4863 
L 1159 4863 
L 1159 2969 
z
" transform="scale(0.015625)"/>
        <path id="DejaVuSans-6c" d="M 603 4863 
L 1178 4863 
L 1178 0 
L 603 0 
L 603 4863 
z
" transform="scale(0.015625)"/>
       </defs>
       <use xlink:href="#DejaVuSans-72"/>
       <use xlink:href="#DejaVuSans-65" x="38.863281"/>
       <use xlink:href="#DejaVuSans-6e" x="100.386719"/>
       <use xlink:href="#DejaVuSans-65" x="163.765625"/>
       <use xlink:href="#DejaVuSans-77" x="225.289062"/>
       <use xlink:href="#DejaVuSans-61" x="307.076172"/>
       <use xlink:href="#DejaVuSans-62" x="368.355469"/>
       <use xlink:href="#DejaVuSans-6c" x="431.832031"/>
       <use xlink:href="#DejaVuSans-65" x="459.615234"/>
      </g>
      <!-- down -->
      <g transform="translate(213.81565 190.571562) scale(0.07 -0.07)">
       <defs>
        <path id="DejaVuSans-64" d="M 2906 2969 
L 2906 4863 
L 3481 4863 
L 3481 0 
L 2906 0 
L 2906 525 
Q 2725 213 2448 61 
Q 2172 -91 1784 -91 
Q 1150 -91 751 415 
Q 353 922 353 1747 
Q 353 2572 751 3078 
Q 1150 3584 1784 3584 
Q 2172 3584 2448 3432 
Q 2725 3281 2906 2969 
z
M 947 1747 
Q 947 1113 1208 752 
Q 1469 391 1925 391 
Q 2381 391 2643 752 
Q 2906 1113 2906 1747 
Q 2906 2381 2643 2742 
Q 2381 3103 1925 3103 
Q 1469 3103 1208 2742 
Q 947 2381 947 1747 
z
" transform="scale(0.015625)"/>
        <path id="DejaVuSans-6f" d="M 1959 3097 
Q 1497 3097 1228 2736 
Q 959 2375 959 1747 
Q 959 1119 1226 758 
Q 1494 397 1959 397 
Q 2419 397 2687 759 
Q 2956 1122 2956 1747 
Q 2956 2369 2687 2733 
Q 2419 3097 1959 3097 
z
M 1959 3584 
Q 2709 3584 3137 3096 
Q 3566 2609 3566 1747 
Q 3566 888 3137 398 
Q 2709 -91 1959 -91 
Q 1206 -91 779 398 
Q 353 888 353 1747 
Q 353 2609 779 3096 
Q 1206 3584 1959 3584 
z
" transform="scale(0.015625)"/>
       </defs>
       <use xlink:href="#DejaVuSans-64"/>
       <use xlink:href="#DejaVuSans-6f" x="63.476562"/>
       <use xlink:href="#DejaVuSans-77" x="124.658203"/>
       <use xlink:href="#DejaVuSans-6e" x="206.445312"/>
      </g>
      <!-- 20 -->
      <g transform="translate(218.805885 198.410031) scale(0.07 -0.07)">
       <defs>
        <path id="DejaVuSans-32" d="M 1228 531 
L 3431 531 
L 3431 0 
L 469 0 
L 469 531 
Q 828 903 1448 1529 
Q 2069 2156 2228 2338 
Q 2531 2678 2651 2914 
Q 2772 3150 2772 3378 
Q 2772 3750 2511 3984 
Q 2250 4219 1831 4219 
Q 1534 4219 1204 4116 
Q 875 4013 500 3803 
L 500 4441 
Q 881 4594 1212 4672 
Q 1544 4750 1819 4750 
Q 2544 4750 2975 4387 
Q 3406 4025 3406 3419 
Q 3406 3131 3298 2873 
Q 3191 2616 2906 2266 
Q 2828 2175 2409 1742 
Q 1991 1309 1228 531 
z
" transform="scale(0.015625)"/>
        <path id="DejaVuSans-30" d="M 2034 4250 
Q 1547 4250 1301 3770 
Q 1056 3291 1056 2328 
Q 1056 1369 1301 889 
Q 1547 409 2034 409 
Q 2525 409 2770 889 
Q 3016 1369 3016 2328 
Q 3016 3291 2770 3770 
Q 2525 4250 2034 4250 
z
M 2034 4750 
Q 2819 4750 3233 4129 
Q 3647 3509 3647 2328 
Q 3647 1150 3233 529 
Q 2819 -91 2034 -91 
Q 1250 -91 836 529 
Q 422 1150 422 2328 
Q 422 3509 836 4129 
Q 1250 4750 2034 4750 
z
" transform="scale(0.015625)"/>
       </defs>
       <use xlink:href="#DejaVuSans-32"/>
       <use xlink:href="#DejaVuSans-30" x="63.623047"/>
      </g>
     </g>
    </g>
    <g id="xtick_2">
     <g id="line2d_2">
      <path d="M 125.340716 188.64 
L 184.680352 129.300363 
" clip-path="url(#pca30e751da)" style="fill: none; stroke: #dddddd; stroke-width: 0.6; stroke-linecap: square"/>
     </g>
     <g id="text_2">
      <!-- In-dist. -->
      <g transform="translate(182.564457 121.332431) scale(0.07 -0.07)">
       <defs>
        <path id="DejaVuSans-49" d="M 628 4666 
L 1259 4666 
L 1259 0 
L 628 0 
L 628 4666 
z
" transform="scale(0.015625)"/>
        <path id="DejaVuSans-2d" d="M 313 2009 
L 1997 2009 
L 1997 1497 
L 313 1497 
L 313 2009 
z
" transform="scale(0.015625)"/>
        <path id="DejaVuSans-69" d="M 603 3500 
L 1178 3500 
L 1178 0 
L 603 0 
L 603 3500 
z
M 603 4863 
L 1178 4863 
L 1178 4134 
L 603 4134 
L 603 4863 
z
" transform="scale(0.015625)"/>
        <path id="DejaVuSans-73" d="M 2834 3397 
L 2834 2853 
Q 2591 2978 2328 3040 
Q 2066 3103 1784 3103 
Q 1356 3103 1142 2972 
Q 928 2841 928 2578 
Q 928 2378 1081 2264 
Q 1234 2150 1697 2047 
L 1894 2003 
Q 2506 1872 2764 1633 
Q 3022 1394 3022 966 
Q 3022 478 2636 193 
Q 2250 -91 1575 -91 
Q 1294 -91 989 -36 
Q 684 19 347 128 
L 347 722 
Q 666 556 975 473 
Q 1284 391 1588 391 
Q 1994 391 2212 530 
Q 2431 669 2431 922 
Q 2431 1156 2273 1281 
Q 2116 1406 1581 1522 
L 1381 1569 
Q 847 1681 609 1914 
Q 372 2147 372 2553 
Q 372 3047 722 3315 
Q 1072 3584 1716 3584 
Q 2034 3584 2315 3537 
Q 2597 3491 2834 3397 
z
" transform="scale(0.015625)"/>
        <path id="DejaVuSans-74" d="M 1172 4494 
L 1172 3500 
L 2356 3500 
L 2356 3053 
L 1172 3053 
L 1172 1153 
Q 1172 725 1289 603 
Q 1406 481 1766 481 
L 2356 481 
L 2356 0 
L 1766 0 
Q 1100 0 847 248 
Q 594 497 594 1153 
L 594 3053 
L 172 3053 
L 172 3500 
L 594 3500 
L 594 4494 
L 1172 4494 
z
" transform="scale(0.015625)"/>
        <path id="DejaVuSans-2e" d="M 684 794 
L 1344 794 
L 1344 0 
L 684 0 
L 684 794 
z
" transform="scale(0.015625)"/>
       </defs>
       <use xlink:href="#DejaVuSans-49"/>
       <use xlink:href="#DejaVuSans-6e" x="29.492188"/>
       <use xlink:href="#DejaVuSans-2d" x="92.871094"/>
       <use xlink:href="#DejaVuSans-64" x="128.955078"/>
       <use xlink:href="#DejaVuSans-69" x="192.431641"/>
       <use xlink:href="#DejaVuSans-73" x="220.214844"/>
       <use xlink:href="#DejaVuSans-74" x="272.314453"/>
       <use xlink:href="#DejaVuSans-2e" x="311.523438"/>
      </g>
     </g>
    </g>
    <g id="xtick_3">
     <g id="line2d_3">
      <path d="M 125.340716 188.64 
L 125.340716 104.721081 
" clip-path="url(#pca30e751da)" style="fill: none; stroke: #dddddd; stroke-width: 0.6; stroke-linecap: square"/>
     </g>
     <g id="text_3">
      <!-- equipment -->
      <g transform="translate(106.3997 88.733409) scale(0.07 -0.07)">
       <defs>
        <path id="DejaVuSans-71" d="M 947 1747 
Q 947 1113 1208 752 
Q 1469 391 1925 391 
Q 2381 391 2643 752 
Q 2906 1113 2906 1747 
Q 2906 2381 2643 2742 
Q 2381 3103 1925 3103 
Q 1469 3103 1208 2742 
Q 947 2381 947 1747 
z
M 2906 525 
Q 2725 213 2448 61 
Q 2172 -91 1784 -91 
Q 1150 -91 751 415 
Q 353 922 353 1747 
Q 353 2572 751 3078 
Q 1150 3584 1784 3584 
Q 2172 3584 2448 3432 
Q 2725 3281 2906 2969 
L 2906 3500 
L 3481 3500 
L 3481 -1331 
L 2906 -1331 
L 2906 525 
z
" transform="scale(0.015625)"/>
        <path id="DejaVuSans-75" d="M 544 1381 
L 544 3500 
L 1119 3500 
L 1119 1403 
Q 1119 906 1312 657 
Q 1506 409 1894 409 
Q 2359 409 2629 706 
Q 2900 1003 2900 1516 
L 2900 3500 
L 3475 3500 
L 3475 0 
L 2900 0 
L 2900 538 
Q 2691 219 2414 64 
Q 2138 -91 1772 -91 
Q 1169 -91 856 284 
Q 544 659 544 1381 
z
M 1991 3584 
L 1991 3584 
z
" transform="scale(0.015625)"/>
        <path id="DejaVuSans-70" d="M 1159 525 
L 1159 -1331 
L 581 -1331 
L 581 3500 
L 1159 3500 
L 1159 2969 
Q 1341 3281 1617 3432 
Q 1894 3584 2278 3584 
Q 2916 3584 3314 3078 
Q 3713 2572 3713 1747 
Q 3713 922 3314 415 
Q 2916 -91 2278 -91 
Q 1894 -91 1617 61 
Q 1341 213 1159 525 
z
M 3116 1747 
Q 3116 2381 2855 2742 
Q 2594 3103 2138 3103 
Q 1681 3103 1420 2742 
Q 1159 2381 1159 1747 
Q 1159 1113 1420 752 
Q 1681 391 2138 391 
Q 2594 391 2855 752 
Q 3116 1113 3116 1747 
z
" transform="scale(0.015625)"/>
        <path id="DejaVuSans-6d" d="M 3328 2828 
Q 3544 3216 3844 3400 
Q 4144 3584 4550 3584 
Q 5097 3584 5394 3201 
Q 5691 2819 5691 2113 
L 5691 0 
L 5113 0 
L 5113 2094 
Q 5113 2597 4934 2840 
Q 4756 3084 4391 3084 
Q 3944 3084 3684 2787 
Q 3425 2491 3425 1978 
L 3425 0 
L 2847 0 
L 2847 2094 
Q 2847 2600 2669 2842 
Q 2491 3084 2119 3084 
Q 1678 3084 1418 2786 
Q 1159 2488 1159 1978 
L 1159 0 
L 581 0 
L 581 3500 
L 1159 3500 
L 1159 2956 
Q 1356 3278 1631 3431 
Q 1906 3584 2284 3584 
Q 2666 3584 2933 3390 
Q 3200 3197 3328 2828 
z
" transform="scale(0.015625)"/>
       </defs>
       <use xlink:href="#DejaVuSans-65"/>
       <use xlink:href="#DejaVuSans-71" x="61.523438"/>
       <use xlink:href="#DejaVuSans-75" x="125"/>
       <use xlink:href="#DejaVuSans-69" x="188.378906"/>
       <use xlink:href="#DejaVuSans-70" x="216.162109"/>
       <use xlink:href="#DejaVuSans-6d" x="279.638672"/>
       <use xlink:href="#DejaVuSans-65" x="377.050781"/>
       <use xlink:href="#DejaVuSans-6e" x="438.574219"/>
       <use xlink:href="#DejaVuSans-74" x="501.953125"/>
      </g>
      <!-- degradation -->
      <g transform="translate(104.088606 96.571878) scale(0.07 -0.07)">
       <defs>
        <path id="DejaVuSans-67" d="M 2906 1791 
Q 2906 2416 2648 2759 
Q 2391 3103 1925 3103 
Q 1463 3103 1205 2759 
Q 947 2416 947 1791 
Q 947 1169 1205 825 
Q 1463 481 1925 481 
Q 2391 481 2648 825 
Q 2906 1169 2906 1791 
z
M 3481 434 
Q 3481 -459 3084 -895 
Q 2688 -1331 1869 -1331 
Q 1566 -1331 1297 -1286 
Q 1028 -1241 775 -1147 
L 775 -588 
Q 1028 -725 1275 -790 
Q 1522 -856 1778 -856 
Q 2344 -856 2625 -561 
Q 2906 -266 2906 331 
L 2906 616 
Q 2728 306 2450 153 
Q 2172 0 1784 0 
Q 1141 0 747 490 
Q 353 981 353 1791 
Q 353 2603 747 3093 
Q 1141 3584 1784 3584 
Q 2172 3584 2450 3431 
Q 2728 3278 2906 2969 
L 2906 3500 
L 3481 3500 
L 3481 434 
z
" transform="scale(0.015625)"/>
       </defs>
       <use xlink:href="#DejaVuSans-64"/>
       <use xlink:href="#DejaVuSans-65" x="63.476562"/>
       <use xlink:href="#DejaVuSans-67" x="125"/>
       <use xlink:href="#DejaVuSans-72" x="188.476562"/>
       <use xlink:href="#DejaVuSans-61" x="229.589844"/>
       <use xlink:href="#DejaVuSans-64" x="290.869141"/>
       <use xlink:href="#DejaVuSans-61" x="354.345703"/>
       <use xlink:href="#DejaVuSans-74" x="415.625"/>
       <use xlink:href="#DejaVuSans-69" x="454.833984"/>
       <use xlink:href="#DejaVuSans-6f" x="482.617188"/>
       <use xlink:href="#DejaVuSans-6e" x="543.798828"/>
      </g>
     </g>
    </g>
    <g id="xtick_4">
     <g id="line2d_4">
      <path d="M 125.340716 188.64 
L 66.001079 129.300363 
" clip-path="url(#pca30e751da)" style="fill: none; stroke: #dddddd; stroke-width: 0.6; stroke-linecap: square"/>
     </g>
     <g id="text_4">
      <!-- compound -->
      <g transform="translate(37.604631 117.413197) scale(0.07 -0.07)">
       <defs>
        <path id="DejaVuSans-63" d="M 3122 3366 
L 3122 2828 
Q 2878 2963 2633 3030 
Q 2388 3097 2138 3097 
Q 1578 3097 1268 2742 
Q 959 2388 959 1747 
Q 959 1106 1268 751 
Q 1578 397 2138 397 
Q 2388 397 2633 464 
Q 2878 531 3122 666 
L 3122 134 
Q 2881 22 2623 -34 
Q 2366 -91 2075 -91 
Q 1284 -91 818 406 
Q 353 903 353 1747 
Q 353 2603 823 3093 
Q 1294 3584 2113 3584 
Q 2378 3584 2631 3529 
Q 2884 3475 3122 3366 
z
" transform="scale(0.015625)"/>
       </defs>
       <use xlink:href="#DejaVuSans-63"/>
       <use xlink:href="#DejaVuSans-6f" x="54.980469"/>
       <use xlink:href="#DejaVuSans-6d" x="116.162109"/>
       <use xlink:href="#DejaVuSans-70" x="213.574219"/>
       <use xlink:href="#DejaVuSans-6f" x="277.050781"/>
       <use xlink:href="#DejaVuSans-75" x="338.232422"/>
       <use xlink:href="#DejaVuSans-6e" x="401.611328"/>
       <use xlink:href="#DejaVuSans-64" x="464.990234"/>
      </g>
      <!-- stress -->
      <g transform="translate(45.745959 125.251665) scale(0.07 -0.07)">
       <use xlink:href="#DejaVuSans-73"/>
       <use xlink:href="#DejaVuSans-74" x="52.099609"/>
       <use xlink:href="#DejaVuSans-72" x="91.308594"/>
       <use xlink:href="#DejaVuSans-65" x="130.171875"/>
       <use xlink:href="#DejaVuSans-73" x="191.695312"/>
       <use xlink:href="#DejaVuSans-73" x="243.794922"/>
      </g>
     </g>
    </g>
    <g id="xtick_5">
     <g id="line2d_5">
      <path d="M 125.340716 188.64 
L 41.421797 188.64 
" clip-path="url(#pca30e751da)" style="fill: none; stroke: #dddddd; stroke-width: 0.6; stroke-linecap: square"/>
     </g>
     <g id="text_5">
      <!-- Load +20% -->
      <g transform="translate(7.2 190.571562) scale(0.07 -0.07)">
       <defs>
        <path id="DejaVuSans-4c" d="M 628 4666 
L 1259 4666 
L 1259 531 
L 3531 531 
L 3531 0 
L 628 0 
L 628 4666 
z
" transform="scale(0.015625)"/>
        <path id="DejaVuSans-20" transform="scale(0.015625)"/>
        <path id="DejaVuSans-2b" d="M 2944 4013 
L 2944 2272 
L 4684 2272 
L 4684 1741 
L 2944 1741 
L 2944 0 
L 2419 0 
L 2419 1741 
L 678 1741 
L 678 2272 
L 2419 2272 
L 2419 4013 
L 2944 4013 
z
" transform="scale(0.015625)"/>
        <path id="DejaVuSans-25" d="M 4653 2053 
Q 4381 2053 4226 1822 
Q 4072 1591 4072 1178 
Q 4072 772 4226 539 
Q 4381 306 4653 306 
Q 4919 306 5073 539 
Q 5228 772 5228 1178 
Q 5228 1588 5073 1820 
Q 4919 2053 4653 2053 
z
M 4653 2450 
Q 5147 2450 5437 2106 
Q 5728 1763 5728 1178 
Q 5728 594 5436 251 
Q 5144 -91 4653 -91 
Q 4153 -91 3862 251 
Q 3572 594 3572 1178 
Q 3572 1766 3864 2108 
Q 4156 2450 4653 2450 
z
M 1428 4353 
Q 1159 4353 1004 4120 
Q 850 3888 850 3481 
Q 850 3069 1003 2837 
Q 1156 2606 1428 2606 
Q 1700 2606 1854 2837 
Q 2009 3069 2009 3481 
Q 2009 3884 1853 4118 
Q 1697 4353 1428 4353 
z
M 4250 4750 
L 4750 4750 
L 1831 -91 
L 1331 -91 
L 4250 4750 
z
M 1428 4750 
Q 1922 4750 2215 4408 
Q 2509 4066 2509 3481 
Q 2509 2891 2217 2550 
Q 1925 2209 1428 2209 
Q 931 2209 642 2551 
Q 353 2894 353 3481 
Q 353 4063 643 4406 
Q 934 4750 1428 4750 
z
" transform="scale(0.015625)"/>
       </defs>
       <use xlink:href="#DejaVuSans-4c"/>
       <use xlink:href="#DejaVuSans-6f" x="53.962891"/>
       <use xlink:href="#DejaVuSans-61" x="115.144531"/>
       <use xlink:href="#DejaVuSans-64" x="176.423828"/>
       <use xlink:href="#DejaVuSans-20" x="239.900391"/>
       <use xlink:href="#DejaVuSans-2b" x="271.6875"/>
       <use xlink:href="#DejaVuSans-32" x="355.476562"/>
       <use xlink:href="#DejaVuSans-30" x="419.099609"/>
       <use xlink:href="#DejaVuSans-25" x="482.722656"/>
      </g>
     </g>
    </g>
    <g id="xtick_6">
     <g id="line2d_6">
      <path d="M 125.340716 188.64 
L 66.001079 247.979637 
" clip-path="url(#pca30e751da)" style="fill: none; stroke: #dddddd; stroke-width: 0.6; stroke-linecap: square"/>
     </g>
     <g id="text_6">
      <!-- Cold wave -->
      <g transform="translate(37.977053 259.810694) scale(0.07 -0.07)">
       <defs>
        <path id="DejaVuSans-43" d="M 4122 4306 
L 4122 3641 
Q 3803 3938 3442 4084 
Q 3081 4231 2675 4231 
Q 1875 4231 1450 3742 
Q 1025 3253 1025 2328 
Q 1025 1406 1450 917 
Q 1875 428 2675 428 
Q 3081 428 3442 575 
Q 3803 722 4122 1019 
L 4122 359 
Q 3791 134 3420 21 
Q 3050 -91 2638 -91 
Q 1578 -91 968 557 
Q 359 1206 359 2328 
Q 359 3453 968 4101 
Q 1578 4750 2638 4750 
Q 3056 4750 3426 4639 
Q 3797 4528 4122 4306 
z
" transform="scale(0.015625)"/>
        <path id="DejaVuSans-76" d="M 191 3500 
L 800 3500 
L 1894 563 
L 2988 3500 
L 3597 3500 
L 2284 0 
L 1503 0 
L 191 3500 
z
" transform="scale(0.015625)"/>
       </defs>
       <use xlink:href="#DejaVuSans-43"/>
       <use xlink:href="#DejaVuSans-6f" x="69.824219"/>
       <use xlink:href="#DejaVuSans-6c" x="131.005859"/>
       <use xlink:href="#DejaVuSans-64" x="158.789062"/>
       <use xlink:href="#DejaVuSans-20" x="222.265625"/>
       <use xlink:href="#DejaVuSans-77" x="254.052734"/>
       <use xlink:href="#DejaVuSans-61" x="335.839844"/>
       <use xlink:href="#DejaVuSans-76" x="397.119141"/>
       <use xlink:href="#DejaVuSans-65" x="456.298828"/>
      </g>
     </g>
    </g>
    <g id="xtick_7">
     <g id="line2d_7">
      <path d="M 125.340716 188.64 
L 125.340716 272.558919 
" clip-path="url(#pca30e751da)" style="fill: none; stroke: #dddddd; stroke-width: 0.6; stroke-linecap: square"/>
     </g>
     <g id="text_7">
      <!-- Compound -->
      <g transform="translate(106.324231 288.490481) scale(0.07 -0.07)">
       <use xlink:href="#DejaVuSans-43"/>
       <use xlink:href="#DejaVuSans-6f" x="69.824219"/>
       <use xlink:href="#DejaVuSans-6d" x="131.005859"/>
       <use xlink:href="#DejaVuSans-70" x="228.417969"/>
       <use xlink:href="#DejaVuSans-6f" x="291.894531"/>
       <use xlink:href="#DejaVuSans-75" x="353.076172"/>
       <use xlink:href="#DejaVuSans-6e" x="416.455078"/>
       <use xlink:href="#DejaVuSans-64" x="479.833984"/>
      </g>
     </g>
    </g>
    <g id="xtick_8">
     <g id="line2d_8">
      <path d="M 125.340716 188.64 
L 184.680352 247.979637 
" clip-path="url(#pca30e751da)" style="fill: none; stroke: #dddddd; stroke-width: 0.6; stroke-linecap: square"/>
     </g>
     <g id="text_8">
      <!-- load -->
      <g transform="translate(187.099144 251.972225) scale(0.07 -0.07)">
       <use xlink:href="#DejaVuSans-6c"/>
       <use xlink:href="#DejaVuSans-6f" x="27.783203"/>
       <use xlink:href="#DejaVuSans-61" x="88.964844"/>
       <use xlink:href="#DejaVuSans-64" x="150.244141"/>
      </g>
      <!-- up -->
      <g transform="translate(190.139769 259.810694) scale(0.07 -0.07)">
       <use xlink:href="#DejaVuSans-75"/>
       <use xlink:href="#DejaVuSans-70" x="63.378906"/>
      </g>
      <!-- 35 -->
      <g transform="translate(190.126097 267.649163) scale(0.07 -0.07)">
       <defs>
        <path id="DejaVuSans-33" d="M 2597 2516 
Q 3050 2419 3304 2112 
Q 3559 1806 3559 1356 
Q 3559 666 3084 287 
Q 2609 -91 1734 -91 
Q 1441 -91 1130 -33 
Q 819 25 488 141 
L 488 750 
Q 750 597 1062 519 
Q 1375 441 1716 441 
Q 2309 441 2620 675 
Q 2931 909 2931 1356 
Q 2931 1769 2642 2001 
Q 2353 2234 1838 2234 
L 1294 2234 
L 1294 2753 
L 1863 2753 
Q 2328 2753 2575 2939 
Q 2822 3125 2822 3475 
Q 2822 3834 2567 4026 
Q 2313 4219 1838 4219 
Q 1578 4219 1281 4162 
Q 984 4106 628 3988 
L 628 4550 
Q 988 4650 1302 4700 
Q 1616 4750 1894 4750 
Q 2613 4750 3031 4423 
Q 3450 4097 3450 3541 
Q 3450 3153 3228 2886 
Q 3006 2619 2597 2516 
z
" transform="scale(0.015625)"/>
        <path id="DejaVuSans-35" d="M 691 4666 
L 3169 4666 
L 3169 4134 
L 1269 4134 
L 1269 2991 
Q 1406 3038 1543 3061 
Q 1681 3084 1819 3084 
Q 2600 3084 3056 2656 
Q 3513 2228 3513 1497 
Q 3513 744 3044 326 
Q 2575 -91 1722 -91 
Q 1428 -91 1123 -41 
Q 819 9 494 109 
L 494 744 
Q 775 591 1075 516 
Q 1375 441 1709 441 
Q 2250 441 2565 725 
Q 2881 1009 2881 1497 
Q 2881 1984 2565 2268 
Q 2250 2553 1709 2553 
Q 1456 2553 1204 2497 
Q 953 2441 691 2322 
L 691 4666 
z
" transform="scale(0.015625)"/>
       </defs>
       <use xlink:href="#DejaVuSans-33"/>
       <use xlink:href="#DejaVuSans-35" x="63.623047"/>
      </g>
     </g>
    </g>
   </g>
   <g id="matplotlib.axis_2">
    <g id="ytick_1">
     <g id="line2d_9">
      <path d="M 134.933836 188.64 
C 134.933836 187.380243 134.685691 186.132736 134.203603 184.968872 
C 133.721515 183.805008 133.014859 182.747423 132.124076 181.85664 
C 131.233293 180.965857 130.175708 180.259201 129.011844 179.777113 
C 127.84798 179.295025 126.600473 179.04688 125.340716 179.04688 
C 124.080959 179.04688 122.833451 179.295025 121.669588 179.777113 
C 120.505724 180.259201 119.448138 180.965857 118.557356 181.85664 
C 117.666573 182.747423 116.959917 183.805008 116.477829 184.968872 
C 115.995741 186.132736 115.747596 187.380243 115.747596 188.64 
C 115.747596 189.899757 115.995741 191.147264 116.477829 192.311128 
C 116.959917 193.474992 117.666573 194.532577 118.557356 195.42336 
C 119.448138 196.314143 120.505724 197.020799 121.669588 197.502887 
C 122.833451 197.984975 124.080959 198.23312 125.340716 198.23312 
C 126.600473 198.23312 127.84798 197.984975 129.011844 197.502887 
C 130.175708 197.020799 131.233293 196.314143 132.124076 195.42336 
C 133.014859 194.532577 133.721515 193.474992 134.203603 192.311128 
C 134.685691 191.147264 134.933836 189.899757 134.933836 188.64 
" clip-path="url(#pca30e751da)" style="fill: none; stroke: #dddddd; stroke-width: 0.6; stroke-linecap: square"/>
     </g>
     <g id="text_9">
      <!-- 0.5 -->
      <g transform="translate(134.203603 183.513091) scale(0.07 -0.07)">
       <use xlink:href="#DejaVuSans-30"/>
       <use xlink:href="#DejaVuSans-2e" x="63.623047"/>
       <use xlink:href="#DejaVuSans-35" x="95.410156"/>
      </g>
     </g>
    </g>
    <g id="ytick_2">
     <g id="line2d_10">
      <path d="M 144.526956 188.64 
C 144.526956 186.120486 144.030666 183.625471 143.06649 181.297744 
C 142.102314 178.970017 140.689001 176.854845 138.907436 175.07328 
C 137.125871 173.291714 135.010699 171.878402 132.682972 170.914226 
C 130.355245 169.95005 127.86023 169.45376 125.340716 169.45376 
C 122.821202 169.45376 120.326187 169.95005 117.99846 170.914226 
C 115.670732 171.878402 113.555561 173.291714 111.773996 175.07328 
C 109.99243 176.854845 108.579118 178.970017 107.614942 181.297744 
C 106.650765 183.625471 106.154476 186.120486 106.154476 188.64 
C 106.154476 191.159514 106.650765 193.654529 107.614942 195.982256 
C 108.579118 198.309983 109.99243 200.425155 111.773996 202.20672 
C 113.555561 203.988286 115.670732 205.401598 117.99846 206.365774 
C 120.326187 207.32995 122.821202 207.82624 125.340716 207.82624 
C 127.86023 207.82624 130.355245 207.32995 132.682972 206.365774 
C 135.010699 205.401598 137.125871 203.988286 138.907436 202.20672 
C 140.689001 200.425155 142.102314 198.309983 143.06649 195.982256 
C 144.030666 193.654529 144.526956 191.159514 144.526956 188.64 
" clip-path="url(#pca30e751da)" style="fill: none; stroke: #dddddd; stroke-width: 0.6; stroke-linecap: square"/>
     </g>
     <g id="text_10">
      <!-- 1.0 -->
      <g transform="translate(143.06649 179.841963) scale(0.07 -0.07)">
       <defs>
        <path id="DejaVuSans-31" d="M 794 531 
L 1825 531 
L 1825 4091 
L 703 3866 
L 703 4441 
L 1819 4666 
L 2450 4666 
L 2450 531 
L 3481 531 
L 3481 0 
L 794 0 
L 794 531 
z
" transform="scale(0.015625)"/>
       </defs>
       <use xlink:href="#DejaVuSans-31"/>
       <use xlink:href="#DejaVuSans-2e" x="63.623047"/>
       <use xlink:href="#DejaVuSans-30" x="95.410156"/>
      </g>
     </g>
    </g>
    <g id="ytick_3">
     <g id="line2d_11">
      <path d="M 154.120075 188.64 
C 154.120075 184.860729 153.375641 181.118207 151.929377 177.626616 
C 150.483113 174.135025 148.363144 170.962268 145.690796 168.28992 
C 143.018448 165.617572 139.845691 163.497603 136.3541 162.051339 
C 132.862509 160.605074 129.119987 159.86064 125.340716 159.86064 
C 121.561445 159.86064 117.818923 160.605074 114.327332 162.051339 
C 110.835741 163.497603 107.662984 165.617572 104.990635 168.28992 
C 102.318287 170.962268 100.198319 174.135025 98.752054 177.626616 
C 97.30579 181.118207 96.561356 184.860729 96.561356 188.64 
C 96.561356 192.419271 97.30579 196.161793 98.752054 199.653384 
C 100.198319 203.144975 102.318287 206.317732 104.990635 208.99008 
C 107.662984 211.662428 110.835741 213.782397 114.327332 215.228661 
C 117.818923 216.674926 121.561445 217.41936 125.340716 217.41936 
C 129.119987 217.41936 132.862509 216.674926 136.3541 215.228661 
C 139.845691 213.782397 143.018448 211.662428 145.690796 208.99008 
C 148.363144 206.317732 150.483113 203.144975 151.929377 199.653384 
C 153.375641 196.161793 154.120075 192.419271 154.120075 188.64 
" clip-path="url(#pca30e751da)" style="fill: none; stroke: #dddddd; stroke-width: 0.6; stroke-linecap: square"/>
     </g>
     <g id="text_11">
      <!-- 1.5 -->
      <g transform="translate(151.929377 176.170835) scale(0.07 -0.07)">
       <use xlink:href="#DejaVuSans-31"/>
       <use xlink:href="#DejaVuSans-2e" x="63.623047"/>
       <use xlink:href="#DejaVuSans-35" x="95.410156"/>
      </g>
     </g>
    </g>
    <g id="ytick_4">
     <g id="line2d_12">
      <path d="M 163.713195 188.64 
C 163.713195 183.600972 162.720617 178.610943 160.792264 173.955488 
C 158.863912 169.300033 156.037287 165.06969 152.474156 161.50656 
C 148.911026 157.943429 144.680683 155.116804 140.025228 153.188452 
C 135.369773 151.260099 130.379744 150.26752 125.340716 150.26752 
C 120.301688 150.26752 115.311658 151.260099 110.656204 153.188452 
C 106.000749 155.116804 101.770406 157.943429 98.207275 161.50656 
C 94.644145 165.06969 91.81752 169.300033 89.889167 173.955488 
C 87.960815 178.610943 86.968236 183.600972 86.968236 188.64 
C 86.968236 193.679028 87.960815 198.669057 89.889167 203.324512 
C 91.81752 207.979967 94.644145 212.21031 98.207275 215.77344 
C 101.770406 219.336571 106.000749 222.163196 110.656204 224.091548 
C 115.311658 226.019901 120.301688 227.01248 125.340716 227.01248 
C 130.379744 227.01248 135.369773 226.019901 140.025228 224.091548 
C 144.680683 222.163196 148.911026 219.336571 152.474156 215.77344 
C 156.037287 212.21031 158.863912 207.979967 160.792264 203.324512 
C 162.720617 198.669057 163.713195 193.679028 163.713195 188.64 
" clip-path="url(#pca30e751da)" style="fill: none; stroke: #dddddd; stroke-width: 0.6; stroke-linecap: square"/>
     </g>
     <g id="text_12">
      <!-- 2.0 -->
      <g transform="translate(160.792264 172.499707) scale(0.07 -0.07)">
       <use xlink:href="#DejaVuSans-32"/>
       <use xlink:href="#DejaVuSans-2e" x="63.623047"/>
       <use xlink:href="#DejaVuSans-30" x="95.410156"/>
      </g>
     </g>
    </g>
    <g id="ytick_5">
     <g id="line2d_13">
      <path d="M 173.306315 188.64 
C 173.306315 182.341215 172.065592 176.103678 169.655151 170.28436 
C 167.244711 164.465041 163.71143 159.177113 159.257516 154.723199 
C 154.803603 150.269286 149.515674 146.736005 143.696356 144.325564 
C 137.877038 141.915124 131.639501 140.674401 125.340716 140.674401 
C 119.041931 140.674401 112.804394 141.915124 106.985076 144.325564 
C 101.165757 146.736005 95.877829 150.269286 91.423915 154.723199 
C 86.970002 159.177113 83.436721 164.465041 81.02628 170.28436 
C 78.61584 176.103678 77.375116 182.341215 77.375116 188.64 
C 77.375116 194.938785 78.61584 201.176322 81.02628 206.99564 
C 83.436721 212.814959 86.970002 218.102887 91.423915 222.556801 
C 95.877829 227.010714 101.165757 230.543995 106.985076 232.954436 
C 112.804394 235.364876 119.041931 236.605599 125.340716 236.605599 
C 131.639501 236.605599 137.877038 235.364876 143.696356 232.954436 
C 149.515674 230.543995 154.803603 227.010714 159.257516 222.556801 
C 163.71143 218.102887 167.244711 212.814959 169.655151 206.99564 
C 172.065592 201.176322 173.306315 194.938785 173.306315 188.64 
" clip-path="url(#pca30e751da)" style="fill: none; stroke: #dddddd; stroke-width: 0.6; stroke-linecap: square"/>
     </g>
     <g id="text_13">
      <!-- 2.5 -->
      <g transform="translate(169.655151 168.828579) scale(0.07 -0.07)">
       <use xlink:href="#DejaVuSans-32"/>
       <use xlink:href="#DejaVuSans-2e" x="63.623047"/>
       <use xlink:href="#DejaVuSans-35" x="95.410156"/>
      </g>
     </g>
    </g>
    <g id="ytick_6">
     <g id="line2d_14">
      <path d="M 182.899435 188.64 
C 182.899435 181.081458 181.410567 173.596414 178.518038 166.613232 
C 175.62551 159.63005 171.385573 153.284535 166.040877 147.939839 
C 160.69618 142.595143 154.350666 138.355206 147.367484 135.462677 
C 140.384302 132.570149 132.899258 131.081281 125.340716 131.081281 
C 117.782174 131.081281 110.29713 132.570149 103.313948 135.462677 
C 96.330766 138.355206 89.985251 142.595143 84.640555 147.939839 
C 79.295859 153.284535 75.055922 159.63005 72.163393 166.613232 
C 69.270864 173.596414 67.781997 181.081458 67.781997 188.64 
C 67.781997 196.198542 69.270864 203.683586 72.163393 210.666768 
C 75.055922 217.64995 79.295859 223.995465 84.640555 229.340161 
C 89.985251 234.684857 96.330766 238.924794 103.313948 241.817323 
C 110.29713 244.709851 117.782174 246.198719 125.340716 246.198719 
C 132.899258 246.198719 140.384302 244.709851 147.367484 241.817323 
C 154.350666 238.924794 160.69618 234.684857 166.040877 229.340161 
C 171.385573 223.995465 175.62551 217.64995 178.518038 210.666768 
C 181.410567 203.683586 182.899435 196.198542 182.899435 188.64 
" clip-path="url(#pca30e751da)" style="fill: none; stroke: #dddddd; stroke-width: 0.6; stroke-linecap: square"/>
     </g>
     <g id="text_14">
      <!-- 3.0 -->
      <g transform="translate(178.518038 165.15745) scale(0.07 -0.07)">
       <use xlink:href="#DejaVuSans-33"/>
       <use xlink:href="#DejaVuSans-2e" x="63.623047"/>
       <use xlink:href="#DejaVuSans-30" x="95.410156"/>
      </g>
     </g>
    </g>
    <g id="ytick_7">
     <g id="line2d_15">
      <path d="M 192.492555 188.64 
C 192.492555 179.821701 190.755542 171.089149 187.380926 162.942104 
C 184.006309 154.795058 179.059715 147.391958 172.824237 141.156479 
C 166.588758 134.921 159.185658 129.974407 151.038612 126.59979 
C 142.891566 123.225173 134.159015 121.488161 125.340716 121.488161 
C 116.522417 121.488161 107.789865 123.225173 99.642819 126.59979 
C 91.495774 129.974407 84.092674 134.921 77.857195 141.156479 
C 71.621716 147.391958 66.675123 154.795058 63.300506 162.942104 
C 59.925889 171.089149 58.188877 179.821701 58.188877 188.64 
C 58.188877 197.458299 59.925889 206.190851 63.300506 214.337896 
C 66.675123 222.484942 71.621716 229.888042 77.857195 236.123521 
C 84.092674 242.359 91.495774 247.305593 99.642819 250.68021 
C 107.789865 254.054827 116.522417 255.791839 125.340716 255.791839 
C 134.159015 255.791839 142.891566 254.054827 151.038612 250.68021 
C 159.185658 247.305593 166.588758 242.359 172.824237 236.123521 
C 179.059715 229.888042 184.006309 222.484942 187.380926 214.337896 
C 190.755542 206.190851 192.492555 197.458299 192.492555 188.64 
" clip-path="url(#pca30e751da)" style="fill: none; stroke: #dddddd; stroke-width: 0.6; stroke-linecap: square"/>
     </g>
     <g id="text_15">
      <!-- 3.5 -->
      <g transform="translate(187.380926 161.486322) scale(0.07 -0.07)">
       <use xlink:href="#DejaVuSans-33"/>
       <use xlink:href="#DejaVuSans-2e" x="63.623047"/>
       <use xlink:href="#DejaVuSans-35" x="95.410156"/>
      </g>
     </g>
    </g>
    <g id="ytick_8">
     <g id="line2d_16">
      <path d="M 202.085675 188.64 
C 202.085675 178.561944 200.100518 168.581885 196.243813 159.270976 
C 192.387108 149.960066 186.733858 141.499381 179.607597 134.373119 
C 172.481335 127.246858 164.02065 121.593608 154.70974 117.736903 
C 145.398831 113.880198 135.418771 111.895041 125.340716 111.895041 
C 115.26266 111.895041 105.282601 113.880198 95.971691 117.736903 
C 86.660782 121.593608 78.200096 127.246858 71.073835 134.373119 
C 63.947573 141.499381 58.294324 149.960066 54.437619 159.270976 
C 50.580914 168.581885 48.595757 178.561944 48.595757 188.64 
C 48.595757 198.718056 50.580914 208.698115 54.437619 218.009024 
C 58.294324 227.319934 63.947573 235.780619 71.073835 242.906881 
C 78.200096 250.033142 86.660782 255.686392 95.971691 259.543097 
C 105.282601 263.399802 115.26266 265.384959 125.340716 265.384959 
C 135.418771 265.384959 145.398831 263.399802 154.70974 259.543097 
C 164.02065 255.686392 172.481335 250.033142 179.607597 242.906881 
C 186.733858 235.780619 192.387108 227.319934 196.243813 218.009024 
C 200.100518 208.698115 202.085675 198.718056 202.085675 188.64 
" clip-path="url(#pca30e751da)" style="fill: none; stroke: #dddddd; stroke-width: 0.6; stroke-linecap: square"/>
     </g>
     <g id="text_16">
      <!-- 4.0 -->
      <g transform="translate(196.243813 157.815194) scale(0.07 -0.07)">
       <defs>
        <path id="DejaVuSans-34" d="M 2419 4116 
L 825 1625 
L 2419 1625 
L 2419 4116 
z
M 2253 4666 
L 3047 4666 
L 3047 1625 
L 3713 1625 
L 3713 1100 
L 3047 1100 
L 3047 0 
L 2419 0 
L 2419 1100 
L 313 1100 
L 313 1709 
L 2253 4666 
z
" transform="scale(0.015625)"/>
       </defs>
       <use xlink:href="#DejaVuSans-34"/>
       <use xlink:href="#DejaVuSans-2e" x="63.623047"/>
       <use xlink:href="#DejaVuSans-30" x="95.410156"/>
      </g>
     </g>
    </g>
   </g>
   <g id="patch_3">
    <path d="M 125.340716 188.64 
C 125.340716 188.64 125.340716 188.64 125.340716 188.64 
C 125.340716 188.64 125.340716 188.64 125.340716 188.64 
L 177.151729 172.254328 
C 178.827998 177.554642 179.681044 183.080934 179.681044 188.64 
C 179.681044 194.199066 178.827998 199.725358 177.151729 205.025672 
z
" clip-path="url(#pca30e751da)" style="fill: #ffffcc; stroke: #ffffff; stroke-linejoin: miter"/>
   </g>
   <g id="patch_4">
    <path d="M 125.340716 188.64 
C 125.340716 188.64 125.340716 188.64 125.340716 188.64 
C 125.340716 188.64 125.340716 188.64 125.340716 188.64 
L 152.155639 137.019076 
C 157.436507 139.762267 162.265295 143.299642 166.473184 147.507532 
C 170.681073 151.715421 174.218449 156.544209 176.96164 161.825077 
z
" clip-path="url(#pca30e751da)" style="fill: #ffffcc; stroke: #ffffff; stroke-linejoin: miter"/>
   </g>
   <g id="patch_5">
    <path d="M 125.340716 188.64 
C 125.340716 188.64 125.340716 188.64 125.340716 188.64 
C 125.340716 188.64 125.340716 188.64 125.340716 188.64 
L 106.91659 130.383455 
C 112.876288 128.49865 119.090076 127.53948 125.340716 127.53948 
C 131.591355 127.53948 137.805144 128.49865 143.764842 130.383455 
z
" clip-path="url(#pca30e751da)" style="fill: #ffffcc; stroke: #ffffff; stroke-linejoin: miter"/>
   </g>
   <g id="patch_6">
    <path d="M 125.340716 188.64 
C 125.340716 188.64 125.340716 188.64 125.340716 188.64 
C 125.340716 188.64 125.340716 188.64 125.340716 188.64 
L 70.835948 160.32704 
C 73.73239 154.751152 77.467383 149.6526 81.91035 145.209634 
C 86.353316 140.766668 91.451868 137.031674 97.027756 134.135232 
z
" clip-path="url(#pca30e751da)" style="fill: #ffea9b; stroke: #ffffff; stroke-linejoin: miter"/>
   </g>
   <g id="patch_7">
    <path d="M 125.340716 188.64 
C 125.340716 188.64 125.340716 188.64 125.340716 188.64 
C 125.340716 188.64 125.340716 188.64 125.340716 188.64 
L 63.643579 208.152242 
C 61.647458 201.840568 60.631641 195.259798 60.631641 188.64 
C 60.631641 182.020202 61.647458 175.439432 63.643579 169.127758 
z
" clip-path="url(#pca30e751da)" style="fill: #fff0a7; stroke: #ffffff; stroke-linejoin: miter"/>
   </g>
   <g id="patch_8">
    <path d="M 125.340716 188.64 
C 125.340716 188.64 125.340716 188.64 125.340716 188.64 
C 125.340716 188.64 125.340716 188.64 125.340716 188.64 
L 94.053136 248.871154 
C 87.891434 245.670406 82.257217 241.543006 77.347463 236.633253 
C 72.437709 231.723499 68.31031 226.089282 65.109561 219.927579 
z
" clip-path="url(#pca30e751da)" style="fill: #e31a1c; stroke: #ffffff; stroke-linejoin: miter"/>
   </g>
   <g id="patch_9">
    <path d="M 125.340716 188.64 
C 125.340716 188.64 125.340716 188.64 125.340716 188.64 
C 125.340716 188.64 125.340716 188.64 125.340716 188.64 
L 146.313346 254.954841 
C 139.529277 257.10036 132.45597 258.192206 125.340716 258.192206 
C 118.225461 258.192206 111.152155 257.10036 104.368086 254.954841 
z
" clip-path="url(#pca30e751da)" style="fill: #800026; stroke: #ffffff; stroke-linejoin: miter"/>
   </g>
   <g id="patch_10">
    <path d="M 125.340716 188.64 
C 125.340716 188.64 125.340716 188.64 125.340716 188.64 
C 125.340716 188.64 125.340716 188.64 125.340716 188.64 
L 188.451544 221.42345 
C 185.097767 227.879746 180.773034 233.783337 175.628543 238.927828 
C 170.484052 244.072319 164.580462 248.397051 158.124166 251.750828 
z
" clip-path="url(#pca30e751da)" style="fill: #feb852; stroke: #ffffff; stroke-linejoin: miter"/>
   </g>
   <g id="patch_11">
    <path d="M 209.259635 188.64 
C 209.259635 177.619869 207.088909 166.706894 202.871687 156.52562 
C 198.654466 146.344346 192.472762 137.092773 184.680352 129.300363 
C 176.887943 121.507954 167.63637 115.32625 157.455096 111.109028 
C 147.273822 106.891807 136.360847 104.721081 125.340716 104.721081 
C 114.320584 104.721081 103.40761 106.891807 93.226336 111.109028 
C 83.045062 115.32625 73.793489 121.507954 66.001079 129.300363 
C 58.208669 137.092773 52.026966 146.344346 47.809744 156.52562 
C 43.592522 166.706894 41.421797 177.619869 41.421797 188.64 
C 41.421797 199.660131 43.592522 210.573106 47.809744 220.75438 
C 52.026966 230.935654 58.208669 240.187227 66.001079 247.979637 
C 73.793489 255.772046 83.045062 261.95375 93.226336 266.170972 
C 103.40761 270.388193 114.320584 272.558919 125.340716 272.558919 
C 136.360847 272.558919 147.273822 270.388193 157.455096 266.170972 
C 167.63637 261.95375 176.887943 255.772046 184.680352 247.979637 
C 192.472762 240.187227 198.654466 230.935654 202.871687 220.75438 
C 207.088909 210.573106 209.259635 199.660131 209.259635 188.64 
" style="fill: none; stroke: #000000; stroke-width: 0.8; stroke-linejoin: miter; stroke-linecap: square"/>
   </g>
   <g id="text_17">
    <!-- a  OOD risk by shift family -->
    <g transform="translate(41.421797 55.266159) scale(0.09 -0.09)">
     <defs>
      <path id="DejaVuSans-Bold-61" d="M 2106 1575 
Q 1756 1575 1579 1456 
Q 1403 1338 1403 1106 
Q 1403 894 1545 773 
Q 1688 653 1941 653 
Q 2256 653 2472 879 
Q 2688 1106 2688 1447 
L 2688 1575 
L 2106 1575 
z
M 3816 1997 
L 3816 0 
L 2688 0 
L 2688 519 
Q 2463 200 2181 54 
Q 1900 -91 1497 -91 
Q 953 -91 614 226 
Q 275 544 275 1050 
Q 275 1666 698 1953 
Q 1122 2241 2028 2241 
L 2688 2241 
L 2688 2328 
Q 2688 2594 2478 2717 
Q 2269 2841 1825 2841 
Q 1466 2841 1156 2769 
Q 847 2697 581 2553 
L 581 3406 
Q 941 3494 1303 3539 
Q 1666 3584 2028 3584 
Q 2975 3584 3395 3211 
Q 3816 2838 3816 1997 
z
" transform="scale(0.015625)"/>
      <path id="DejaVuSans-Bold-20" transform="scale(0.015625)"/>
      <path id="DejaVuSans-Bold-4f" d="M 2719 3878 
Q 2169 3878 1866 3472 
Q 1563 3066 1563 2328 
Q 1563 1594 1866 1187 
Q 2169 781 2719 781 
Q 3272 781 3575 1187 
Q 3878 1594 3878 2328 
Q 3878 3066 3575 3472 
Q 3272 3878 2719 3878 
z
M 2719 4750 
Q 3844 4750 4481 4106 
Q 5119 3463 5119 2328 
Q 5119 1197 4481 553 
Q 3844 -91 2719 -91 
Q 1597 -91 958 553 
Q 319 1197 319 2328 
Q 319 3463 958 4106 
Q 1597 4750 2719 4750 
z
" transform="scale(0.015625)"/>
      <path id="DejaVuSans-Bold-44" d="M 1791 3756 
L 1791 909 
L 2222 909 
Q 2959 909 3348 1275 
Q 3738 1641 3738 2338 
Q 3738 3031 3350 3393 
Q 2963 3756 2222 3756 
L 1791 3756 
z
M 588 4666 
L 1856 4666 
Q 2919 4666 3439 4514 
Q 3959 4363 4331 4000 
Q 4659 3684 4818 3271 
Q 4978 2859 4978 2338 
Q 4978 1809 4818 1395 
Q 4659 981 4331 666 
Q 3956 303 3431 151 
Q 2906 0 1856 0 
L 588 0 
L 588 4666 
z
" transform="scale(0.015625)"/>
      <path id="DejaVuSans-Bold-72" d="M 3138 2547 
Q 2991 2616 2845 2648 
Q 2700 2681 2553 2681 
Q 2122 2681 1889 2404 
Q 1656 2128 1656 1613 
L 1656 0 
L 538 0 
L 538 3500 
L 1656 3500 
L 1656 2925 
Q 1872 3269 2151 3426 
Q 2431 3584 2822 3584 
Q 2878 3584 2943 3579 
Q 3009 3575 3134 3559 
L 3138 2547 
z
" transform="scale(0.015625)"/>
      <path id="DejaVuSans-Bold-69" d="M 538 3500 
L 1656 3500 
L 1656 0 
L 538 0 
L 538 3500 
z
M 538 4863 
L 1656 4863 
L 1656 3950 
L 538 3950 
L 538 4863 
z
" transform="scale(0.015625)"/>
      <path id="DejaVuSans-Bold-73" d="M 3272 3391 
L 3272 2541 
Q 2913 2691 2578 2766 
Q 2244 2841 1947 2841 
Q 1628 2841 1473 2761 
Q 1319 2681 1319 2516 
Q 1319 2381 1436 2309 
Q 1553 2238 1856 2203 
L 2053 2175 
Q 2913 2066 3209 1816 
Q 3506 1566 3506 1031 
Q 3506 472 3093 190 
Q 2681 -91 1863 -91 
Q 1516 -91 1145 -36 
Q 775 19 384 128 
L 384 978 
Q 719 816 1070 734 
Q 1422 653 1784 653 
Q 2113 653 2278 743 
Q 2444 834 2444 1013 
Q 2444 1163 2330 1236 
Q 2216 1309 1875 1350 
L 1678 1375 
Q 931 1469 631 1722 
Q 331 1975 331 2491 
Q 331 3047 712 3315 
Q 1094 3584 1881 3584 
Q 2191 3584 2531 3537 
Q 2872 3491 3272 3391 
z
" transform="scale(0.015625)"/>
      <path id="DejaVuSans-Bold-6b" d="M 538 4863 
L 1656 4863 
L 1656 2216 
L 2944 3500 
L 4244 3500 
L 2534 1894 
L 4378 0 
L 3022 0 
L 1656 1459 
L 1656 0 
L 538 0 
L 538 4863 
z
" transform="scale(0.015625)"/>
      <path id="DejaVuSans-Bold-62" d="M 2400 722 
Q 2759 722 2948 984 
Q 3138 1247 3138 1747 
Q 3138 2247 2948 2509 
Q 2759 2772 2400 2772 
Q 2041 2772 1848 2508 
Q 1656 2244 1656 1747 
Q 1656 1250 1848 986 
Q 2041 722 2400 722 
z
M 1656 2988 
Q 1888 3294 2169 3439 
Q 2450 3584 2816 3584 
Q 3463 3584 3878 3070 
Q 4294 2556 4294 1747 
Q 4294 938 3878 423 
Q 3463 -91 2816 -91 
Q 2450 -91 2169 54 
Q 1888 200 1656 506 
L 1656 0 
L 538 0 
L 538 4863 
L 1656 4863 
L 1656 2988 
z
" transform="scale(0.015625)"/>
      <path id="DejaVuSans-Bold-79" d="M 78 3500 
L 1197 3500 
L 2138 1125 
L 2938 3500 
L 4056 3500 
L 2584 -331 
Q 2363 -916 2067 -1148 
Q 1772 -1381 1288 -1381 
L 641 -1381 
L 641 -647 
L 991 -647 
Q 1275 -647 1404 -556 
Q 1534 -466 1606 -231 
L 1638 -134 
L 78 3500 
z
" transform="scale(0.015625)"/>
      <path id="DejaVuSans-Bold-68" d="M 4056 2131 
L 4056 0 
L 2931 0 
L 2931 347 
L 2931 1625 
Q 2931 2084 2911 2256 
Q 2891 2428 2841 2509 
Q 2775 2619 2662 2680 
Q 2550 2741 2406 2741 
Q 2056 2741 1856 2470 
Q 1656 2200 1656 1722 
L 1656 0 
L 538 0 
L 538 4863 
L 1656 4863 
L 1656 2988 
Q 1909 3294 2193 3439 
Q 2478 3584 2822 3584 
Q 3428 3584 3742 3212 
Q 4056 2841 4056 2131 
z
" transform="scale(0.015625)"/>
      <path id="DejaVuSans-Bold-66" d="M 2841 4863 
L 2841 4128 
L 2222 4128 
Q 1984 4128 1890 4042 
Q 1797 3956 1797 3744 
L 1797 3500 
L 2753 3500 
L 2753 2700 
L 1797 2700 
L 1797 0 
L 678 0 
L 678 2700 
L 122 2700 
L 122 3500 
L 678 3500 
L 678 3744 
Q 678 4316 997 4589 
Q 1316 4863 1984 4863 
L 2841 4863 
z
" transform="scale(0.015625)"/>
      <path id="DejaVuSans-Bold-74" d="M 1759 4494 
L 1759 3500 
L 2913 3500 
L 2913 2700 
L 1759 2700 
L 1759 1216 
Q 1759 972 1856 886 
Q 1953 800 2241 800 
L 2816 800 
L 2816 0 
L 1856 0 
Q 1194 0 917 276 
Q 641 553 641 1216 
L 641 2700 
L 84 2700 
L 84 3500 
L 641 3500 
L 641 4494 
L 1759 4494 
z
" transform="scale(0.015625)"/>
      <path id="DejaVuSans-Bold-6d" d="M 3781 2919 
Q 3994 3244 4286 3414 
Q 4578 3584 4928 3584 
Q 5531 3584 5847 3212 
Q 6163 2841 6163 2131 
L 6163 0 
L 5038 0 
L 5038 1825 
Q 5041 1866 5042 1909 
Q 5044 1953 5044 2034 
Q 5044 2406 4934 2573 
Q 4825 2741 4581 2741 
Q 4263 2741 4089 2478 
Q 3916 2216 3909 1719 
L 3909 0 
L 2784 0 
L 2784 1825 
Q 2784 2406 2684 2573 
Q 2584 2741 2328 2741 
Q 2006 2741 1831 2477 
Q 1656 2213 1656 1722 
L 1656 0 
L 531 0 
L 531 3500 
L 1656 3500 
L 1656 2988 
Q 1863 3284 2130 3434 
Q 2397 3584 2719 3584 
Q 3081 3584 3359 3409 
Q 3638 3234 3781 2919 
z
" transform="scale(0.015625)"/>
      <path id="DejaVuSans-Bold-6c" d="M 538 4863 
L 1656 4863 
L 1656 0 
L 538 0 
L 538 4863 
z
" transform="scale(0.015625)"/>
     </defs>
     <use xlink:href="#DejaVuSans-Bold-61"/>
     <use xlink:href="#DejaVuSans-Bold-20" x="67.480469"/>
     <use xlink:href="#DejaVuSans-Bold-20" x="102.294922"/>
     <use xlink:href="#DejaVuSans-Bold-4f" x="137.109375"/>
     <use xlink:href="#DejaVuSans-Bold-4f" x="222.119141"/>
     <use xlink:href="#DejaVuSans-Bold-44" x="307.128906"/>
     <use xlink:href="#DejaVuSans-Bold-20" x="390.136719"/>
     <use xlink:href="#DejaVuSans-Bold-72" x="424.951172"/>
     <use xlink:href="#DejaVuSans-Bold-69" x="474.267578"/>
     <use xlink:href="#DejaVuSans-Bold-73" x="508.544922"/>
     <use xlink:href="#DejaVuSans-Bold-6b" x="568.066406"/>
     <use xlink:href="#DejaVuSans-Bold-20" x="634.570312"/>
     <use xlink:href="#DejaVuSans-Bold-62" x="669.384766"/>
     <use xlink:href="#DejaVuSans-Bold-79" x="740.966797"/>
     <use xlink:href="#DejaVuSans-Bold-20" x="806.152344"/>
     <use xlink:href="#DejaVuSans-Bold-73" x="840.966797"/>
     <use xlink:href="#DejaVuSans-Bold-68" x="900.488281"/>
     <use xlink:href="#DejaVuSans-Bold-69" x="971.679688"/>
     <use xlink:href="#DejaVuSans-Bold-66" x="1005.957031"/>
     <use xlink:href="#DejaVuSans-Bold-74" x="1049.462891"/>
     <use xlink:href="#DejaVuSans-Bold-20" x="1097.265625"/>
     <use xlink:href="#DejaVuSans-Bold-66" x="1132.080078"/>
     <use xlink:href="#DejaVuSans-Bold-61" x="1175.585938"/>
     <use xlink:href="#DejaVuSans-Bold-6d" x="1243.066406"/>
     <use xlink:href="#DejaVuSans-Bold-69" x="1347.265625"/>
     <use xlink:href="#DejaVuSans-Bold-6c" x="1381.542969"/>
     <use xlink:href="#DejaVuSans-Bold-79" x="1415.820312"/>
    </g>
    <!-- (color = unsafe rate) -->
    <g transform="translate(41.421797 65.414503) scale(0.09 -0.09)">
     <defs>
      <path id="DejaVuSans-Bold-28" d="M 2413 -844 
L 1484 -844 
Q 1006 -72 778 623 
Q 550 1319 550 2003 
Q 550 2688 779 3389 
Q 1009 4091 1484 4856 
L 2413 4856 
Q 2013 4116 1813 3408 
Q 1613 2700 1613 2009 
Q 1613 1319 1811 609 
Q 2009 -100 2413 -844 
z
" transform="scale(0.015625)"/>
      <path id="DejaVuSans-Bold-63" d="M 3366 3391 
L 3366 2478 
Q 3138 2634 2908 2709 
Q 2678 2784 2431 2784 
Q 1963 2784 1702 2511 
Q 1441 2238 1441 1747 
Q 1441 1256 1702 982 
Q 1963 709 2431 709 
Q 2694 709 2930 787 
Q 3166 866 3366 1019 
L 3366 103 
Q 3103 6 2833 -42 
Q 2563 -91 2291 -91 
Q 1344 -91 809 395 
Q 275 881 275 1747 
Q 275 2613 809 3098 
Q 1344 3584 2291 3584 
Q 2566 3584 2833 3536 
Q 3100 3488 3366 3391 
z
" transform="scale(0.015625)"/>
      <path id="DejaVuSans-Bold-6f" d="M 2203 2784 
Q 1831 2784 1636 2517 
Q 1441 2250 1441 1747 
Q 1441 1244 1636 976 
Q 1831 709 2203 709 
Q 2569 709 2762 976 
Q 2956 1244 2956 1747 
Q 2956 2250 2762 2517 
Q 2569 2784 2203 2784 
z
M 2203 3584 
Q 3106 3584 3614 3096 
Q 4122 2609 4122 1747 
Q 4122 884 3614 396 
Q 3106 -91 2203 -91 
Q 1297 -91 786 396 
Q 275 884 275 1747 
Q 275 2609 786 3096 
Q 1297 3584 2203 3584 
z
" transform="scale(0.015625)"/>
      <path id="DejaVuSans-Bold-3d" d="M 678 3084 
L 4684 3084 
L 4684 2350 
L 678 2350 
L 678 3084 
z
M 678 1663 
L 4684 1663 
L 4684 922 
L 678 922 
L 678 1663 
z
" transform="scale(0.015625)"/>
      <path id="DejaVuSans-Bold-75" d="M 500 1363 
L 500 3500 
L 1625 3500 
L 1625 3150 
Q 1625 2866 1622 2436 
Q 1619 2006 1619 1863 
Q 1619 1441 1641 1255 
Q 1663 1069 1716 984 
Q 1784 875 1895 815 
Q 2006 756 2150 756 
Q 2500 756 2700 1025 
Q 2900 1294 2900 1772 
L 2900 3500 
L 4019 3500 
L 4019 0 
L 2900 0 
L 2900 506 
Q 2647 200 2364 54 
Q 2081 -91 1741 -91 
Q 1134 -91 817 281 
Q 500 653 500 1363 
z
" transform="scale(0.015625)"/>
      <path id="DejaVuSans-Bold-6e" d="M 4056 2131 
L 4056 0 
L 2931 0 
L 2931 347 
L 2931 1631 
Q 2931 2084 2911 2256 
Q 2891 2428 2841 2509 
Q 2775 2619 2662 2680 
Q 2550 2741 2406 2741 
Q 2056 2741 1856 2470 
Q 1656 2200 1656 1722 
L 1656 0 
L 538 0 
L 538 3500 
L 1656 3500 
L 1656 2988 
Q 1909 3294 2193 3439 
Q 2478 3584 2822 3584 
Q 3428 3584 3742 3212 
Q 4056 2841 4056 2131 
z
" transform="scale(0.015625)"/>
      <path id="DejaVuSans-Bold-65" d="M 4031 1759 
L 4031 1441 
L 1416 1441 
Q 1456 1047 1700 850 
Q 1944 653 2381 653 
Q 2734 653 3104 758 
Q 3475 863 3866 1075 
L 3866 213 
Q 3469 63 3072 -14 
Q 2675 -91 2278 -91 
Q 1328 -91 801 392 
Q 275 875 275 1747 
Q 275 2603 792 3093 
Q 1309 3584 2216 3584 
Q 3041 3584 3536 3087 
Q 4031 2591 4031 1759 
z
M 2881 2131 
Q 2881 2450 2695 2645 
Q 2509 2841 2209 2841 
Q 1884 2841 1681 2658 
Q 1478 2475 1428 2131 
L 2881 2131 
z
" transform="scale(0.015625)"/>
      <path id="DejaVuSans-Bold-29" d="M 513 -844 
Q 913 -100 1113 609 
Q 1313 1319 1313 2009 
Q 1313 2700 1113 3408 
Q 913 4116 513 4856 
L 1441 4856 
Q 1916 4091 2145 3389 
Q 2375 2688 2375 2003 
Q 2375 1319 2147 623 
Q 1919 -72 1441 -844 
L 513 -844 
z
" transform="scale(0.015625)"/>
     </defs>
     <use xlink:href="#DejaVuSans-Bold-28"/>
     <use xlink:href="#DejaVuSans-Bold-63" x="45.703125"/>
     <use xlink:href="#DejaVuSans-Bold-6f" x="104.980469"/>
     <use xlink:href="#DejaVuSans-Bold-6c" x="173.681641"/>
     <use xlink:href="#DejaVuSans-Bold-6f" x="207.958984"/>
     <use xlink:href="#DejaVuSans-Bold-72" x="276.660156"/>
     <use xlink:href="#DejaVuSans-Bold-20" x="325.976562"/>
     <use xlink:href="#DejaVuSans-Bold-3d" x="360.791016"/>
     <use xlink:href="#DejaVuSans-Bold-20" x="444.580078"/>
     <use xlink:href="#DejaVuSans-Bold-75" x="479.394531"/>
     <use xlink:href="#DejaVuSans-Bold-6e" x="550.585938"/>
     <use xlink:href="#DejaVuSans-Bold-73" x="621.777344"/>
     <use xlink:href="#DejaVuSans-Bold-61" x="681.298828"/>
     <use xlink:href="#DejaVuSans-Bold-66" x="748.779297"/>
     <use xlink:href="#DejaVuSans-Bold-65" x="792.285156"/>
     <use xlink:href="#DejaVuSans-Bold-20" x="860.107422"/>
     <use xlink:href="#DejaVuSans-Bold-72" x="894.921875"/>
     <use xlink:href="#DejaVuSans-Bold-61" x="944.238281"/>
     <use xlink:href="#DejaVuSans-Bold-74" x="1011.71875"/>
     <use xlink:href="#DejaVuSans-Bold-65" x="1059.521484"/>
     <use xlink:href="#DejaVuSans-Bold-29" x="1127.34375"/>
    </g>
   </g>
  </g>
  <g id="axes_2">
   <g id="patch_12">
    <path d="M 262.043418 321.696 
L 407.989364 321.696 
L 407.989364 55.584 
L 262.043418 55.584 
z
" style="fill: #ffffff"/>
   </g>
   <g id="matplotlib.axis_3">
    <g id="xtick_9">
     <g id="line2d_17">
      <path d="M 263.783312 321.696 
L 263.783312 55.584 
" clip-path="url(#pc500b4748c)" style="fill: none; stroke: #e6e6e6; stroke-width: 0.6; stroke-linecap: square"/>
     </g>
     <g id="line2d_18">
      <defs>
       <path id="mffce7631be" d="M 0 0 
L 0 3.5 
" style="stroke: #000000; stroke-width: 0.8"/>
      </defs>
      <g>
       <use xlink:href="#mffce7631be" x="263.783312" y="321.696" style="stroke: #000000; stroke-width: 0.8"/>
      </g>
     </g>
     <g id="text_18">
      <!-- 2.8 -->
      <g transform="translate(258.217218 334.014906) scale(0.07 -0.07)">
       <defs>
        <path id="DejaVuSans-38" d="M 2034 2216 
Q 1584 2216 1326 1975 
Q 1069 1734 1069 1313 
Q 1069 891 1326 650 
Q 1584 409 2034 409 
Q 2484 409 2743 651 
Q 3003 894 3003 1313 
Q 3003 1734 2745 1975 
Q 2488 2216 2034 2216 
z
M 1403 2484 
Q 997 2584 770 2862 
Q 544 3141 544 3541 
Q 544 4100 942 4425 
Q 1341 4750 2034 4750 
Q 2731 4750 3128 4425 
Q 3525 4100 3525 3541 
Q 3525 3141 3298 2862 
Q 3072 2584 2669 2484 
Q 3125 2378 3379 2068 
Q 3634 1759 3634 1313 
Q 3634 634 3220 271 
Q 2806 -91 2034 -91 
Q 1263 -91 848 271 
Q 434 634 434 1313 
Q 434 1759 690 2068 
Q 947 2378 1403 2484 
z
M 1172 3481 
Q 1172 3119 1398 2916 
Q 1625 2713 2034 2713 
Q 2441 2713 2670 2916 
Q 2900 3119 2900 3481 
Q 2900 3844 2670 4047 
Q 2441 4250 2034 4250 
Q 1625 4250 1398 4047 
Q 1172 3844 1172 3481 
z
" transform="scale(0.015625)"/>
       </defs>
       <use xlink:href="#DejaVuSans-32"/>
       <use xlink:href="#DejaVuSans-2e" x="63.623047"/>
       <use xlink:href="#DejaVuSans-38" x="95.410156"/>
      </g>
     </g>
    </g>
    <g id="xtick_10">
     <g id="line2d_19">
      <path d="M 294.128831 321.696 
L 294.128831 55.584 
" clip-path="url(#pc500b4748c)" style="fill: none; stroke: #e6e6e6; stroke-width: 0.6; stroke-linecap: square"/>
     </g>
     <g id="line2d_20">
      <g>
       <use xlink:href="#mffce7631be" x="294.128831" y="321.696" style="stroke: #000000; stroke-width: 0.8"/>
      </g>
     </g>
     <g id="text_19">
      <!-- 3.0 -->
      <g transform="translate(288.562737 334.014906) scale(0.07 -0.07)">
       <use xlink:href="#DejaVuSans-33"/>
       <use xlink:href="#DejaVuSans-2e" x="63.623047"/>
       <use xlink:href="#DejaVuSans-30" x="95.410156"/>
      </g>
     </g>
    </g>
    <g id="xtick_11">
     <g id="line2d_21">
      <path d="M 324.47435 321.696 
L 324.47435 55.584 
" clip-path="url(#pc500b4748c)" style="fill: none; stroke: #e6e6e6; stroke-width: 0.6; stroke-linecap: square"/>
     </g>
     <g id="line2d_22">
      <g>
       <use xlink:href="#mffce7631be" x="324.47435" y="321.696" style="stroke: #000000; stroke-width: 0.8"/>
      </g>
     </g>
     <g id="text_20">
      <!-- 3.2 -->
      <g transform="translate(318.908256 334.014906) scale(0.07 -0.07)">
       <use xlink:href="#DejaVuSans-33"/>
       <use xlink:href="#DejaVuSans-2e" x="63.623047"/>
       <use xlink:href="#DejaVuSans-32" x="95.410156"/>
      </g>
     </g>
    </g>
    <g id="xtick_12">
     <g id="line2d_23">
      <path d="M 354.819869 321.696 
L 354.819869 55.584 
" clip-path="url(#pc500b4748c)" style="fill: none; stroke: #e6e6e6; stroke-width: 0.6; stroke-linecap: square"/>
     </g>
     <g id="line2d_24">
      <g>
       <use xlink:href="#mffce7631be" x="354.819869" y="321.696" style="stroke: #000000; stroke-width: 0.8"/>
      </g>
     </g>
     <g id="text_21">
      <!-- 3.4 -->
      <g transform="translate(349.253775 334.014906) scale(0.07 -0.07)">
       <use xlink:href="#DejaVuSans-33"/>
       <use xlink:href="#DejaVuSans-2e" x="63.623047"/>
       <use xlink:href="#DejaVuSans-34" x="95.410156"/>
      </g>
     </g>
    </g>
    <g id="xtick_13">
     <g id="line2d_25">
      <path d="M 385.165388 321.696 
L 385.165388 55.584 
" clip-path="url(#pc500b4748c)" style="fill: none; stroke: #e6e6e6; stroke-width: 0.6; stroke-linecap: square"/>
     </g>
     <g id="line2d_26">
      <g>
       <use xlink:href="#mffce7631be" x="385.165388" y="321.696" style="stroke: #000000; stroke-width: 0.8"/>
      </g>
     </g>
     <g id="text_22">
      <!-- 3.6 -->
      <g transform="translate(379.599294 334.014906) scale(0.07 -0.07)">
       <defs>
        <path id="DejaVuSans-36" d="M 2113 2584 
Q 1688 2584 1439 2293 
Q 1191 2003 1191 1497 
Q 1191 994 1439 701 
Q 1688 409 2113 409 
Q 2538 409 2786 701 
Q 3034 994 3034 1497 
Q 3034 2003 2786 2293 
Q 2538 2584 2113 2584 
z
M 3366 4563 
L 3366 3988 
Q 3128 4100 2886 4159 
Q 2644 4219 2406 4219 
Q 1781 4219 1451 3797 
Q 1122 3375 1075 2522 
Q 1259 2794 1537 2939 
Q 1816 3084 2150 3084 
Q 2853 3084 3261 2657 
Q 3669 2231 3669 1497 
Q 3669 778 3244 343 
Q 2819 -91 2113 -91 
Q 1303 -91 875 529 
Q 447 1150 447 2328 
Q 447 3434 972 4092 
Q 1497 4750 2381 4750 
Q 2619 4750 2861 4703 
Q 3103 4656 3366 4563 
z
" transform="scale(0.015625)"/>
       </defs>
       <use xlink:href="#DejaVuSans-33"/>
       <use xlink:href="#DejaVuSans-2e" x="63.623047"/>
       <use xlink:href="#DejaVuSans-36" x="95.410156"/>
      </g>
     </g>
    </g>
    <g id="text_23">
     <!-- Mean ensemble OOD score -->
     <g transform="translate(280.630766 345.549437) scale(0.08 -0.08)">
      <defs>
       <path id="DejaVuSans-4d" d="M 628 4666 
L 1569 4666 
L 2759 1491 
L 3956 4666 
L 4897 4666 
L 4897 0 
L 4281 0 
L 4281 4097 
L 3078 897 
L 2444 897 
L 1241 4097 
L 1241 0 
L 628 0 
L 628 4666 
z
" transform="scale(0.015625)"/>
       <path id="DejaVuSans-4f" d="M 2522 4238 
Q 1834 4238 1429 3725 
Q 1025 3213 1025 2328 
Q 1025 1447 1429 934 
Q 1834 422 2522 422 
Q 3209 422 3611 934 
Q 4013 1447 4013 2328 
Q 4013 3213 3611 3725 
Q 3209 4238 2522 4238 
z
M 2522 4750 
Q 3503 4750 4090 4092 
Q 4678 3434 4678 2328 
Q 4678 1225 4090 567 
Q 3503 -91 2522 -91 
Q 1538 -91 948 565 
Q 359 1222 359 2328 
Q 359 3434 948 4092 
Q 1538 4750 2522 4750 
z
" transform="scale(0.015625)"/>
       <path id="DejaVuSans-44" d="M 1259 4147 
L 1259 519 
L 2022 519 
Q 2988 519 3436 956 
Q 3884 1394 3884 2338 
Q 3884 3275 3436 3711 
Q 2988 4147 2022 4147 
L 1259 4147 
z
M 628 4666 
L 1925 4666 
Q 3281 4666 3915 4102 
Q 4550 3538 4550 2338 
Q 4550 1131 3912 565 
Q 3275 0 1925 0 
L 628 0 
L 628 4666 
z
" transform="scale(0.015625)"/>
      </defs>
      <use xlink:href="#DejaVuSans-4d"/>
      <use xlink:href="#DejaVuSans-65" x="86.279297"/>
      <use xlink:href="#DejaVuSans-61" x="147.802734"/>
      <use xlink:href="#DejaVuSans-6e" x="209.082031"/>
      <use xlink:href="#DejaVuSans-20" x="272.460938"/>
      <use xlink:href="#DejaVuSans-65" x="304.248047"/>
      <use xlink:href="#DejaVuSans-6e" x="365.771484"/>
      <use xlink:href="#DejaVuSans-73" x="429.150391"/>
      <use xlink:href="#DejaVuSans-65" x="481.25"/>
      <use xlink:href="#DejaVuSans-6d" x="542.773438"/>
      <use xlink:href="#DejaVuSans-62" x="640.185547"/>
      <use xlink:href="#DejaVuSans-6c" x="703.662109"/>
      <use xlink:href="#DejaVuSans-65" x="731.445312"/>
      <use xlink:href="#DejaVuSans-20" x="792.96875"/>
      <use xlink:href="#DejaVuSans-4f" x="824.755859"/>
      <use xlink:href="#DejaVuSans-4f" x="903.466797"/>
      <use xlink:href="#DejaVuSans-44" x="982.177734"/>
      <use xlink:href="#DejaVuSans-20" x="1059.179688"/>
      <use xlink:href="#DejaVuSans-73" x="1090.966797"/>
      <use xlink:href="#DejaVuSans-63" x="1143.066406"/>
      <use xlink:href="#DejaVuSans-6f" x="1198.046875"/>
      <use xlink:href="#DejaVuSans-72" x="1259.228516"/>
      <use xlink:href="#DejaVuSans-65" x="1298.091797"/>
     </g>
    </g>
   </g>
   <g id="matplotlib.axis_4">
    <g id="ytick_9">
     <g id="line2d_27">
      <path d="M 262.043418 309.6 
L 407.989364 309.6 
" clip-path="url(#pc500b4748c)" style="fill: none; stroke: #e6e6e6; stroke-width: 0.6; stroke-linecap: square"/>
     </g>
     <g id="line2d_28">
      <defs>
       <path id="mf64f2bf486" d="M 0 0 
L -3.5 0 
" style="stroke: #000000; stroke-width: 0.8"/>
      </defs>
      <g>
       <use xlink:href="#mf64f2bf486" x="262.043418" y="309.6" style="stroke: #000000; stroke-width: 0.8"/>
      </g>
     </g>
     <g id="text_24">
      <!-- 0.00 -->
      <g transform="translate(239.457481 312.259453) scale(0.07 -0.07)">
       <use xlink:href="#DejaVuSans-30"/>
       <use xlink:href="#DejaVuSans-2e" x="63.623047"/>
       <use xlink:href="#DejaVuSans-30" x="95.410156"/>
       <use xlink:href="#DejaVuSans-30" x="159.033203"/>
      </g>
     </g>
    </g>
    <g id="ytick_10">
     <g id="line2d_29">
      <path d="M 262.043418 259.8336 
L 407.989364 259.8336 
" clip-path="url(#pc500b4748c)" style="fill: none; stroke: #e6e6e6; stroke-width: 0.6; stroke-linecap: square"/>
     </g>
     <g id="line2d_30">
      <g>
       <use xlink:href="#mf64f2bf486" x="262.043418" y="259.8336" style="stroke: #000000; stroke-width: 0.8"/>
      </g>
     </g>
     <g id="text_25">
      <!-- 0.02 -->
      <g transform="translate(239.457481 262.493053) scale(0.07 -0.07)">
       <use xlink:href="#DejaVuSans-30"/>
       <use xlink:href="#DejaVuSans-2e" x="63.623047"/>
       <use xlink:href="#DejaVuSans-30" x="95.410156"/>
       <use xlink:href="#DejaVuSans-32" x="159.033203"/>
      </g>
     </g>
    </g>
    <g id="ytick_11">
     <g id="line2d_31">
      <path d="M 262.043418 210.0672 
L 407.989364 210.0672 
" clip-path="url(#pc500b4748c)" style="fill: none; stroke: #e6e6e6; stroke-width: 0.6; stroke-linecap: square"/>
     </g>
     <g id="line2d_32">
      <g>
       <use xlink:href="#mf64f2bf486" x="262.043418" y="210.0672" style="stroke: #000000; stroke-width: 0.8"/>
      </g>
     </g>
     <g id="text_26">
      <!-- 0.04 -->
      <g transform="translate(239.457481 212.726653) scale(0.07 -0.07)">
       <use xlink:href="#DejaVuSans-30"/>
       <use xlink:href="#DejaVuSans-2e" x="63.623047"/>
       <use xlink:href="#DejaVuSans-30" x="95.410156"/>
       <use xlink:href="#DejaVuSans-34" x="159.033203"/>
      </g>
     </g>
    </g>
    <g id="ytick_12">
     <g id="line2d_33">
      <path d="M 262.043418 160.3008 
L 407.989364 160.3008 
" clip-path="url(#pc500b4748c)" style="fill: none; stroke: #e6e6e6; stroke-width: 0.6; stroke-linecap: square"/>
     </g>
     <g id="line2d_34">
      <g>
       <use xlink:href="#mf64f2bf486" x="262.043418" y="160.3008" style="stroke: #000000; stroke-width: 0.8"/>
      </g>
     </g>
     <g id="text_27">
      <!-- 0.06 -->
      <g transform="translate(239.457481 162.960253) scale(0.07 -0.07)">
       <use xlink:href="#DejaVuSans-30"/>
       <use xlink:href="#DejaVuSans-2e" x="63.623047"/>
       <use xlink:href="#DejaVuSans-30" x="95.410156"/>
       <use xlink:href="#DejaVuSans-36" x="159.033203"/>
      </g>
     </g>
    </g>
    <g id="ytick_13">
     <g id="line2d_35">
      <path d="M 262.043418 110.5344 
L 407.989364 110.5344 
" clip-path="url(#pc500b4748c)" style="fill: none; stroke: #e6e6e6; stroke-width: 0.6; stroke-linecap: square"/>
     </g>
     <g id="line2d_36">
      <g>
       <use xlink:href="#mf64f2bf486" x="262.043418" y="110.5344" style="stroke: #000000; stroke-width: 0.8"/>
      </g>
     </g>
     <g id="text_28">
      <!-- 0.08 -->
      <g transform="translate(239.457481 113.193853) scale(0.07 -0.07)">
       <use xlink:href="#DejaVuSans-30"/>
       <use xlink:href="#DejaVuSans-2e" x="63.623047"/>
       <use xlink:href="#DejaVuSans-30" x="95.410156"/>
       <use xlink:href="#DejaVuSans-38" x="159.033203"/>
      </g>
     </g>
    </g>
    <g id="ytick_14">
     <g id="line2d_37">
      <path d="M 262.043418 60.768 
L 407.989364 60.768 
" clip-path="url(#pc500b4748c)" style="fill: none; stroke: #e6e6e6; stroke-width: 0.6; stroke-linecap: square"/>
     </g>
     <g id="line2d_38">
      <g>
       <use xlink:href="#mf64f2bf486" x="262.043418" y="60.768" style="stroke: #000000; stroke-width: 0.8"/>
      </g>
     </g>
     <g id="text_29">
      <!-- 0.10 -->
      <g transform="translate(239.457481 63.427453) scale(0.07 -0.07)">
       <use xlink:href="#DejaVuSans-30"/>
       <use xlink:href="#DejaVuSans-2e" x="63.623047"/>
       <use xlink:href="#DejaVuSans-31" x="95.410156"/>
       <use xlink:href="#DejaVuSans-30" x="159.033203"/>
      </g>
     </g>
    </g>
    <g id="text_30">
     <!-- Unsafe transition rate -->
     <g transform="translate(233.793731 232.23) rotate(-90) scale(0.08 -0.08)">
      <defs>
       <path id="DejaVuSans-55" d="M 556 4666 
L 1191 4666 
L 1191 1831 
Q 1191 1081 1462 751 
Q 1734 422 2344 422 
Q 2950 422 3222 751 
Q 3494 1081 3494 1831 
L 3494 4666 
L 4128 4666 
L 4128 1753 
Q 4128 841 3676 375 
Q 3225 -91 2344 -91 
Q 1459 -91 1007 375 
Q 556 841 556 1753 
L 556 4666 
z
" transform="scale(0.015625)"/>
       <path id="DejaVuSans-66" d="M 2375 4863 
L 2375 4384 
L 1825 4384 
Q 1516 4384 1395 4259 
Q 1275 4134 1275 3809 
L 1275 3500 
L 2222 3500 
L 2222 3053 
L 1275 3053 
L 1275 0 
L 697 0 
L 697 3053 
L 147 3053 
L 147 3500 
L 697 3500 
L 697 3744 
Q 697 4328 969 4595 
Q 1241 4863 1831 4863 
L 2375 4863 
z
" transform="scale(0.015625)"/>
      </defs>
      <use xlink:href="#DejaVuSans-55"/>
      <use xlink:href="#DejaVuSans-6e" x="73.193359"/>
      <use xlink:href="#DejaVuSans-73" x="136.572266"/>
      <use xlink:href="#DejaVuSans-61" x="188.671875"/>
      <use xlink:href="#DejaVuSans-66" x="249.951172"/>
      <use xlink:href="#DejaVuSans-65" x="285.15625"/>
      <use xlink:href="#DejaVuSans-20" x="346.679688"/>
      <use xlink:href="#DejaVuSans-74" x="378.466797"/>
      <use xlink:href="#DejaVuSans-72" x="417.675781"/>
      <use xlink:href="#DejaVuSans-61" x="458.789062"/>
      <use xlink:href="#DejaVuSans-6e" x="520.068359"/>
      <use xlink:href="#DejaVuSans-73" x="583.447266"/>
      <use xlink:href="#DejaVuSans-69" x="635.546875"/>
      <use xlink:href="#DejaVuSans-74" x="663.330078"/>
      <use xlink:href="#DejaVuSans-69" x="702.539062"/>
      <use xlink:href="#DejaVuSans-6f" x="730.322266"/>
      <use xlink:href="#DejaVuSans-6e" x="791.503906"/>
      <use xlink:href="#DejaVuSans-20" x="854.882812"/>
      <use xlink:href="#DejaVuSans-72" x="886.669922"/>
      <use xlink:href="#DejaVuSans-61" x="927.783203"/>
      <use xlink:href="#DejaVuSans-74" x="989.0625"/>
      <use xlink:href="#DejaVuSans-65" x="1028.271484"/>
     </g>
    </g>
   </g>
   <g id="PathCollection_1">
    <defs>
     <path id="C0_0_405f5a4b5d" d="M 0 3.708099 
C 0.983399 3.708099 1.926654 3.317391 2.622022 2.622022 
C 3.317391 1.926654 3.708099 0.983399 3.708099 -0 
C 3.708099 -0.983399 3.317391 -1.926654 2.622022 -2.622022 
C 1.926654 -3.317391 0.983399 -3.708099 0 -3.708099 
C -0.983399 -3.708099 -1.926654 -3.317391 -2.622022 -2.622022 
C -3.317391 -1.926654 -3.708099 -0.983399 -3.708099 0 
C -3.708099 0.983399 -3.317391 1.926654 -2.622022 2.622022 
C -1.926654 3.317391 -0.983399 3.708099 0 3.708099 
z
"/>
    </defs>
    <g clip-path="url(#pc500b4748c)">
     <use xlink:href="#C0_0_405f5a4b5d" x="268.677325" y="309.6" style="fill: #fff5f0; stroke: #333333; stroke-width: 0.5"/>
    </g>
    <g clip-path="url(#pc500b4748c)">
     <use xlink:href="#C0_0_405f5a4b5d" x="298.963675" y="309.6" style="fill: #fff5f0; stroke: #333333; stroke-width: 0.5"/>
    </g>
    <g clip-path="url(#pc500b4748c)">
     <use xlink:href="#C0_0_405f5a4b5d" x="322.137908" y="309.6" style="fill: #fff5f0; stroke: #333333; stroke-width: 0.5"/>
    </g>
    <g clip-path="url(#pc500b4748c)">
     <use xlink:href="#C0_0_405f5a4b5d" x="324.662923" y="275.04" style="fill: #ffece4; stroke: #333333; stroke-width: 0.5"/>
    </g>
    <g clip-path="url(#pc500b4748c)">
     <use xlink:href="#C0_0_405f5a4b5d" x="350.674889" y="283.68" style="fill: #fff2ec; stroke: #333333; stroke-width: 0.5"/>
    </g>
    <g clip-path="url(#pc500b4748c)">
     <use xlink:href="#C0_0_405f5a4b5d" x="375.69337" y="128.16" style="fill: #f24633; stroke: #333333; stroke-width: 0.5"/>
    </g>
    <g clip-path="url(#pc500b4748c)">
     <use xlink:href="#C0_0_405f5a4b5d" x="388.975079" y="67.68" style="fill: #67000d; stroke: #333333; stroke-width: 0.5"/>
    </g>
    <g clip-path="url(#pc500b4748c)">
     <use xlink:href="#C0_0_405f5a4b5d" x="401.355458" y="223.2" style="fill: #fdd4c2; stroke: #333333; stroke-width: 0.5"/>
    </g>
   </g>
   <g id="patch_13">
    <path d="M 262.043418 321.696 
L 262.043418 55.584 
" style="fill: none; stroke: #000000; stroke-width: 0.8; stroke-linejoin: miter; stroke-linecap: square"/>
   </g>
   <g id="patch_14">
    <path d="M 262.043418 321.696 
L 407.989364 321.696 
" style="fill: none; stroke: #000000; stroke-width: 0.8; stroke-linejoin: miter; stroke-linecap: square"/>
   </g>
   <g id="text_31">
    <!-- In-dist. -->
    <g transform="translate(301.239589 304.62336) scale(0.065 -0.065)">
     <use xlink:href="#DejaVuSans-49"/>
     <use xlink:href="#DejaVuSans-6e" x="29.492188"/>
     <use xlink:href="#DejaVuSans-2d" x="92.871094"/>
     <use xlink:href="#DejaVuSans-64" x="128.955078"/>
     <use xlink:href="#DejaVuSans-69" x="192.431641"/>
     <use xlink:href="#DejaVuSans-73" x="220.214844"/>
     <use xlink:href="#DejaVuSans-74" x="272.314453"/>
     <use xlink:href="#DejaVuSans-2e" x="311.523438"/>
    </g>
   </g>
   <g id="text_32">
    <!-- Load +20% -->
    <g transform="translate(352.950803 278.70336) scale(0.065 -0.065)">
     <use xlink:href="#DejaVuSans-4c"/>
     <use xlink:href="#DejaVuSans-6f" x="53.962891"/>
     <use xlink:href="#DejaVuSans-61" x="115.144531"/>
     <use xlink:href="#DejaVuSans-64" x="176.423828"/>
     <use xlink:href="#DejaVuSans-20" x="239.900391"/>
     <use xlink:href="#DejaVuSans-2b" x="271.6875"/>
     <use xlink:href="#DejaVuSans-32" x="355.476562"/>
     <use xlink:href="#DejaVuSans-30" x="419.099609"/>
     <use xlink:href="#DejaVuSans-25" x="482.722656"/>
    </g>
   </g>
   <g id="text_33">
    <!-- Cold wave -->
    <g transform="translate(377.969284 123.18336) scale(0.065 -0.065)">
     <use xlink:href="#DejaVuSans-43"/>
     <use xlink:href="#DejaVuSans-6f" x="69.824219"/>
     <use xlink:href="#DejaVuSans-6c" x="131.005859"/>
     <use xlink:href="#DejaVuSans-64" x="158.789062"/>
     <use xlink:href="#DejaVuSans-20" x="222.265625"/>
     <use xlink:href="#DejaVuSans-77" x="254.052734"/>
     <use xlink:href="#DejaVuSans-61" x="335.839844"/>
     <use xlink:href="#DejaVuSans-76" x="397.119141"/>
     <use xlink:href="#DejaVuSans-65" x="456.298828"/>
    </g>
   </g>
   <g id="text_34">
    <!-- Compound -->
    <g transform="translate(391.250993 62.70336) scale(0.065 -0.065)">
     <use xlink:href="#DejaVuSans-43"/>
     <use xlink:href="#DejaVuSans-6f" x="69.824219"/>
     <use xlink:href="#DejaVuSans-6d" x="131.005859"/>
     <use xlink:href="#DejaVuSans-70" x="228.417969"/>
     <use xlink:href="#DejaVuSans-6f" x="291.894531"/>
     <use xlink:href="#DejaVuSans-75" x="353.076172"/>
     <use xlink:href="#DejaVuSans-6e" x="416.455078"/>
     <use xlink:href="#DejaVuSans-64" x="479.833984"/>
    </g>
   </g>
   <g id="text_35">
    <!-- load_up_35 -->
    <g transform="translate(403.631372 218.22336) scale(0.065 -0.065)">
     <defs>
      <path id="DejaVuSans-5f" d="M 3263 -1063 
L 3263 -1509 
L -63 -1509 
L -63 -1063 
L 3263 -1063 
z
" transform="scale(0.015625)"/>
     </defs>
     <use xlink:href="#DejaVuSans-6c"/>
     <use xlink:href="#DejaVuSans-6f" x="27.783203"/>
     <use xlink:href="#DejaVuSans-61" x="88.964844"/>
     <use xlink:href="#DejaVuSans-64" x="150.244141"/>
     <use xlink:href="#DejaVuSans-5f" x="213.720703"/>
     <use xlink:href="#DejaVuSans-75" x="263.720703"/>
     <use xlink:href="#DejaVuSans-70" x="327.099609"/>
     <use xlink:href="#DejaVuSans-5f" x="390.576172"/>
     <use xlink:href="#DejaVuSans-33" x="440.576172"/>
     <use xlink:href="#DejaVuSans-35" x="504.199219"/>
    </g>
   </g>
   <g id="text_36">
    <!-- b  Risk is useful but imperfect -->
    <g transform="translate(262.043418 49.584) scale(0.09 -0.09)">
     <defs>
      <path id="DejaVuSans-Bold-52" d="M 2297 2597 
Q 2675 2597 2839 2737 
Q 3003 2878 3003 3200 
Q 3003 3519 2839 3656 
Q 2675 3794 2297 3794 
L 1791 3794 
L 1791 2597 
L 2297 2597 
z
M 1791 1766 
L 1791 0 
L 588 0 
L 588 4666 
L 2425 4666 
Q 3347 4666 3776 4356 
Q 4206 4047 4206 3378 
Q 4206 2916 3982 2619 
Q 3759 2322 3309 2181 
Q 3556 2125 3751 1926 
Q 3947 1728 4147 1325 
L 4800 0 
L 3519 0 
L 2950 1159 
Q 2778 1509 2601 1637 
Q 2425 1766 2131 1766 
L 1791 1766 
z
" transform="scale(0.015625)"/>
      <path id="DejaVuSans-Bold-70" d="M 1656 506 
L 1656 -1331 
L 538 -1331 
L 538 3500 
L 1656 3500 
L 1656 2988 
Q 1888 3294 2169 3439 
Q 2450 3584 2816 3584 
Q 3463 3584 3878 3070 
Q 4294 2556 4294 1747 
Q 4294 938 3878 423 
Q 3463 -91 2816 -91 
Q 2450 -91 2169 54 
Q 1888 200 1656 506 
z
M 2400 2772 
Q 2041 2772 1848 2508 
Q 1656 2244 1656 1747 
Q 1656 1250 1848 986 
Q 2041 722 2400 722 
Q 2759 722 2948 984 
Q 3138 1247 3138 1747 
Q 3138 2247 2948 2509 
Q 2759 2772 2400 2772 
z
" transform="scale(0.015625)"/>
     </defs>
     <use xlink:href="#DejaVuSans-Bold-62"/>
     <use xlink:href="#DejaVuSans-Bold-20" x="71.582031"/>
     <use xlink:href="#DejaVuSans-Bold-20" x="106.396484"/>
     <use xlink:href="#DejaVuSans-Bold-52" x="141.210938"/>
     <use xlink:href="#DejaVuSans-Bold-69" x="218.212891"/>
     <use xlink:href="#DejaVuSans-Bold-73" x="252.490234"/>
     <use xlink:href="#DejaVuSans-Bold-6b" x="312.011719"/>
     <use xlink:href="#DejaVuSans-Bold-20" x="378.515625"/>
     <use xlink:href="#DejaVuSans-Bold-69" x="413.330078"/>
     <use xlink:href="#DejaVuSans-Bold-73" x="447.607422"/>
     <use xlink:href="#DejaVuSans-Bold-20" x="507.128906"/>
     <use xlink:href="#DejaVuSans-Bold-75" x="541.943359"/>
     <use xlink:href="#DejaVuSans-Bold-73" x="613.134766"/>
     <use xlink:href="#DejaVuSans-Bold-65" x="672.65625"/>
     <use xlink:href="#DejaVuSans-Bold-66" x="740.478516"/>
     <use xlink:href="#DejaVuSans-Bold-75" x="783.984375"/>
     <use xlink:href="#DejaVuSans-Bold-6c" x="855.175781"/>
     <use xlink:href="#DejaVuSans-Bold-20" x="889.453125"/>
     <use xlink:href="#DejaVuSans-Bold-62" x="924.267578"/>
     <use xlink:href="#DejaVuSans-Bold-75" x="995.849609"/>
     <use xlink:href="#DejaVuSans-Bold-74" x="1067.041016"/>
     <use xlink:href="#DejaVuSans-Bold-20" x="1114.84375"/>
     <use xlink:href="#DejaVuSans-Bold-69" x="1149.658203"/>
     <use xlink:href="#DejaVuSans-Bold-6d" x="1183.935547"/>
     <use xlink:href="#DejaVuSans-Bold-70" x="1288.134766"/>
     <use xlink:href="#DejaVuSans-Bold-65" x="1359.716797"/>
     <use xlink:href="#DejaVuSans-Bold-72" x="1427.539062"/>
     <use xlink:href="#DejaVuSans-Bold-66" x="1476.855469"/>
     <use xlink:href="#DejaVuSans-Bold-65" x="1520.361328"/>
     <use xlink:href="#DejaVuSans-Bold-63" x="1588.183594"/>
     <use xlink:href="#DejaVuSans-Bold-74" x="1647.460938"/>
    </g>
   </g>
  </g>
  <g id="axes_3">
   <g id="patch_15">
    <path d="M 460.773148 321.696 
L 599.421797 321.696 
L 599.421797 55.584 
L 460.773148 55.584 
z
" style="fill: #ffffff"/>
   </g>
   <g id="matplotlib.axis_5">
    <g id="xtick_14">
     <g id="line2d_39">
      <path d="M 489.438045 321.696 
L 489.438045 55.584 
" clip-path="url(#p6d2065571f)" style="fill: none; stroke: #e6e6e6; stroke-width: 0.6; stroke-linecap: square"/>
     </g>
     <g id="line2d_40">
      <g>
       <use xlink:href="#mffce7631be" x="489.438045" y="321.696" style="stroke: #000000; stroke-width: 0.8"/>
      </g>
     </g>
     <g id="text_37">
      <!-- AUROC -->
      <g transform="translate(476.85117 334.014906) scale(0.07 -0.07)">
       <defs>
        <path id="DejaVuSans-41" d="M 2188 4044 
L 1331 1722 
L 3047 1722 
L 2188 4044 
z
M 1831 4666 
L 2547 4666 
L 4325 0 
L 3669 0 
L 3244 1197 
L 1141 1197 
L 716 0 
L 50 0 
L 1831 4666 
z
" transform="scale(0.015625)"/>
        <path id="DejaVuSans-52" d="M 2841 2188 
Q 3044 2119 3236 1894 
Q 3428 1669 3622 1275 
L 4263 0 
L 3584 0 
L 2988 1197 
Q 2756 1666 2539 1819 
Q 2322 1972 1947 1972 
L 1259 1972 
L 1259 0 
L 628 0 
L 628 4666 
L 2053 4666 
Q 2853 4666 3247 4331 
Q 3641 3997 3641 3322 
Q 3641 2881 3436 2590 
Q 3231 2300 2841 2188 
z
M 1259 4147 
L 1259 2491 
L 2053 2491 
Q 2509 2491 2742 2702 
Q 2975 2913 2975 3322 
Q 2975 3731 2742 3939 
Q 2509 4147 2053 4147 
L 1259 4147 
z
" transform="scale(0.015625)"/>
       </defs>
       <use xlink:href="#DejaVuSans-41"/>
       <use xlink:href="#DejaVuSans-55" x="68.408203"/>
       <use xlink:href="#DejaVuSans-52" x="141.601562"/>
       <use xlink:href="#DejaVuSans-4f" x="211.083984"/>
       <use xlink:href="#DejaVuSans-43" x="289.794922"/>
      </g>
     </g>
    </g>
    <g id="xtick_15">
     <g id="line2d_41">
      <path d="M 570.7569 321.696 
L 570.7569 55.584 
" clip-path="url(#p6d2065571f)" style="fill: none; stroke: #e6e6e6; stroke-width: 0.6; stroke-linecap: square"/>
     </g>
     <g id="line2d_42">
      <g>
       <use xlink:href="#mffce7631be" x="570.7569" y="321.696" style="stroke: #000000; stroke-width: 0.8"/>
      </g>
     </g>
     <g id="text_38">
      <!-- AUPRC -->
      <g transform="translate(558.989791 334.014906) scale(0.07 -0.07)">
       <defs>
        <path id="DejaVuSans-50" d="M 1259 4147 
L 1259 2394 
L 2053 2394 
Q 2494 2394 2734 2622 
Q 2975 2850 2975 3272 
Q 2975 3691 2734 3919 
Q 2494 4147 2053 4147 
L 1259 4147 
z
M 628 4666 
L 2053 4666 
Q 2838 4666 3239 4311 
Q 3641 3956 3641 3272 
Q 3641 2581 3239 2228 
Q 2838 1875 2053 1875 
L 1259 1875 
L 1259 0 
L 628 0 
L 628 4666 
z
" transform="scale(0.015625)"/>
       </defs>
       <use xlink:href="#DejaVuSans-41"/>
       <use xlink:href="#DejaVuSans-55" x="68.408203"/>
       <use xlink:href="#DejaVuSans-50" x="141.601562"/>
       <use xlink:href="#DejaVuSans-52" x="201.904297"/>
       <use xlink:href="#DejaVuSans-43" x="266.386719"/>
      </g>
     </g>
    </g>
   </g>
   <g id="matplotlib.axis_6">
    <g id="ytick_15">
     <g id="line2d_43">
      <path d="M 460.773148 321.696 
L 599.421797 321.696 
" clip-path="url(#p6d2065571f)" style="fill: none; stroke: #e6e6e6; stroke-width: 0.6; stroke-linecap: square"/>
     </g>
     <g id="line2d_44">
      <g>
       <use xlink:href="#mf64f2bf486" x="460.773148" y="321.696" style="stroke: #000000; stroke-width: 0.8"/>
      </g>
     </g>
     <g id="text_39">
      <!-- 0.0 -->
      <g transform="translate(442.640961 324.355453) scale(0.07 -0.07)">
       <use xlink:href="#DejaVuSans-30"/>
       <use xlink:href="#DejaVuSans-2e" x="63.623047"/>
       <use xlink:href="#DejaVuSans-30" x="95.410156"/>
      </g>
     </g>
    </g>
    <g id="ytick_16">
     <g id="line2d_45">
      <path d="M 460.773148 268.4736 
L 599.421797 268.4736 
" clip-path="url(#p6d2065571f)" style="fill: none; stroke: #e6e6e6; stroke-width: 0.6; stroke-linecap: square"/>
     </g>
     <g id="line2d_46">
      <g>
       <use xlink:href="#mf64f2bf486" x="460.773148" y="268.4736" style="stroke: #000000; stroke-width: 0.8"/>
      </g>
     </g>
     <g id="text_40">
      <!-- 0.2 -->
      <g transform="translate(442.640961 271.133053) scale(0.07 -0.07)">
       <use xlink:href="#DejaVuSans-30"/>
       <use xlink:href="#DejaVuSans-2e" x="63.623047"/>
       <use xlink:href="#DejaVuSans-32" x="95.410156"/>
      </g>
     </g>
    </g>
    <g id="ytick_17">
     <g id="line2d_47">
      <path d="M 460.773148 215.2512 
L 599.421797 215.2512 
" clip-path="url(#p6d2065571f)" style="fill: none; stroke: #e6e6e6; stroke-width: 0.6; stroke-linecap: square"/>
     </g>
     <g id="line2d_48">
      <g>
       <use xlink:href="#mf64f2bf486" x="460.773148" y="215.2512" style="stroke: #000000; stroke-width: 0.8"/>
      </g>
     </g>
     <g id="text_41">
      <!-- 0.4 -->
      <g transform="translate(442.640961 217.910653) scale(0.07 -0.07)">
       <use xlink:href="#DejaVuSans-30"/>
       <use xlink:href="#DejaVuSans-2e" x="63.623047"/>
       <use xlink:href="#DejaVuSans-34" x="95.410156"/>
      </g>
     </g>
    </g>
    <g id="ytick_18">
     <g id="line2d_49">
      <path d="M 460.773148 162.0288 
L 599.421797 162.0288 
" clip-path="url(#p6d2065571f)" style="fill: none; stroke: #e6e6e6; stroke-width: 0.6; stroke-linecap: square"/>
     </g>
     <g id="line2d_50">
      <g>
       <use xlink:href="#mf64f2bf486" x="460.773148" y="162.0288" style="stroke: #000000; stroke-width: 0.8"/>
      </g>
     </g>
     <g id="text_42">
      <!-- 0.6 -->
      <g transform="translate(442.640961 164.688253) scale(0.07 -0.07)">
       <use xlink:href="#DejaVuSans-30"/>
       <use xlink:href="#DejaVuSans-2e" x="63.623047"/>
       <use xlink:href="#DejaVuSans-36" x="95.410156"/>
      </g>
     </g>
    </g>
    <g id="ytick_19">
     <g id="line2d_51">
      <path d="M 460.773148 108.8064 
L 599.421797 108.8064 
" clip-path="url(#p6d2065571f)" style="fill: none; stroke: #e6e6e6; stroke-width: 0.6; stroke-linecap: square"/>
     </g>
     <g id="line2d_52">
      <g>
       <use xlink:href="#mf64f2bf486" x="460.773148" y="108.8064" style="stroke: #000000; stroke-width: 0.8"/>
      </g>
     </g>
     <g id="text_43">
      <!-- 0.8 -->
      <g transform="translate(442.640961 111.465853) scale(0.07 -0.07)">
       <use xlink:href="#DejaVuSans-30"/>
       <use xlink:href="#DejaVuSans-2e" x="63.623047"/>
       <use xlink:href="#DejaVuSans-38" x="95.410156"/>
      </g>
     </g>
    </g>
    <g id="ytick_20">
     <g id="line2d_53">
      <path d="M 460.773148 55.584 
L 599.421797 55.584 
" clip-path="url(#p6d2065571f)" style="fill: none; stroke: #e6e6e6; stroke-width: 0.6; stroke-linecap: square"/>
     </g>
     <g id="line2d_54">
      <g>
       <use xlink:href="#mf64f2bf486" x="460.773148" y="55.584" style="stroke: #000000; stroke-width: 0.8"/>
      </g>
     </g>
     <g id="text_44">
      <!-- 1.0 -->
      <g transform="translate(442.640961 58.243453) scale(0.07 -0.07)">
       <use xlink:href="#DejaVuSans-31"/>
       <use xlink:href="#DejaVuSans-2e" x="63.623047"/>
       <use xlink:href="#DejaVuSans-30" x="95.410156"/>
      </g>
     </g>
    </g>
    <g id="text_45">
     <!-- Score -->
     <g transform="translate(436.977211 199.841875) rotate(-90) scale(0.08 -0.08)">
      <defs>
       <path id="DejaVuSans-53" d="M 3425 4513 
L 3425 3897 
Q 3066 4069 2747 4153 
Q 2428 4238 2131 4238 
Q 1616 4238 1336 4038 
Q 1056 3838 1056 3469 
Q 1056 3159 1242 3001 
Q 1428 2844 1947 2747 
L 2328 2669 
Q 3034 2534 3370 2195 
Q 3706 1856 3706 1288 
Q 3706 609 3251 259 
Q 2797 -91 1919 -91 
Q 1588 -91 1214 -16 
Q 841 59 441 206 
L 441 856 
Q 825 641 1194 531 
Q 1563 422 1919 422 
Q 2459 422 2753 634 
Q 3047 847 3047 1241 
Q 3047 1584 2836 1778 
Q 2625 1972 2144 2069 
L 1759 2144 
Q 1053 2284 737 2584 
Q 422 2884 422 3419 
Q 422 4038 858 4394 
Q 1294 4750 2059 4750 
Q 2388 4750 2728 4690 
Q 3069 4631 3425 4513 
z
" transform="scale(0.015625)"/>
      </defs>
      <use xlink:href="#DejaVuSans-53"/>
      <use xlink:href="#DejaVuSans-63" x="63.476562"/>
      <use xlink:href="#DejaVuSans-6f" x="118.457031"/>
      <use xlink:href="#DejaVuSans-72" x="179.638672"/>
      <use xlink:href="#DejaVuSans-65" x="218.501953"/>
     </g>
    </g>
   </g>
   <g id="patch_16">
    <path d="M 467.07536 321.696 
L 511.80073 321.696 
L 511.80073 133.389629 
L 467.07536 133.389629 
z
" clip-path="url(#p6d2065571f)" style="fill: #1f4e79"/>
   </g>
   <g id="patch_17">
    <path d="M 548.394215 321.696 
L 593.119586 321.696 
L 593.119586 311.675804 
L 548.394215 311.675804 
z
" clip-path="url(#p6d2065571f)" style="fill: #f2a900"/>
   </g>
   <g id="line2d_55">
    <path d="M 460.773148 188.64 
L 599.421797 188.64 
" clip-path="url(#p6d2065571f)" style="fill: none; stroke-dasharray: 3.7,1.6; stroke-dashoffset: 0; stroke: #999999"/>
   </g>
   <g id="patch_18">
    <path d="M 460.773148 321.696 
L 460.773148 55.584 
" style="fill: none; stroke: #000000; stroke-width: 0.8; stroke-linejoin: miter; stroke-linecap: square"/>
   </g>
   <g id="patch_19">
    <path d="M 460.773148 321.696 
L 599.421797 321.696 
" style="fill: none; stroke: #000000; stroke-width: 0.8; stroke-linejoin: miter; stroke-linecap: square"/>
   </g>
   <g id="text_46">
    <!-- 0.708 -->
    <g transform="translate(477.986795 124.075709) scale(0.08 -0.08)">
     <defs>
      <path id="DejaVuSans-37" d="M 525 4666 
L 3525 4666 
L 3525 4397 
L 1831 0 
L 1172 0 
L 2766 4134 
L 525 4134 
L 525 4666 
z
" transform="scale(0.015625)"/>
     </defs>
     <use xlink:href="#DejaVuSans-30"/>
     <use xlink:href="#DejaVuSans-2e" x="63.623047"/>
     <use xlink:href="#DejaVuSans-37" x="95.410156"/>
     <use xlink:href="#DejaVuSans-30" x="159.033203"/>
     <use xlink:href="#DejaVuSans-38" x="222.65625"/>
    </g>
   </g>
   <g id="text_47">
    <!-- 0.038 -->
    <g transform="translate(559.30565 302.361884) scale(0.08 -0.08)">
     <use xlink:href="#DejaVuSans-30"/>
     <use xlink:href="#DejaVuSans-2e" x="63.623047"/>
     <use xlink:href="#DejaVuSans-30" x="95.410156"/>
     <use xlink:href="#DejaVuSans-33" x="159.033203"/>
     <use xlink:href="#DejaVuSans-38" x="222.65625"/>
    </g>
   </g>
   <g id="text_48">
    <!-- c  Global hard-safety detection -->
    <g transform="translate(460.773148 49.584) scale(0.09 -0.09)">
     <defs>
      <path id="DejaVuSans-Bold-47" d="M 4781 347 
Q 4331 128 3847 18 
Q 3363 -91 2847 -91 
Q 1681 -91 1000 561 
Q 319 1213 319 2328 
Q 319 3456 1012 4103 
Q 1706 4750 2913 4750 
Q 3378 4750 3804 4662 
Q 4231 4575 4609 4403 
L 4609 3438 
Q 4219 3659 3833 3768 
Q 3447 3878 3059 3878 
Q 2341 3878 1952 3476 
Q 1563 3075 1563 2328 
Q 1563 1588 1938 1184 
Q 2313 781 3003 781 
Q 3191 781 3352 804 
Q 3513 828 3641 878 
L 3641 1784 
L 2906 1784 
L 2906 2591 
L 4781 2591 
L 4781 347 
z
" transform="scale(0.015625)"/>
      <path id="DejaVuSans-Bold-64" d="M 2919 2988 
L 2919 4863 
L 4044 4863 
L 4044 0 
L 2919 0 
L 2919 506 
Q 2688 197 2409 53 
Q 2131 -91 1766 -91 
Q 1119 -91 703 423 
Q 288 938 288 1747 
Q 288 2556 703 3070 
Q 1119 3584 1766 3584 
Q 2128 3584 2408 3439 
Q 2688 3294 2919 2988 
z
M 2181 722 
Q 2541 722 2730 984 
Q 2919 1247 2919 1747 
Q 2919 2247 2730 2509 
Q 2541 2772 2181 2772 
Q 1825 2772 1636 2509 
Q 1447 2247 1447 1747 
Q 1447 1247 1636 984 
Q 1825 722 2181 722 
z
" transform="scale(0.015625)"/>
      <path id="DejaVuSans-Bold-2d" d="M 347 2297 
L 2309 2297 
L 2309 1388 
L 347 1388 
L 347 2297 
z
" transform="scale(0.015625)"/>
     </defs>
     <use xlink:href="#DejaVuSans-Bold-63"/>
     <use xlink:href="#DejaVuSans-Bold-20" x="59.277344"/>
     <use xlink:href="#DejaVuSans-Bold-20" x="94.091797"/>
     <use xlink:href="#DejaVuSans-Bold-47" x="128.90625"/>
     <use xlink:href="#DejaVuSans-Bold-6c" x="210.986328"/>
     <use xlink:href="#DejaVuSans-Bold-6f" x="245.263672"/>
     <use xlink:href="#DejaVuSans-Bold-62" x="313.964844"/>
     <use xlink:href="#DejaVuSans-Bold-61" x="385.546875"/>
     <use xlink:href="#DejaVuSans-Bold-6c" x="453.027344"/>
     <use xlink:href="#DejaVuSans-Bold-20" x="487.304688"/>
     <use xlink:href="#DejaVuSans-Bold-68" x="522.119141"/>
     <use xlink:href="#DejaVuSans-Bold-61" x="593.310547"/>
     <use xlink:href="#DejaVuSans-Bold-72" x="660.791016"/>
     <use xlink:href="#DejaVuSans-Bold-64" x="710.107422"/>
     <use xlink:href="#DejaVuSans-Bold-2d" x="781.689453"/>
     <use xlink:href="#DejaVuSans-Bold-73" x="823.193359"/>
     <use xlink:href="#DejaVuSans-Bold-61" x="882.714844"/>
     <use xlink:href="#DejaVuSans-Bold-66" x="950.195312"/>
     <use xlink:href="#DejaVuSans-Bold-65" x="993.701172"/>
     <use xlink:href="#DejaVuSans-Bold-74" x="1061.523438"/>
     <use xlink:href="#DejaVuSans-Bold-79" x="1109.326172"/>
     <use xlink:href="#DejaVuSans-Bold-20" x="1174.511719"/>
     <use xlink:href="#DejaVuSans-Bold-64" x="1209.326172"/>
     <use xlink:href="#DejaVuSans-Bold-65" x="1280.908203"/>
     <use xlink:href="#DejaVuSans-Bold-74" x="1348.730469"/>
     <use xlink:href="#DejaVuSans-Bold-65" x="1396.533203"/>
     <use xlink:href="#DejaVuSans-Bold-63" x="1464.355469"/>
     <use xlink:href="#DejaVuSans-Bold-74" x="1523.632812"/>
     <use xlink:href="#DejaVuSans-Bold-69" x="1571.435547"/>
     <use xlink:href="#DejaVuSans-Bold-6f" x="1605.712891"/>
     <use xlink:href="#DejaVuSans-Bold-6e" x="1674.414062"/>
    </g>
   </g>
  </g>
  <g id="text_49">
   <!-- OOD risk rises under safety-relevant distribution shifts, but is not a safety certificate -->
   <g transform="translate(45.746016 15.558281) scale(0.11 -0.11)">
    <defs>
     <path id="DejaVuSans-Bold-76" d="M 97 3500 
L 1216 3500 
L 2088 1081 
L 2956 3500 
L 4078 3500 
L 2700 0 
L 1472 0 
L 97 3500 
z
" transform="scale(0.015625)"/>
     <path id="DejaVuSans-Bold-2c" d="M 653 1209 
L 1778 1209 
L 1778 256 
L 1006 -909 
L 341 -909 
L 653 256 
L 653 1209 
z
" transform="scale(0.015625)"/>
    </defs>
    <use xlink:href="#DejaVuSans-Bold-4f"/>
    <use xlink:href="#DejaVuSans-Bold-4f" x="85.009766"/>
    <use xlink:href="#DejaVuSans-Bold-44" x="170.019531"/>
    <use xlink:href="#DejaVuSans-Bold-20" x="253.027344"/>
    <use xlink:href="#DejaVuSans-Bold-72" x="287.841797"/>
    <use xlink:href="#DejaVuSans-Bold-69" x="337.158203"/>
    <use xlink:href="#DejaVuSans-Bold-73" x="371.435547"/>
    <use xlink:href="#DejaVuSans-Bold-6b" x="430.957031"/>
    <use xlink:href="#DejaVuSans-Bold-20" x="497.460938"/>
    <use xlink:href="#DejaVuSans-Bold-72" x="532.275391"/>
    <use xlink:href="#DejaVuSans-Bold-69" x="581.591797"/>
    <use xlink:href="#DejaVuSans-Bold-73" x="615.869141"/>
    <use xlink:href="#DejaVuSans-Bold-65" x="675.390625"/>
    <use xlink:href="#DejaVuSans-Bold-73" x="743.212891"/>
    <use xlink:href="#DejaVuSans-Bold-20" x="802.734375"/>
    <use xlink:href="#DejaVuSans-Bold-75" x="837.548828"/>
    <use xlink:href="#DejaVuSans-Bold-6e" x="908.740234"/>
    <use xlink:href="#DejaVuSans-Bold-64" x="979.931641"/>
    <use xlink:href="#DejaVuSans-Bold-65" x="1051.513672"/>
    <use xlink:href="#DejaVuSans-Bold-72" x="1119.335938"/>
    <use xlink:href="#DejaVuSans-Bold-20" x="1168.652344"/>
    <use xlink:href="#DejaVuSans-Bold-73" x="1203.466797"/>
    <use xlink:href="#DejaVuSans-Bold-61" x="1262.988281"/>
    <use xlink:href="#DejaVuSans-Bold-66" x="1330.46875"/>
    <use xlink:href="#DejaVuSans-Bold-65" x="1373.974609"/>
    <use xlink:href="#DejaVuSans-Bold-74" x="1441.796875"/>
    <use xlink:href="#DejaVuSans-Bold-79" x="1489.599609"/>
    <use xlink:href="#DejaVuSans-Bold-2d" x="1554.785156"/>
    <use xlink:href="#DejaVuSans-Bold-72" x="1596.289062"/>
    <use xlink:href="#DejaVuSans-Bold-65" x="1645.605469"/>
    <use xlink:href="#DejaVuSans-Bold-6c" x="1713.427734"/>
    <use xlink:href="#DejaVuSans-Bold-65" x="1747.705078"/>
    <use xlink:href="#DejaVuSans-Bold-76" x="1815.527344"/>
    <use xlink:href="#DejaVuSans-Bold-61" x="1880.712891"/>
    <use xlink:href="#DejaVuSans-Bold-6e" x="1948.193359"/>
    <use xlink:href="#DejaVuSans-Bold-74" x="2019.384766"/>
    <use xlink:href="#DejaVuSans-Bold-20" x="2067.1875"/>
    <use xlink:href="#DejaVuSans-Bold-64" x="2102.001953"/>
    <use xlink:href="#DejaVuSans-Bold-69" x="2173.583984"/>
    <use xlink:href="#DejaVuSans-Bold-73" x="2207.861328"/>
    <use xlink:href="#DejaVuSans-Bold-74" x="2267.382812"/>
    <use xlink:href="#DejaVuSans-Bold-72" x="2315.185547"/>
    <use xlink:href="#DejaVuSans-Bold-69" x="2364.501953"/>
    <use xlink:href="#DejaVuSans-Bold-62" x="2398.779297"/>
    <use xlink:href="#DejaVuSans-Bold-75" x="2470.361328"/>
    <use xlink:href="#DejaVuSans-Bold-74" x="2541.552734"/>
    <use xlink:href="#DejaVuSans-Bold-69" x="2589.355469"/>
    <use xlink:href="#DejaVuSans-Bold-6f" x="2623.632812"/>
    <use xlink:href="#DejaVuSans-Bold-6e" x="2692.333984"/>
    <use xlink:href="#DejaVuSans-Bold-20" x="2763.525391"/>
    <use xlink:href="#DejaVuSans-Bold-73" x="2798.339844"/>
    <use xlink:href="#DejaVuSans-Bold-68" x="2857.861328"/>
    <use xlink:href="#DejaVuSans-Bold-69" x="2929.052734"/>
    <use xlink:href="#DejaVuSans-Bold-66" x="2963.330078"/>
    <use xlink:href="#DejaVuSans-Bold-74" x="3006.835938"/>
    <use xlink:href="#DejaVuSans-Bold-73" x="3054.638672"/>
    <use xlink:href="#DejaVuSans-Bold-2c" x="3114.160156"/>
    <use xlink:href="#DejaVuSans-Bold-20" x="3152.148438"/>
    <use xlink:href="#DejaVuSans-Bold-62" x="3186.962891"/>
    <use xlink:href="#DejaVuSans-Bold-75" x="3258.544922"/>
    <use xlink:href="#DejaVuSans-Bold-74" x="3329.736328"/>
    <use xlink:href="#DejaVuSans-Bold-20" x="3377.539062"/>
    <use xlink:href="#DejaVuSans-Bold-69" x="3412.353516"/>
    <use xlink:href="#DejaVuSans-Bold-73" x="3446.630859"/>
    <use xlink:href="#DejaVuSans-Bold-20" x="3506.152344"/>
    <use xlink:href="#DejaVuSans-Bold-6e" x="3540.966797"/>
    <use xlink:href="#DejaVuSans-Bold-6f" x="3612.158203"/>
    <use xlink:href="#DejaVuSans-Bold-74" x="3680.859375"/>
    <use xlink:href="#DejaVuSans-Bold-20" x="3728.662109"/>
    <use xlink:href="#DejaVuSans-Bold-61" x="3763.476562"/>
    <use xlink:href="#DejaVuSans-Bold-20" x="3830.957031"/>
    <use xlink:href="#DejaVuSans-Bold-73" x="3865.771484"/>
    <use xlink:href="#DejaVuSans-Bold-61" x="3925.292969"/>
    <use xlink:href="#DejaVuSans-Bold-66" x="3992.773438"/>
    <use xlink:href="#DejaVuSans-Bold-65" x="4036.279297"/>
    <use xlink:href="#DejaVuSans-Bold-74" x="4104.101562"/>
    <use xlink:href="#DejaVuSans-Bold-79" x="4151.904297"/>
    <use xlink:href="#DejaVuSans-Bold-20" x="4217.089844"/>
    <use xlink:href="#DejaVuSans-Bold-63" x="4251.904297"/>
    <use xlink:href="#DejaVuSans-Bold-65" x="4311.181641"/>
    <use xlink:href="#DejaVuSans-Bold-72" x="4379.003906"/>
    <use xlink:href="#DejaVuSans-Bold-74" x="4428.320312"/>
    <use xlink:href="#DejaVuSans-Bold-69" x="4476.123047"/>
    <use xlink:href="#DejaVuSans-Bold-66" x="4510.400391"/>
    <use xlink:href="#DejaVuSans-Bold-69" x="4553.90625"/>
    <use xlink:href="#DejaVuSans-Bold-63" x="4588.183594"/>
    <use xlink:href="#DejaVuSans-Bold-61" x="4647.460938"/>
    <use xlink:href="#DejaVuSans-Bold-74" x="4714.941406"/>
    <use xlink:href="#DejaVuSans-Bold-65" x="4762.744141"/>
   </g>
  </g>
 </g>
 <defs>
  <clipPath id="pca30e751da">
   <path d="M 209.259635 188.64 
C 209.259635 177.619869 207.088909 166.706894 202.871687 156.52562 
C 198.654466 146.344346 192.472762 137.092773 184.680352 129.300363 
C 176.887943 121.507954 167.63637 115.32625 157.455096 111.109028 
C 147.273822 106.891807 136.360847 104.721081 125.340716 104.721081 
C 114.320584 104.721081 103.40761 106.891807 93.226336 111.109028 
C 83.045062 115.32625 73.793489 121.507954 66.001079 129.300363 
C 58.208669 137.092773 52.026966 146.344346 47.809744 156.52562 
C 43.592522 166.706894 41.421797 177.619869 41.421797 188.64 
C 41.421797 199.660131 43.592522 210.573106 47.809744 220.75438 
C 52.026966 230.935654 58.208669 240.187227 66.001079 247.979637 
C 73.793489 255.772046 83.045062 261.95375 93.226336 266.170972 
C 103.40761 270.388193 114.320584 272.558919 125.340716 272.558919 
C 136.360847 272.558919 147.273822 270.388193 157.455096 266.170972 
C 167.63637 261.95375 176.887943 255.772046 184.680352 247.979637 
C 192.472762 240.187227 198.654466 230.935654 202.871687 220.75438 
C 207.088909 210.573106 209.259635 199.660131 209.259635 188.64 
M 125.340716 188.64 
C 125.340716 188.64 125.340716 188.64 125.340716 188.64 
C 125.340716 188.64 125.340716 188.64 125.340716 188.64 
C 125.340716 188.64 125.340716 188.64 125.340716 188.64 
C 125.340716 188.64 125.340716 188.64 125.340716 188.64 
C 125.340716 188.64 125.340716 188.64 125.340716 188.64 
C 125.340716 188.64 125.340716 188.64 125.340716 188.64 
C 125.340716 188.64 125.340716 188.64 125.340716 188.64 
C 125.340716 188.64 125.340716 188.64 125.340716 188.64 
C 125.340716 188.64 125.340716 188.64 125.340716 188.64 
C 125.340716 188.64 125.340716 188.64 125.340716 188.64 
C 125.340716 188.64 125.340716 188.64 125.340716 188.64 
C 125.340716 188.64 125.340716 188.64 125.340716 188.64 
C 125.340716 188.64 125.340716 188.64 125.340716 188.64 
C 125.340716 188.64 125.340716 188.64 125.340716 188.64 
C 125.340716 188.64 125.340716 188.64 125.340716 188.64 
C 125.340716 188.64 125.340716 188.64 125.340716 188.64 
z
"/>
  </clipPath>
  <clipPath id="pc500b4748c">
   <rect x="262.043418" y="55.584" width="145.945946" height="266.112"/>
  </clipPath>
  <clipPath id="p6d2065571f">
   <rect x="460.773148" y="55.584" width="138.648649" height="266.112"/>
  </clipPath>
 </defs>
</svg>
